<?xml version="1.0" encoding="UTF-8"?>
<!DOCTYPE svg PUBLIC "-//W3C//DTD SVG 1.1//EN" "http://www.w3.org/Graphics/SVG/1.1/DTD/svg11.dtd">
<svg xmlns="http://www.w3.org/2000/svg" version="1.1" width="261px" height="243px" style="shape-rendering:geometricPrecision; text-rendering:geometricPrecision; image-rendering:optimizeQuality; fill-rule:evenodd; clip-rule:evenodd" xmlns:xlink="http://www.w3.org/1999/xlink">
<g><path style="opacity:1" fill="#3c754e" d="M 137.5,5.5 C 136.262,4.58761 134.928,4.42094 133.5,5C 132.96,9.6226 130.293,11.9559 125.5,12C 124.76,15.9104 122.427,17.7438 118.5,17.5C 123.9,12.7833 128.9,7.61666 133.5,2C 135.841,1.83193 137.174,2.9986 137.5,5.5 Z"/></g>
<g><path style="opacity:1" fill="#1b733a" d="M 137.5,5.5 C 137.197,11.3397 138.863,16.3397 142.5,20.5C 144.913,28.4732 144.913,36.1399 142.5,43.5C 141.7,37.942 140.7,32.2754 139.5,26.5C 140.766,23.9976 140.432,21.6643 138.5,19.5C 137.551,22.1258 137.551,24.7925 138.5,27.5C 135.09,25.6951 132.424,26.5284 130.5,30C 131.167,30.6667 131.833,31.3333 132.5,32C 131.289,33.1131 131.289,34.2798 132.5,35.5C 131.388,36.2652 130.721,37.2652 130.5,38.5C 128.361,40.1391 128.027,42.1391 129.5,44.5C 129.154,45.6956 128.654,45.6956 128,44.5C 127.768,45.7375 127.268,46.7375 126.5,47.5C 126.162,44.9885 126.162,42.6552 126.5,40.5C 125.738,40.0894 124.738,39.9227 123.5,40C 124.598,39.2303 124.598,38.397 123.5,37.5C 124.15,37.1961 124.817,36.8627 125.5,36.5C 126.324,33.2152 126.824,29.8818 127,26.5C 128,27.1667 129,27.8333 130,28.5C 130.346,26.7818 130.846,25.1151 131.5,23.5C 129.615,22.8027 129.282,21.8027 130.5,20.5C 130.154,19.3044 129.654,19.3044 129,20.5C 127.807,19.0215 127.307,17.6882 127.5,16.5C 123.658,17.9236 119.991,19.5903 116.5,21.5C 117.167,20.1667 117.833,18.8333 118.5,17.5C 122.427,17.7438 124.76,15.9104 125.5,12C 130.293,11.9559 132.96,9.6226 133.5,5C 134.928,4.42094 136.262,4.58761 137.5,5.5 Z"/></g>
<g><path style="opacity:1" fill="#187639" d="M 123.5,37.5 C 120.892,44.3169 117.892,50.9835 114.5,57.5C 112.883,58.038 111.216,58.3713 109.5,58.5C 109.502,56.1691 108.669,54.1691 107,52.5C 106.333,47.5 106.333,42.5 107,37.5C 109.876,31.9351 113.043,26.6018 116.5,21.5C 119.991,19.5903 123.658,17.9236 127.5,16.5C 127.307,17.6882 127.807,19.0215 129,20.5C 129.654,19.3044 130.154,19.3044 130.5,20.5C 129.282,21.8027 129.615,22.8027 131.5,23.5C 130.846,25.1151 130.346,26.7818 130,28.5C 129,27.8333 128,27.1667 127,26.5C 126.824,29.8818 126.324,33.2152 125.5,36.5C 124.817,36.8627 124.15,37.1961 123.5,37.5 Z"/></g>
<g><path style="opacity:1" fill="#187838" d="M 142.5,43.5 C 142.737,44.791 142.404,45.791 141.5,46.5C 139.372,43.1862 137.706,43.1862 136.5,46.5C 135.635,47.5827 134.635,47.7494 133.5,47C 132.806,43.9751 131.806,41.1418 130.5,38.5C 130.721,37.2652 131.388,36.2652 132.5,35.5C 131.289,34.2798 131.289,33.1131 132.5,32C 131.833,31.3333 131.167,30.6667 130.5,30C 132.424,26.5284 135.09,25.6951 138.5,27.5C 137.551,24.7925 137.551,22.1258 138.5,19.5C 140.432,21.6643 140.766,23.9976 139.5,26.5C 140.7,32.2754 141.7,37.942 142.5,43.5 Z"/></g>
<g><path style="opacity:1" fill="#417852" d="M 100.5,53.5 C 99.391,53.4431 98.391,53.1098 97.5,52.5C 97.6716,51.5084 97.3382,50.8417 96.5,50.5C 93.749,48.2552 91.0824,45.7552 88.5,43C 86.5789,42.6397 84.9122,41.8064 83.5,40.5C 78.2189,40.1128 73.0522,39.4461 68,38.5C 67.1667,38.8333 66.3333,39.1667 65.5,39.5C 66.3154,44.2443 67.3154,49.2443 68.5,54.5C 69.415,60.4199 72.0817,65.4199 76.5,69.5C 79.1695,70.8266 81.8362,72.3266 84.5,74C 86.4727,74.4955 88.4727,74.6621 90.5,74.5C 90.4657,70.3705 89.799,66.3705 88.5,62.5C 90.4832,62.1568 91.8166,62.8235 92.5,64.5C 91.7611,64.369 91.0944,64.5357 90.5,65C 92.5218,68.6767 92.8551,72.51 91.5,76.5C 74.2345,74.0632 65.0678,64.0632 64,46.5C 62.5833,42.7378 61.0833,39.0711 59.5,35.5C 68.6891,35.1708 77.6891,36.3375 86.5,39C 92.7371,42.4023 97.4038,47.2356 100.5,53.5 Z"/></g>
<g><path style="opacity:1" fill="#1b763a" d="M 96.5,50.5 C 94.5742,49.7577 92.7409,48.7577 91,47.5C 90.6667,48.1667 90.3333,48.8333 90,49.5C 89.5814,48.3279 88.9147,47.3279 88,46.5C 87.3828,47.4491 87.5494,48.2825 88.5,49C 87.6619,50.1554 86.6619,51.3221 85.5,52.5C 83.2654,51.7721 81.4321,50.4388 80,48.5C 78.7308,49.9047 78.2308,51.5714 78.5,53.5C 81.2639,53.9988 82.9305,55.6655 83.5,58.5C 81.2921,57.977 79.7921,56.6437 79,54.5C 77.7308,55.9047 77.2308,57.5714 77.5,59.5C 76.5,59.5 75.5,59.5 74.5,59.5C 74.8295,54.1392 75.4962,49.1392 76.5,44.5C 75.5,43.1667 74.5,41.8333 73.5,40.5C 72.3706,43.1855 72.2039,46.1855 73,49.5C 70.9782,50.8018 69.4782,52.4685 68.5,54.5C 67.3154,49.2443 66.3154,44.2443 65.5,39.5C 66.3333,39.1667 67.1667,38.8333 68,38.5C 73.0522,39.4461 78.2189,40.1128 83.5,40.5C 84.9122,41.8064 86.5789,42.6397 88.5,43C 91.0824,45.7552 93.749,48.2552 96.5,50.5 Z"/></g>
<g><path style="opacity:1" fill="#1a7739" d="M 130.5,38.5 C 131.806,41.1418 132.806,43.9751 133.5,47C 134.635,47.7494 135.635,47.5827 136.5,46.5C 137.706,43.1862 139.372,43.1862 141.5,46.5C 140.017,50.0883 138.684,53.755 137.5,57.5C 136.735,57.0766 135.902,56.7432 135,56.5C 131.826,60.7239 127.659,63.3905 122.5,64.5C 120.748,64.5824 119.748,63.7491 119.5,62C 120.64,56.7197 123.306,52.3864 127.5,49C 126.944,48.6174 126.611,48.1174 126.5,47.5C 127.268,46.7375 127.768,45.7375 128,44.5C 128.654,45.6956 129.154,45.6956 129.5,44.5C 128.027,42.1391 128.361,40.1391 130.5,38.5 Z"/></g>
<g><path style="opacity:1" fill="#487b58" d="M 137.5,5.5 C 148.25,21.6725 149.084,38.3392 140,55.5C 139.292,56.3805 138.458,57.0472 137.5,57.5C 138.684,53.755 140.017,50.0883 141.5,46.5C 142.404,45.791 142.737,44.791 142.5,43.5C 144.913,36.1399 144.913,28.4732 142.5,20.5C 138.863,16.3397 137.197,11.3397 137.5,5.5 Z"/></g>
<g><path style="opacity:1" fill="#347549" d="M 123.5,37.5 C 124.598,38.397 124.598,39.2303 123.5,40C 124.738,39.9227 125.738,40.0894 126.5,40.5C 126.162,42.6552 126.162,44.9885 126.5,47.5C 126.611,48.1174 126.944,48.6174 127.5,49C 123.306,52.3864 120.64,56.7197 119.5,62C 119.748,63.7491 120.748,64.5824 122.5,64.5C 121.488,65.8717 120.488,67.205 119.5,68.5C 119.822,64.561 118.489,63.7277 115.5,66C 112.953,68.0489 110.953,70.5489 109.5,73.5C 107.821,74.782 105.987,75.782 104,76.5C 102.956,75.3774 102.29,74.0441 102,72.5C 101.576,66.4853 101.076,60.4853 100.5,54.5C 101.222,54.9175 101.722,55.5842 102,56.5C 102.93,61.7993 103.597,67.1327 104,72.5C 109.456,67.8854 113.956,62.5521 117.5,56.5C 116.5,57.1667 115.5,57.8333 114.5,58.5C 114.5,58.1667 114.5,57.8333 114.5,57.5C 117.892,50.9835 120.892,44.3169 123.5,37.5 Z M 117.5,56.5 C 118.809,53.2223 120.642,50.2223 123,47.5C 123.315,48.9078 122.982,50.2411 122,51.5C 120.951,53.6175 119.451,55.2842 117.5,56.5 Z"/></g>
<g><path style="opacity:1" fill="#1a7739" d="M 96.5,50.5 C 97.3382,50.8417 97.6716,51.5084 97.5,52.5C 99.5541,55.9472 99.8874,59.6138 98.5,63.5C 97.12,61.0233 96.12,61.0233 95.5,63.5C 91.92,59.9655 88.5867,56.2988 85.5,52.5C 86.6619,51.3221 87.6619,50.1554 88.5,49C 87.5494,48.2825 87.3828,47.4491 88,46.5C 88.9147,47.3279 89.5814,48.3279 90,49.5C 90.3333,48.8333 90.6667,48.1667 91,47.5C 92.7409,48.7577 94.5742,49.7577 96.5,50.5 Z"/></g>
<g><path style="opacity:1" fill="#417752" d="M 118.5,17.5 C 117.833,18.8333 117.167,20.1667 116.5,21.5C 113.043,26.6018 109.876,31.9351 107,37.5C 106.333,42.5 106.333,47.5 107,52.5C 108.669,54.1691 109.502,56.1691 109.5,58.5C 111.216,58.3713 112.883,58.038 114.5,57.5C 114.5,57.8333 114.5,58.1667 114.5,58.5C 112.44,63.1335 109.94,63.4668 107,59.5C 100.819,42.4955 104.653,28.4955 118.5,17.5 Z"/></g>
<g><path style="opacity:1" fill="#1a7838" d="M 83.5,58.5 C 84.1499,58.8039 84.8165,59.1373 85.5,59.5C 86.3489,63.2174 87.6822,66.7174 89.5,70C 88.7875,71.442 87.6209,72.2753 86,72.5C 83.0829,70.8105 79.9162,69.8105 76.5,69.5C 72.0817,65.4199 69.415,60.4199 68.5,54.5C 69.4782,52.4685 70.9782,50.8018 73,49.5C 72.2039,46.1855 72.3706,43.1855 73.5,40.5C 74.5,41.8333 75.5,43.1667 76.5,44.5C 75.4962,49.1392 74.8295,54.1392 74.5,59.5C 75.5,59.5 76.5,59.5 77.5,59.5C 77.2308,57.5714 77.7308,55.9047 79,54.5C 79.7921,56.6437 81.2921,57.977 83.5,58.5 Z"/></g>
<g><path style="opacity:1" fill="#3c794e" d="M 175.5,71.5 C 174.38,67.9829 174.38,64.3163 175.5,60.5C 172.421,60.2601 169.421,60.5934 166.5,61.5C 165.167,60.8333 164.167,59.8333 163.5,58.5C 161.926,57.3691 160.259,57.2025 158.5,58C 159.448,58.4828 160.448,58.6495 161.5,58.5C 161.78,61.2724 161.113,63.7724 159.5,66C 160.167,66.3333 160.833,66.6667 161.5,67C 158.573,68.7605 156.573,71.2605 155.5,74.5C 154.274,75.3629 152.94,75.3629 151.5,74.5C 147.765,71.3646 145.932,67.3646 146,62.5C 147.333,63.1667 148.667,63.8333 150,64.5C 150.903,63.2986 152.069,62.4652 153.5,62C 149.703,60.5761 145.703,60.0761 141.5,60.5C 142.609,59.71 143.942,59.21 145.5,59C 144.944,58.6174 144.611,58.1174 144.5,57.5C 148.487,59.1682 152.154,58.6682 155.5,56C 158.195,55.7457 160.695,55.579 163,55.5C 165,56.1667 166.333,57.5 167,59.5C 170.073,58.3832 173.24,58.2165 176.5,59C 177.863,63.2729 177.53,67.4396 175.5,71.5 Z M 157.5,65.5 C 156.563,68.2695 155.396,70.9361 154,73.5C 152.842,71.5091 151.342,69.8424 149.5,68.5C 152.294,67.7465 154.96,66.7465 157.5,65.5 Z"/></g>
<g><path style="opacity:1" fill="#226a3b" d="M 85.5,52.5 C 88.5867,56.2988 91.92,59.9655 95.5,63.5C 95.5,64.1667 95.5,64.8333 95.5,65.5C 94.609,64.8902 93.609,64.5569 92.5,64.5C 91.8166,62.8235 90.4832,62.1568 88.5,62.5C 89.799,66.3705 90.4657,70.3705 90.5,74.5C 88.4727,74.6621 86.4727,74.4955 84.5,74C 81.8362,72.3266 79.1695,70.8266 76.5,69.5C 79.9162,69.8105 83.0829,70.8105 86,72.5C 87.6209,72.2753 88.7875,71.442 89.5,70C 87.6822,66.7174 86.3489,63.2174 85.5,59.5C 84.8165,59.1373 84.1499,58.8039 83.5,58.5C 82.9305,55.6655 81.2639,53.9988 78.5,53.5C 78.2308,51.5714 78.7308,49.9047 80,48.5C 81.4321,50.4388 83.2654,51.7721 85.5,52.5 Z"/></g>
<g><path style="opacity:1" fill="#20733c" d="M 175.5,71.5 C 175.5,72.1667 175.167,72.5 174.5,72.5C 172.549,72.2267 171.049,72.8934 170,74.5C 169.502,77.4816 169.335,80.4816 169.5,83.5C 167.366,82.2965 166.032,80.4632 165.5,78C 164.065,78.3112 162.732,78.1445 161.5,77.5C 156.739,80.9115 153.405,79.9115 151.5,74.5C 152.94,75.3629 154.274,75.3629 155.5,74.5C 156.573,71.2605 158.573,68.7605 161.5,67C 160.833,66.6667 160.167,66.3333 159.5,66C 161.113,63.7724 161.78,61.2724 161.5,58.5C 160.448,58.6495 159.448,58.4828 158.5,58C 160.259,57.2025 161.926,57.3691 163.5,58.5C 164.167,59.8333 165.167,60.8333 166.5,61.5C 169.421,60.5934 172.421,60.2601 175.5,60.5C 174.38,64.3163 174.38,67.9829 175.5,71.5 Z"/></g>
<g><path style="opacity:1" fill="#1b7539" d="M 97.5,52.5 C 98.391,53.1098 99.391,53.4431 100.5,53.5C 100.5,53.8333 100.5,54.1667 100.5,54.5C 101.076,60.4853 101.576,66.4853 102,72.5C 102.29,74.0441 102.956,75.3774 104,76.5C 105.987,75.782 107.821,74.782 109.5,73.5C 110.953,70.5489 112.953,68.0489 115.5,66C 118.489,63.7277 119.822,64.561 119.5,68.5C 117.431,70.5735 115.098,72.2401 112.5,73.5C 112.762,74.9778 112.429,76.3112 111.5,77.5C 110.305,79.297 108.638,80.297 106.5,80.5C 105.897,83.7701 103.897,85.7701 100.5,86.5C 99.9003,89.349 98.5669,91.6823 96.5,93.5C 96.2914,92.0783 95.7914,90.745 95,89.5C 93.9609,90.7101 92.7942,91.7101 91.5,92.5C 94.49,86.7254 96.49,80.5588 97.5,74C 96.4958,71.6496 95.4958,69.3163 94.5,67C 95.056,66.6174 95.3893,66.1174 95.5,65.5C 95.5,64.8333 95.5,64.1667 95.5,63.5C 96.12,61.0233 97.12,61.0233 98.5,63.5C 99.8874,59.6138 99.5541,55.9472 97.5,52.5 Z"/></g>
<g><path style="opacity:1" fill="#1b7538" d="M 141.5,60.5 C 145.703,60.0761 149.703,60.5761 153.5,62C 152.069,62.4652 150.903,63.2986 150,64.5C 148.667,63.8333 147.333,63.1667 146,62.5C 145.932,67.3646 147.765,71.3646 151.5,74.5C 153.405,79.9115 156.739,80.9115 161.5,77.5C 162.732,78.1445 164.065,78.3112 165.5,78C 166.032,80.4632 167.366,82.2965 169.5,83.5C 170.708,84.2341 172.041,84.5674 173.5,84.5C 173.5,85.5 173.5,86.5 173.5,87.5C 167.73,84.6065 161.563,82.6065 155,81.5C 152.696,83.5404 150.862,85.8737 149.5,88.5C 145.423,88.9829 143.09,87.3163 142.5,83.5C 146.791,81.9116 148.125,78.9116 146.5,74.5C 144.09,74.0791 142.257,72.7458 141,70.5C 141.265,66.9476 141.431,63.6143 141.5,60.5 Z"/></g>
<g><path style="opacity:1" fill="#437953" d="M 137.5,57.5 C 133.117,62.5369 127.783,66.3703 121.5,69C 112.253,78.243 103.753,88.0764 96,98.5C 93.4899,105.367 90.9899,112.2 88.5,119C 89.3672,122.105 89.7006,125.272 89.5,128.5C 88.8333,128.5 88.1667,128.5 87.5,128.5C 86.7951,119.871 87.9618,111.538 91,103.5C 93.711,100.712 95.5443,97.3784 96.5,93.5C 98.5669,91.6823 99.9003,89.349 100.5,86.5C 103.897,85.7701 105.897,83.7701 106.5,80.5C 108.638,80.297 110.305,79.297 111.5,77.5C 112.429,76.3112 112.762,74.9778 112.5,73.5C 115.098,72.2401 117.431,70.5735 119.5,68.5C 120.488,67.205 121.488,65.8717 122.5,64.5C 127.659,63.3905 131.826,60.7239 135,56.5C 135.902,56.7432 136.735,57.0766 137.5,57.5 Z"/></g>
<g><path style="opacity:1" fill="#357649" d="M 174.5,72.5 C 173.816,74.4488 172.649,76.1155 171,77.5C 170.558,80.7395 172.058,82.5729 175.5,83C 181.874,88.1915 186.874,94.3581 190.5,101.5C 189.167,101.5 187.833,101.5 186.5,101.5C 186.5,100.167 186.5,98.8333 186.5,97.5C 184.063,96.6133 181.73,95.78 179.5,95C 181.802,100.805 184.469,106.305 187.5,111.5C 188.77,120.197 188.77,128.863 187.5,137.5C 186.728,138.694 185.728,139.694 184.5,140.5C 190.719,116.29 183.052,98.1237 161.5,86C 159.167,85.3333 156.833,85.3333 154.5,86C 153.347,87.883 151.681,88.7163 149.5,88.5C 150.862,85.8737 152.696,83.5404 155,81.5C 161.563,82.6065 167.73,84.6065 173.5,87.5C 173.5,86.5 173.5,85.5 173.5,84.5C 172.041,84.5674 170.708,84.2341 169.5,83.5C 169.335,80.4816 169.502,77.4816 170,74.5C 171.049,72.8934 172.549,72.2267 174.5,72.5 Z"/></g>
<g><path style="opacity:1" fill="#407851" d="M 144.5,57.5 C 144.611,58.1174 144.944,58.6174 145.5,59C 143.942,59.21 142.609,59.71 141.5,60.5C 141.431,63.6143 141.265,66.9476 141,70.5C 142.257,72.7458 144.09,74.0791 146.5,74.5C 148.125,78.9116 146.791,81.9116 142.5,83.5C 143.09,87.3163 145.423,88.9829 149.5,88.5C 146.365,89.247 143.365,89.247 140.5,88.5C 142.794,90.3883 145.461,91.7216 148.5,92.5C 148.833,93 149.167,93.5 149.5,94C 148.385,95.3932 147.885,96.8932 148,98.5C 148.414,98.0426 148.914,97.7093 149.5,97.5C 153.273,98.8389 156.939,100.172 160.5,101.5C 159.504,101.414 158.671,101.748 158,102.5C 154.537,100.705 151.037,100.039 147.5,100.5C 146.85,102.184 145.85,103.517 144.5,104.5C 144.631,103.761 144.464,103.094 144,102.5C 140.793,104.705 138.793,107.705 138,111.5C 137.329,112.252 136.496,112.586 135.5,112.5C 135.726,109.118 136.726,106.118 138.5,103.5C 141.91,103.616 143.244,101.95 142.5,98.5C 143.5,98.5 144.5,98.5 145.5,98.5C 145.5,96.5 145.5,94.5 145.5,92.5C 141.414,92.1161 137.414,91.2827 133.5,90C 129.179,89.501 124.846,89.3343 120.5,89.5C 117.972,90.0229 115.639,91.0229 113.5,92.5C 112.584,92.4573 111.917,92.1239 111.5,91.5C 120.123,85.5221 129.289,84.8555 139,89.5C 138.805,87.8739 138.805,86.2072 139,84.5C 141.916,83.4716 144.083,81.6383 145.5,79C 144.708,77.0403 143.375,75.5403 141.5,74.5C 140.105,70.693 138.771,66.8597 137.5,63C 138.253,59.0739 140.587,57.2405 144.5,57.5 Z"/></g>
<g><path style="opacity:1" fill="#19773a" d="M 120.5,89.5 C 124.846,89.3343 129.179,89.501 133.5,90C 137.414,91.2827 141.414,92.1161 145.5,92.5C 145.5,94.5 145.5,96.5 145.5,98.5C 144.5,98.5 143.5,98.5 142.5,98.5C 142.167,98.5 141.833,98.5 141.5,98.5C 138.639,96.5035 135.639,96.6702 132.5,99C 133.791,101.09 133.124,102.424 130.5,103C 131.833,103.667 131.833,104.333 130.5,105C 128.623,105.576 126.789,105.409 125,104.5C 123.04,105.292 121.54,106.625 120.5,108.5C 119.893,108.376 119.56,108.043 119.5,107.5C 120.932,104.903 123.099,103.237 126,102.5C 126.034,100.82 126.201,99.3204 126.5,98C 125.906,97.5357 125.239,97.369 124.5,97.5C 122.255,97.4588 121.588,96.6255 122.5,95C 121.874,94.2496 121.374,93.4162 121,92.5C 119.927,93.2797 118.76,93.113 117.5,92C 119.119,91.7645 120.119,90.9311 120.5,89.5 Z"/></g>
<g><path style="opacity:1" fill="#377149" d="M 92.5,64.5 C 93.609,64.5569 94.609,64.8902 95.5,65.5C 95.3893,66.1174 95.056,66.6174 94.5,67C 95.4958,69.3163 96.4958,71.6496 97.5,74C 96.49,80.5588 94.49,86.7254 91.5,92.5C 91.1208,95.2531 89.6208,97.2531 87,98.5C 85.986,102.378 84.486,106.044 82.5,109.5C 82.2448,116.554 81.2448,123.22 79.5,129.5C 79.0499,121.029 79.8833,112.696 82,104.5C 85.4919,96.8465 89.4919,89.5132 94,82.5C 94.3148,79.6285 94.8148,76.7952 95.5,74C 94.7179,70.6862 93.7179,67.5195 92.5,64.5 Z"/></g>
<g><path style="opacity:1" fill="#1a7539" d="M 120.5,89.5 C 120.119,90.9311 119.119,91.7645 117.5,92C 118.76,93.113 119.927,93.2797 121,92.5C 121.374,93.4162 121.874,94.2496 122.5,95C 121.588,96.6255 122.255,97.4588 124.5,97.5C 120.95,100.105 116.95,101.939 112.5,103C 111.075,104.714 111.408,106.047 113.5,107C 111.892,107.658 110.725,107.158 110,105.5C 109.601,105.728 109.435,106.062 109.5,106.5C 106.745,104.68 107.079,102.513 110.5,100C 111.784,99.3162 112.951,99.4829 114,100.5C 114.658,98.892 114.158,97.7253 112.5,97C 114.932,95.9125 114.598,95.4125 111.5,95.5C 111.881,97.9418 111.214,98.6085 109.5,97.5C 108.14,98.1799 106.807,98.8466 105.5,99.5C 106.292,97.7428 107.625,96.4095 109.5,95.5C 110.246,94.2638 110.579,92.9305 110.5,91.5C 110.833,91.5 111.167,91.5 111.5,91.5C 111.917,92.1239 112.584,92.4573 113.5,92.5C 115.639,91.0229 117.972,90.0229 120.5,89.5 Z"/></g>
<g><path style="opacity:1" fill="#2b6d41" d="M 124.5,97.5 C 125.239,97.369 125.906,97.5357 126.5,98C 126.201,99.3204 126.034,100.82 126,102.5C 123.099,103.237 120.932,104.903 119.5,107.5C 118.448,107.351 117.448,107.517 116.5,108C 115.695,109.972 114.361,111.472 112.5,112.5C 111.209,113.527 111.209,114.527 112.5,115.5C 111.312,116.048 110.145,116.381 109,116.5C 108.814,120.681 107.981,124.681 106.5,128.5C 105.751,124.946 104.918,121.28 104,117.5C 103.768,118.737 103.268,119.737 102.5,120.5C 101.957,120.44 101.624,120.107 101.5,119.5C 102.197,114.798 104.197,110.798 107.5,107.5C 108.492,107.672 109.158,107.338 109.5,106.5C 109.435,106.062 109.601,105.728 110,105.5C 110.725,107.158 111.892,107.658 113.5,107C 111.408,106.047 111.075,104.714 112.5,103C 116.95,101.939 120.95,100.105 124.5,97.5 Z"/></g>
<g><path style="opacity:1" fill="#197738" d="M 109.5,106.5 C 109.158,107.338 108.492,107.672 107.5,107.5C 106.178,107.33 105.011,107.663 104,108.5C 102.682,113.308 100.515,117.642 97.5,121.5C 97.1667,120.833 96.8333,120.167 96.5,119.5C 97.7741,116.633 98.6075,113.633 99,110.5C 101.696,107.103 103.862,103.436 105.5,99.5C 106.807,98.8466 108.14,98.1799 109.5,97.5C 111.214,98.6085 111.881,97.9418 111.5,95.5C 114.598,95.4125 114.932,95.9125 112.5,97C 114.158,97.7253 114.658,98.892 114,100.5C 112.951,99.4829 111.784,99.3162 110.5,100C 107.079,102.513 106.745,104.68 109.5,106.5 Z"/></g>
<g><path style="opacity:1" fill="#177939" d="M 141.5,98.5 C 141.719,99.675 141.386,100.675 140.5,101.5C 138.1,102.018 136.1,103.185 134.5,105C 135.167,105.333 135.833,105.667 136.5,106C 134.5,106.667 133.167,108 132.5,110C 129.164,109.998 126.83,111.498 125.5,114.5C 123.709,112.54 121.543,111.207 119,110.5C 118.28,112.112 118.446,113.612 119.5,115C 123.5,115.333 127.5,115.667 131.5,116C 136.872,117.592 136.705,118.759 131,119.5C 128.942,118.706 126.942,118.373 125,118.5C 124.081,120.239 122.915,120.906 121.5,120.5C 118.848,119.848 117.182,118.182 116.5,115.5C 115.334,117.739 114.001,117.739 112.5,115.5C 111.209,114.527 111.209,113.527 112.5,112.5C 114.361,111.472 115.695,109.972 116.5,108C 117.448,107.517 118.448,107.351 119.5,107.5C 119.56,108.043 119.893,108.376 120.5,108.5C 121.54,106.625 123.04,105.292 125,104.5C 126.789,105.409 128.623,105.576 130.5,105C 131.833,104.333 131.833,103.667 130.5,103C 133.124,102.424 133.791,101.09 132.5,99C 135.639,96.6702 138.639,96.5035 141.5,98.5 Z"/></g>
<g><path style="opacity:1" fill="#1c7539" d="M 170.5,110.5 C 169.833,112.167 169.167,113.833 168.5,115.5C 166.302,114.933 163.969,114.933 161.5,115.5C 161.5,116.5 161.5,117.5 161.5,118.5C 156.015,119.206 150.515,119.873 145,120.5C 139.961,120.514 139.461,119.347 143.5,117C 146.5,116.667 149.5,116.333 152.5,116C 153.416,115.722 154.082,115.222 154.5,114.5C 156.482,114.005 158.482,113.505 160.5,113C 161.517,111.951 161.684,110.784 161,109.5C 157.608,107.148 154.108,104.982 150.5,103C 153.187,102.463 155.687,102.963 158,104.5C 160.041,103.577 162.208,103.244 164.5,103.5C 164.325,107.66 166.325,109.994 170.5,110.5 Z"/></g>
<g><path style="opacity:1" fill="#1b7439" d="M 96.5,93.5 C 95.5443,97.3784 93.711,100.712 91,103.5C 87.9618,111.538 86.7951,119.871 87.5,128.5C 86.2652,128.279 85.2652,127.612 84.5,126.5C 82.2053,130.342 81.8719,134.342 83.5,138.5C 82.7281,137.306 81.7281,136.306 80.5,135.5C 80.6747,133.379 80.3414,131.379 79.5,129.5C 81.2448,123.22 82.2448,116.554 82.5,109.5C 84.486,106.044 85.986,102.378 87,98.5C 89.6208,97.2531 91.1208,95.2531 91.5,92.5C 92.7942,91.7101 93.9609,90.7101 95,89.5C 95.7914,90.745 96.2914,92.0783 96.5,93.5 Z"/></g>
<g><path style="opacity:1" fill="#3a744b" d="M 160.5,101.5 C 165.792,102.465 169.126,105.465 170.5,110.5C 166.325,109.994 164.325,107.66 164.5,103.5C 162.208,103.244 160.041,103.577 158,104.5C 155.687,102.963 153.187,102.463 150.5,103C 154.108,104.982 157.608,107.148 161,109.5C 161.684,110.784 161.517,111.951 160.5,113C 158.482,113.505 156.482,114.005 154.5,114.5C 148.472,115.639 142.472,115.973 136.5,115.5C 137.243,114.818 137.909,114.151 138.5,113.5C 144.513,115.046 150.18,114.212 155.5,111C 155.043,110.586 154.709,110.086 154.5,109.5C 151.5,108.667 148.5,107.833 145.5,107C 144.748,106.329 144.414,105.496 144.5,104.5C 145.85,103.517 146.85,102.184 147.5,100.5C 151.037,100.039 154.537,100.705 158,102.5C 158.671,101.748 159.504,101.414 160.5,101.5 Z"/></g>
<g><path style="opacity:1" fill="#1b7538" d="M 190.5,101.5 C 191.346,106.938 192.512,112.271 194,117.5C 194.609,122.861 194.442,128.195 193.5,133.5C 192.624,133.369 191.957,133.702 191.5,134.5C 190.985,136.225 190.318,137.892 189.5,139.5C 188.818,138.757 188.151,138.091 187.5,137.5C 188.77,128.863 188.77,120.197 187.5,111.5C 184.469,106.305 181.802,100.805 179.5,95C 181.73,95.78 184.063,96.6133 186.5,97.5C 186.5,98.8333 186.5,100.167 186.5,101.5C 187.833,101.5 189.167,101.5 190.5,101.5 Z"/></g>
<g><path style="opacity:1" fill="#2b7543" d="M 112.5,115.5 C 114.001,117.739 115.334,117.739 116.5,115.5C 117.182,118.182 118.848,119.848 121.5,120.5C 121.427,122.027 122.094,123.027 123.5,123.5C 122.406,125.836 121.073,125.836 119.5,123.5C 117.989,122.498 116.322,121.831 114.5,121.5C 115.955,129.016 116.955,136.682 117.5,144.5C 117.5,148.167 117.5,151.833 117.5,155.5C 115.833,155.5 114.167,155.5 112.5,155.5C 111.833,155.5 111.167,155.5 110.5,155.5C 110.672,154.508 110.338,153.842 109.5,153.5C 109.5,152.833 109.167,152.5 108.5,152.5C 108.318,150.409 108.652,148.409 109.5,146.5C 107.881,140.599 106.881,134.599 106.5,128.5C 107.981,124.681 108.814,120.681 109,116.5C 110.145,116.381 111.312,116.048 112.5,115.5 Z"/></g>
<g><path style="opacity:1" fill="#2d7744" d="M 141.5,98.5 C 141.833,98.5 142.167,98.5 142.5,98.5C 143.244,101.95 141.91,103.616 138.5,103.5C 136.726,106.118 135.726,109.118 135.5,112.5C 136.209,113.404 137.209,113.737 138.5,113.5C 137.909,114.151 137.243,114.818 136.5,115.5C 142.472,115.973 148.472,115.639 154.5,114.5C 154.082,115.222 153.416,115.722 152.5,116C 149.5,116.333 146.5,116.667 143.5,117C 139.461,119.347 139.961,120.514 145,120.5C 150.515,119.873 156.015,119.206 161.5,118.5C 161.5,117.5 161.5,116.5 161.5,115.5C 163.969,114.933 166.302,114.933 168.5,115.5C 166.877,116.779 165.21,118.113 163.5,119.5C 165.413,120.051 167.413,120.218 169.5,120C 170.406,121.699 170.739,123.533 170.5,125.5C 169.566,124.432 169.232,123.099 169.5,121.5C 167.097,121.448 164.764,121.781 162.5,122.5C 162.631,121.761 162.464,121.094 162,120.5C 156.811,121.378 151.644,122.378 146.5,123.5C 140.008,120.568 133.175,119.901 126,121.5C 124.624,121.684 123.791,122.351 123.5,123.5C 122.094,123.027 121.427,122.027 121.5,120.5C 122.915,120.906 124.081,120.239 125,118.5C 126.942,118.373 128.942,118.706 131,119.5C 136.705,118.759 136.872,117.592 131.5,116C 127.5,115.667 123.5,115.333 119.5,115C 118.446,113.612 118.28,112.112 119,110.5C 121.543,111.207 123.709,112.54 125.5,114.5C 126.83,111.498 129.164,109.998 132.5,110C 133.167,108 134.5,106.667 136.5,106C 135.833,105.667 135.167,105.333 134.5,105C 136.1,103.185 138.1,102.018 140.5,101.5C 141.386,100.675 141.719,99.675 141.5,98.5 Z"/></g>
<g><path style="opacity:1" fill="#3e7750" d="M 190.5,101.5 C 195.139,109.037 197.472,117.371 197.5,126.5C 196.45,133.7 194.617,140.7 192,147.5C 191.051,149.093 189.885,150.426 188.5,151.5C 190.612,147.557 191.946,143.224 192.5,138.5C 193.301,136.958 193.634,135.292 193.5,133.5C 194.442,128.195 194.609,122.861 194,117.5C 192.512,112.271 191.346,106.938 190.5,101.5 Z"/></g>
<g><path style="opacity:1" fill="#2d7443" d="M 110.5,91.5 C 110.579,92.9305 110.246,94.2638 109.5,95.5C 107.625,96.4095 106.292,97.7428 105.5,99.5C 103.862,103.436 101.696,107.103 99,110.5C 98.6075,113.633 97.7741,116.633 96.5,119.5C 96.8333,120.167 97.1667,120.833 97.5,121.5C 100.515,117.642 102.682,113.308 104,108.5C 105.011,107.663 106.178,107.33 107.5,107.5C 104.197,110.798 102.197,114.798 101.5,119.5C 101.624,120.107 101.957,120.44 102.5,120.5C 102.672,121.492 102.338,122.158 101.5,122.5C 101.217,121.711 100.717,121.044 100,120.5C 99.2432,122.315 98.4098,123.981 97.5,125.5C 97.6309,124.624 97.2975,123.957 96.5,123.5C 95.2949,124.577 94.6282,125.91 94.5,127.5C 92.8762,129.151 91.5429,131.151 90.5,133.5C 91.057,135.235 91.3903,136.902 91.5,138.5C 90.675,139.386 89.675,139.719 88.5,139.5C 88.414,135.681 89.0807,132.015 90.5,128.5C 90.1866,125.753 90.52,123.086 91.5,120.5C 94.973,112.179 99.1397,104.179 104,96.5C 106.287,94.9456 108.454,93.2789 110.5,91.5 Z"/></g>
<g><path style="opacity:1" fill="#437556" d="M 146.5,123.5 C 144.533,123.261 142.699,123.594 141,124.5C 140.333,123.833 139.667,123.167 139,122.5C 136,123.833 133,123.833 130,122.5C 129.907,125.007 129.074,127.174 127.5,129C 128.946,135.061 129.946,141.228 130.5,147.5C 131.5,147.5 132.5,147.5 133.5,147.5C 133.423,148.75 132.756,149.583 131.5,150C 132.036,153.605 133.369,156.772 135.5,159.5C 135.5,159.833 135.5,160.167 135.5,160.5C 134.504,160.586 133.671,160.252 133,159.5C 132.333,157.5 131.667,155.5 131,153.5C 130.257,155.441 130.424,157.274 131.5,159C 129.418,160.831 127.085,161.998 124.5,162.5C 123.778,162.082 123.278,161.416 123,160.5C 122.612,161.428 121.945,162.095 121,162.5C 119.272,162.101 117.772,161.434 116.5,160.5C 115.761,160.631 115.094,160.464 114.5,160C 115.731,158.817 115.731,157.651 114.5,156.5C 113.313,157.653 112.313,157.653 111.5,156.5C 112.167,156.5 112.5,156.167 112.5,155.5C 114.167,155.5 115.833,155.5 117.5,155.5C 117.5,151.833 117.5,148.167 117.5,144.5C 118.314,140.513 119.314,136.513 120.5,132.5C 120.14,130.392 119.473,128.392 118.5,126.5C 118.685,125.416 119.018,124.416 119.5,123.5C 121.073,125.836 122.406,125.836 123.5,123.5C 123.791,122.351 124.624,121.684 126,121.5C 133.175,119.901 140.008,120.568 146.5,123.5 Z M 122.5,150.5 C 122.5,150.833 122.5,151.167 122.5,151.5C 122.5,153.833 122.5,156.167 122.5,158.5C 121.167,158.5 119.833,158.5 118.5,158.5C 118.5,155.167 118.5,151.833 118.5,148.5C 120.199,148.527 121.533,149.194 122.5,150.5 Z"/></g>
<g><path style="opacity:1" fill="#1a763a" d="M 87.5,128.5 C 88.1667,128.5 88.8333,128.5 89.5,128.5C 89.8333,128.5 90.1667,128.5 90.5,128.5C 89.0807,132.015 88.414,135.681 88.5,139.5C 89.675,139.719 90.675,139.386 91.5,138.5C 91.3903,136.902 91.057,135.235 90.5,133.5C 91.5429,131.151 92.8762,129.151 94.5,127.5C 94.8553,131.356 95.022,135.356 95,139.5C 95.5,140 96,140.5 96.5,141C 95.4911,143.172 93.8244,144.338 91.5,144.5C 91.3068,148.449 90.8068,148.449 90,144.5C 89.51,145.793 89.3433,147.127 89.5,148.5C 87.3173,145.298 85.3173,141.964 83.5,138.5C 81.8719,134.342 82.2053,130.342 84.5,126.5C 85.2652,127.612 86.2652,128.279 87.5,128.5 Z"/></g>
<g><path style="opacity:1" fill="#3a714c" d="M 140.5,125.5 C 141.622,127.288 141.789,129.288 141,131.5C 134.312,138.673 132.146,137.34 134.5,127.5C 136.657,126.95 138.657,126.283 140.5,125.5 Z"/></g>
<g><path style="opacity:1" fill="#1d733c" d="M 170.5,125.5 C 170.035,133.89 168.868,142.224 167,150.5C 165.688,154.633 163.188,157.633 159.5,159.5C 160.783,157.377 162.283,155.377 164,153.5C 164.567,150.832 165.067,148.166 165.5,145.5C 166.028,144.279 166.695,143.113 167.5,142C 166.211,137.044 166.211,132.044 167.5,127C 166.513,125.128 165.846,125.295 165.5,127.5C 164.542,127.953 163.708,128.619 163,129.5C 161.984,128.366 161.317,128.699 161,130.5C 158.959,129.577 156.792,129.244 154.5,129.5C 155.726,127.124 157.726,125.624 160.5,125C 161.252,124.329 161.586,123.496 161.5,122.5C 161.833,122.5 162.167,122.5 162.5,122.5C 164.764,121.781 167.097,121.448 169.5,121.5C 169.232,123.099 169.566,124.432 170.5,125.5 Z"/></g>
<g><path style="opacity:1" fill="#177639" d="M 165.5,127.5 C 165.291,128.922 164.791,130.255 164,131.5C 163.086,130.346 162.253,130.513 161.5,132C 165.083,133.697 165.416,135.863 162.5,138.5C 164.04,139.532 164.54,140.865 164,142.5C 162.667,143.167 161.667,144.167 161,145.5C 161.476,141.557 160.976,137.891 159.5,134.5C 160.59,133.391 160.59,132.391 159.5,131.5C 158.571,132.689 158.238,134.022 158.5,135.5C 157.5,135.5 156.5,135.5 155.5,135.5C 155.657,136.873 155.49,138.207 155,139.5C 154.282,138.549 153.449,138.383 152.5,139C 153.333,139.833 154.167,140.667 155,141.5C 156,140.167 157,140.167 158,141.5C 157.872,143.445 158.038,145.278 158.5,147C 157.956,147.717 157.289,148.217 156.5,148.5C 156.662,146.473 156.495,144.473 156,142.5C 152.661,144.673 149.828,147.34 147.5,150.5C 145.577,151.308 143.577,151.808 141.5,152C 140.748,152.671 140.414,153.504 140.5,154.5C 138.898,156.074 136.898,156.741 134.5,156.5C 134.335,153.15 134.502,149.817 135,146.5C 137.833,142.167 140.667,137.833 143.5,133.5C 146.775,131.174 150.441,129.841 154.5,129.5C 156.792,129.244 158.959,129.577 161,130.5C 161.317,128.699 161.984,128.366 163,129.5C 163.708,128.619 164.542,127.953 165.5,127.5 Z"/></g>
<g><path style="opacity:1" fill="#167738" d="M 97.5,125.5 C 96.1742,135.2 98.1742,144.2 103.5,152.5C 102.964,154.43 102.964,156.597 103.5,159C 102.049,158.737 100.716,158.904 99.5,159.5C 100.763,161.029 101.763,162.695 102.5,164.5C 99.8333,162.833 97.1667,161.167 94.5,159.5C 94.0057,156.513 92.5057,154.179 90,152.5C 89.51,151.207 89.3433,149.873 89.5,148.5C 89.3433,147.127 89.51,145.793 90,144.5C 90.8068,148.449 91.3068,148.449 91.5,144.5C 93.8244,144.338 95.4911,143.172 96.5,141C 96,140.5 95.5,140 95,139.5C 95.022,135.356 94.8553,131.356 94.5,127.5C 94.6282,125.91 95.2949,124.577 96.5,123.5C 97.2975,123.957 97.6309,124.624 97.5,125.5 Z"/></g>
<g><path style="opacity:1" fill="#3d704d" d="M 170.5,125.5 C 172.383,134.732 171.55,144.066 168,153.5C 166.954,155.09 165.787,156.59 164.5,158C 166.5,158.667 168.5,158.667 170.5,158C 171.078,156.583 172.078,155.75 173.5,155.5C 172.833,156.833 172.167,158.167 171.5,159.5C 168.643,160.977 165.643,162.31 162.5,163.5C 162.214,161.067 161.548,161.067 160.5,163.5C 160.44,164.043 160.107,164.376 159.5,164.5C 158.614,163.675 158.281,162.675 158.5,161.5C 158.328,160.508 158.662,159.842 159.5,159.5C 163.188,157.633 165.688,154.633 167,150.5C 168.868,142.224 170.035,133.89 170.5,125.5 Z M 162.5,163.5 C 161.833,163.5 161.167,163.5 160.5,163.5C 161.548,161.067 162.214,161.067 162.5,163.5 Z"/></g>
<g><path style="opacity:1" fill="#337548" d="M 101.5,122.5 C 99.5896,132.284 100.923,141.618 105.5,150.5C 106.357,151.425 107.357,152.092 108.5,152.5C 109.167,152.5 109.5,152.833 109.5,153.5C 109.5,154.167 109.5,154.833 109.5,155.5C 106.687,155.975 104.687,154.975 103.5,152.5C 98.1742,144.2 96.1742,135.2 97.5,125.5C 98.4098,123.981 99.2432,122.315 100,120.5C 100.717,121.044 101.217,121.711 101.5,122.5 Z"/></g>
<g><path style="opacity:1" fill="#167a38" d="M 165.5,145.5 C 164.132,147.564 163.132,149.898 162.5,152.5C 162.446,151.313 162.113,149.98 161.5,148.5C 160.15,149.95 158.484,150.617 156.5,150.5C 156.541,154.243 155.874,154.41 154.5,151C 155.381,150.292 156.047,149.458 156.5,148.5C 157.289,148.217 157.956,147.717 158.5,147C 158.038,145.278 157.872,143.445 158,141.5C 157,140.167 156,140.167 155,141.5C 154.167,140.667 153.333,139.833 152.5,139C 153.449,138.383 154.282,138.549 155,139.5C 155.49,138.207 155.657,136.873 155.5,135.5C 156.5,135.5 157.5,135.5 158.5,135.5C 158.238,134.022 158.571,132.689 159.5,131.5C 160.59,132.391 160.59,133.391 159.5,134.5C 160.976,137.891 161.476,141.557 161,145.5C 161.667,144.167 162.667,143.167 164,142.5C 164.54,140.865 164.04,139.532 162.5,138.5C 165.416,135.863 165.083,133.697 161.5,132C 162.253,130.513 163.086,130.346 164,131.5C 164.791,130.255 165.291,128.922 165.5,127.5C 165.846,125.295 166.513,125.128 167.5,127C 166.211,132.044 166.211,137.044 167.5,142C 166.695,143.113 166.028,144.279 165.5,145.5 Z"/></g>
<g><path style="opacity:1" fill="#37734b" d="M 161.5,122.5 C 161.586,123.496 161.252,124.329 160.5,125C 157.726,125.624 155.726,127.124 154.5,129.5C 150.441,129.841 146.775,131.174 143.5,133.5C 140.667,137.833 137.833,142.167 135,146.5C 134.502,149.817 134.335,153.15 134.5,156.5C 136.898,156.741 138.898,156.074 140.5,154.5C 142.565,154.483 144.565,154.15 146.5,153.5C 146.5,154.167 146.833,154.5 147.5,154.5C 145.047,160.068 140.713,163.235 134.5,164C 131.5,164.667 128.5,164.667 125.5,164C 124.944,163.617 124.611,163.117 124.5,162.5C 128.458,162.749 132.124,162.082 135.5,160.5C 136.833,160.167 136.833,159.833 135.5,159.5C 133.369,156.772 132.036,153.605 131.5,150C 132.756,149.583 133.423,148.75 133.5,147.5C 134.502,140.648 137.835,135.148 143.5,131C 149.728,128.436 155.728,125.602 161.5,122.5 Z M 145.5,155.5 C 144.594,157.914 142.928,158.747 140.5,158C 141.91,156.628 143.577,155.795 145.5,155.5 Z"/></g>
<g><path style="opacity:1" fill="#3d744d" d="M 80.5,135.5 C 81.7281,136.306 82.7281,137.306 83.5,138.5C 85.3173,141.964 87.3173,145.298 89.5,148.5C 89.3433,149.873 89.51,151.207 90,152.5C 92.5057,154.179 94.0057,156.513 94.5,159.5C 92.629,159.141 91.129,158.141 90,156.5C 89.1628,154.156 87.8294,152.156 86,150.5C 83.3473,145.779 81.514,140.779 80.5,135.5 Z"/></g>
<g><path style="opacity:1" fill="#1d703b" d="M 122.5,151.5 C 122.5,151.167 122.5,150.833 122.5,150.5C 121.979,142.885 121.979,135.218 122.5,127.5C 123.833,127.5 125.167,127.5 126.5,127.5C 127.872,137.781 128.538,148.114 128.5,158.5C 127.07,158.579 125.736,158.246 124.5,157.5C 123.831,155.369 123.165,153.369 122.5,151.5 Z"/></g>
<g><path style="opacity:1" fill="#177739" d="M 165.5,145.5 C 165.067,148.166 164.567,150.832 164,153.5C 162.283,155.377 160.783,157.377 159.5,159.5C 158.662,159.842 158.328,160.508 158.5,161.5C 156.097,161.393 154.264,162.393 153,164.5C 152.329,163.748 151.496,163.414 150.5,163.5C 150.649,162.448 150.483,161.448 150,160.5C 148.855,161.684 147.688,161.684 146.5,160.5C 147.787,157.547 149.787,155.214 152.5,153.5C 153.333,151.5 154.167,149.5 155,147.5C 155.383,148.056 155.883,148.389 156.5,148.5C 156.047,149.458 155.381,150.292 154.5,151C 155.874,154.41 156.541,154.243 156.5,150.5C 158.484,150.617 160.15,149.95 161.5,148.5C 162.113,149.98 162.446,151.313 162.5,152.5C 163.132,149.898 164.132,147.564 165.5,145.5 Z"/></g>
<g><path style="opacity:1" fill="#197437" d="M 193.5,133.5 C 193.634,135.292 193.301,136.958 192.5,138.5C 189.127,144.268 186.127,150.268 183.5,156.5C 181.618,157.093 179.785,157.76 178,158.5C 179.177,153.944 181.343,149.777 184.5,146C 183.862,144.293 183.862,142.46 184.5,140.5C 185.728,139.694 186.728,138.694 187.5,137.5C 188.151,138.091 188.818,138.757 189.5,139.5C 190.318,137.892 190.985,136.225 191.5,134.5C 191.957,133.702 192.624,133.369 193.5,133.5 Z"/></g>
<g><path style="opacity:1" fill="#337546" d="M 192.5,138.5 C 191.946,143.224 190.612,147.557 188.5,151.5C 183.417,160.58 176.084,167.247 166.5,171.5C 166.414,170.504 166.748,169.671 167.5,169C 169.246,168.529 170.913,167.862 172.5,167C 172.167,166.667 171.833,166.333 171.5,166C 173.004,164.509 173.837,162.676 174,160.5C 175.156,161.993 175.99,161.826 176.5,160C 176.333,159.5 176.167,159 176,158.5C 174.644,159.38 173.144,159.714 171.5,159.5C 172.167,158.167 172.833,156.833 173.5,155.5C 177.528,150.799 181.195,145.799 184.5,140.5C 183.862,142.46 183.862,144.293 184.5,146C 181.343,149.777 179.177,153.944 178,158.5C 179.785,157.76 181.618,157.093 183.5,156.5C 186.127,150.268 189.127,144.268 192.5,138.5 Z"/></g>
<g><path style="opacity:1" fill="#20703d" d="M 156.5,148.5 C 155.883,148.389 155.383,148.056 155,147.5C 154.167,149.5 153.333,151.5 152.5,153.5C 149.787,155.214 147.787,157.547 146.5,160.5C 145.027,161.072 143.693,161.905 142.5,163C 143.167,163.333 143.833,163.667 144.5,164C 142.888,164.72 141.388,164.554 140,163.5C 136.59,165.972 132.756,167.472 128.5,168C 127.468,169.627 126.134,170.793 124.5,171.5C 123.5,171.5 122.5,171.5 121.5,171.5C 121.351,170.448 121.517,169.448 122,168.5C 125.15,170.161 126.65,169.161 126.5,165.5C 122.091,165.291 118.091,163.958 114.5,161.5C 110.643,161.31 108.976,159.31 109.5,155.5C 109.833,155.5 110.167,155.5 110.5,155.5C 110.5,156.167 110.833,156.5 111.5,156.5C 112.313,157.653 113.313,157.653 114.5,156.5C 115.731,157.651 115.731,158.817 114.5,160C 115.094,160.464 115.761,160.631 116.5,160.5C 117.772,161.434 119.272,162.101 121,162.5C 121.945,162.095 122.612,161.428 123,160.5C 123.278,161.416 123.778,162.082 124.5,162.5C 124.611,163.117 124.944,163.617 125.5,164C 128.5,164.667 131.5,164.667 134.5,164C 140.713,163.235 145.047,160.068 147.5,154.5C 146.833,154.5 146.5,154.167 146.5,153.5C 144.565,154.15 142.565,154.483 140.5,154.5C 140.414,153.504 140.748,152.671 141.5,152C 143.577,151.808 145.577,151.308 147.5,150.5C 149.828,147.34 152.661,144.673 156,142.5C 156.495,144.473 156.662,146.473 156.5,148.5 Z M 145.5,155.5 C 143.577,155.795 141.91,156.628 140.5,158C 142.928,158.747 144.594,157.914 145.5,155.5 Z"/></g>
<g><path style="opacity:1" fill="#167738" d="M 146.5,160.5 C 147.688,161.684 148.855,161.684 150,160.5C 150.483,161.448 150.649,162.448 150.5,163.5C 148.562,165.163 146.228,165.829 143.5,165.5C 143.52,167.143 142.853,168.476 141.5,169.5C 143.274,170.187 144.941,171.02 146.5,172C 141.424,173.998 135.757,174.831 129.5,174.5C 127.928,173.313 126.261,172.313 124.5,171.5C 126.134,170.793 127.468,169.627 128.5,168C 132.756,167.472 136.59,165.972 140,163.5C 141.388,164.554 142.888,164.72 144.5,164C 143.833,163.667 143.167,163.333 142.5,163C 143.693,161.905 145.027,161.072 146.5,160.5 Z"/></g>
<g><path style="opacity:1" fill="#167938" d="M 103.5,152.5 C 104.687,154.975 106.687,155.975 109.5,155.5C 108.976,159.31 110.643,161.31 114.5,161.5C 114.5,162.833 114.5,164.167 114.5,165.5C 122.025,165.588 122.192,167.255 115,170.5C 113.759,167.832 111.759,165.166 109,162.5C 108.581,163.672 107.915,164.672 107,165.5C 105.644,164.62 104.144,164.286 102.5,164.5C 101.763,162.695 100.763,161.029 99.5,159.5C 100.716,158.904 102.049,158.737 103.5,159C 102.964,156.597 102.964,154.43 103.5,152.5 Z"/></g>
<g><path style="opacity:1" fill="#19763a" d="M 114.5,161.5 C 118.091,163.958 122.091,165.291 126.5,165.5C 126.65,169.161 125.15,170.161 122,168.5C 121.517,169.448 121.351,170.448 121.5,171.5C 122.5,171.5 123.5,171.5 124.5,171.5C 126.261,172.313 127.928,173.313 129.5,174.5C 127.833,174.5 126.167,174.5 124.5,174.5C 120.952,173.241 117.285,172.407 113.5,172C 110.142,168.767 106.475,166.267 102.5,164.5C 104.144,164.286 105.644,164.62 107,165.5C 107.915,164.672 108.581,163.672 109,162.5C 111.759,165.166 113.759,167.832 115,170.5C 122.192,167.255 122.025,165.588 114.5,165.5C 114.5,164.167 114.5,162.833 114.5,161.5 Z"/></g>
<g><path style="opacity:1" fill="#1b743b" d="M 166.5,171.5 C 164.143,171.337 161.81,171.503 159.5,172C 158.167,172.667 158.167,173.333 159.5,174C 147.696,175.645 136.029,175.811 124.5,174.5C 126.167,174.5 127.833,174.5 129.5,174.5C 135.757,174.831 141.424,173.998 146.5,172C 144.941,171.02 143.274,170.187 141.5,169.5C 142.853,168.476 143.52,167.143 143.5,165.5C 146.228,165.829 148.562,165.163 150.5,163.5C 151.496,163.414 152.329,163.748 153,164.5C 154.264,162.393 156.097,161.393 158.5,161.5C 158.281,162.675 158.614,163.675 159.5,164.5C 160.107,164.376 160.44,164.043 160.5,163.5C 161.167,163.5 161.833,163.5 162.5,163.5C 165.643,162.31 168.643,160.977 171.5,159.5C 173.144,159.714 174.644,159.38 176,158.5C 176.167,159 176.333,159.5 176.5,160C 175.99,161.826 175.156,161.993 174,160.5C 173.837,162.676 173.004,164.509 171.5,166C 171.833,166.333 172.167,166.667 172.5,167C 170.913,167.862 169.246,168.529 167.5,169C 166.748,169.671 166.414,170.504 166.5,171.5 Z M 162.5,163.5 C 161.833,163.5 161.167,163.5 160.5,163.5C 161.548,161.067 162.214,161.067 162.5,163.5 Z"/></g>
<g><path style="opacity:1" fill="#3e7651" d="M 94.5,159.5 C 97.1667,161.167 99.8333,162.833 102.5,164.5C 106.475,166.267 110.142,168.767 113.5,172C 117.285,172.407 120.952,173.241 124.5,174.5C 136.029,175.811 147.696,175.645 159.5,174C 158.167,173.333 158.167,172.667 159.5,172C 161.81,171.503 164.143,171.337 166.5,171.5C 159.373,175.705 151.539,178.038 143,178.5C 135.21,178.88 127.377,178.047 119.5,176C 109.838,173.57 101.672,168.737 95,161.5C 94.5357,160.906 94.369,160.239 94.5,159.5 Z"/></g>
<g><path style="opacity:1" fill="#3f7850" d="M 76.5,203.5 C 76.5,202.167 76.5,200.833 76.5,199.5C 77.8068,198.847 79.1401,198.18 80.5,197.5C 81.8624,195.189 83.1957,192.856 84.5,190.5C 87.3541,187.794 88.5208,184.461 88,180.5C 87.6924,179.692 87.1924,179.025 86.5,178.5C 84.5683,179.366 82.5683,180.033 80.5,180.5C 79.2867,180.253 78.62,179.586 78.5,178.5C 82.4726,176.018 86.8059,174.352 91.5,173.5C 91.393,182.699 88.7264,191.033 83.5,198.5C 81.4268,200.58 79.0934,202.246 76.5,203.5 Z"/></g>
<g><path style="opacity:1" fill="#277342" d="M 76.5,179.5 C 73.6699,180.51 71.1699,182.177 69,184.5C 64.363,183.225 60.6963,184.558 58,188.5C 56.8173,187.269 55.6507,187.269 54.5,188.5C 52.7299,189.82 52.3966,191.32 53.5,193C 55.7567,192.563 58.09,192.063 60.5,191.5C 59.2642,193.043 57.5976,194.043 55.5,194.5C 54.7492,195.376 54.2492,196.376 54,197.5C 52.8989,195.606 51.5655,194.939 50,195.5C 49.4867,194.473 48.9867,193.473 48.5,192.5C 49.4959,192.586 50.3292,192.252 51,191.5C 51.4935,189.866 51.6602,188.199 51.5,186.5C 53.4006,184.204 55.7339,182.371 58.5,181C 62.9251,180.583 67.2584,179.749 71.5,178.5C 73.0709,179.309 74.7376,179.643 76.5,179.5 Z"/></g>
<g><path style="opacity:1" fill="#187739" d="M 78.5,178.5 C 78.62,179.586 79.2867,180.253 80.5,180.5C 82.5683,180.033 84.5683,179.366 86.5,178.5C 87.1924,179.025 87.6924,179.692 88,180.5C 88.5208,184.461 87.3541,187.794 84.5,190.5C 81.4507,189.694 78.4507,188.694 75.5,187.5C 71.7144,187.32 68.381,188.32 65.5,190.5C 63.7839,190.629 62.1172,190.962 60.5,191.5C 58.09,192.063 55.7567,192.563 53.5,193C 52.3966,191.32 52.7299,189.82 54.5,188.5C 55.6507,187.269 56.8173,187.269 58,188.5C 60.6963,184.558 64.363,183.225 69,184.5C 71.1699,182.177 73.6699,180.51 76.5,179.5C 76.8417,178.662 77.5084,178.328 78.5,178.5 Z"/></g>
<g><path style="opacity:1" fill="#1d743d" d="M 6.5,185.5 C 7.60895,185.557 8.60895,185.89 9.5,186.5C 9.91753,187.222 10.5842,187.722 11.5,188C 19.4931,188.5 27.4931,188.666 35.5,188.5C 35.7564,190.792 35.4231,192.959 34.5,195C 27.7545,194.869 21.4212,195.702 15.5,197.5C 14.5386,199.265 14.2053,201.265 14.5,203.5C 13.6993,205.042 13.366,206.708 13.5,208.5C 12.5028,208.53 11.8361,208.03 11.5,207C 10.4267,205.584 10.4267,204.25 11.5,203C 9.96798,202.3 8.96798,201.134 8.5,199.5C 10.5264,198.708 11.5264,196.708 11.5,193.5C 19.4236,194.494 26.9236,194.494 34,193.5C 34.8542,191.393 34.1875,190.059 32,189.5C 30.2793,190.895 28.2793,191.561 26,191.5C 21.9519,189.813 18.1185,189.146 14.5,189.5C 13.8333,189.667 13.1667,189.833 12.5,190C 13.9561,190.423 14.4561,191.256 14,192.5C 12.2215,191.521 10.5548,191.854 9,193.5C 8.78107,192.062 8.28107,190.729 7.5,189.5C 5.80715,192.126 4.97381,194.793 5,197.5C 4.19549,200.696 4.36216,203.696 5.5,206.5C 4.9115,209.61 4.24484,212.61 3.5,215.5C 3.33368,208.159 3.50034,200.826 4,193.5C 3.89479,190.714 4.72812,188.047 6.5,185.5 Z"/></g>
<g><path style="opacity:1" fill="#17793a" d="M 13.5,208.5 C 18.4703,208.957 23.3036,209.957 28,211.5C 30.934,208.58 32.434,209.247 32.5,213.5C 26.0182,214.045 19.6849,214.712 13.5,215.5C 13.5,215.833 13.5,216.167 13.5,216.5C 12.1751,217.953 11.3418,217.619 11,215.5C 10.7638,217.764 10.2638,219.931 9.5,222C 11.9213,225.713 12.9213,229.88 12.5,234.5C 10.3812,234.532 9.04782,233.532 8.5,231.5C 8.38321,229.516 9.04988,227.85 10.5,226.5C 9.51093,225.532 8.84426,224.365 8.5,223C 9.12065,217.188 9.45398,211.688 9.5,206.5C 8.16667,206.5 6.83333,206.5 5.5,206.5C 4.36216,203.696 4.19549,200.696 5,197.5C 4.97381,194.793 5.80715,192.126 7.5,189.5C 8.28107,190.729 8.78107,192.062 9,193.5C 10.5548,191.854 12.2215,191.521 14,192.5C 14.4561,191.256 13.9561,190.423 12.5,190C 13.1667,189.833 13.8333,189.667 14.5,189.5C 18.1185,189.146 21.9519,189.813 26,191.5C 28.2793,191.561 30.2793,190.895 32,189.5C 34.1875,190.059 34.8542,191.393 34,193.5C 26.9236,194.494 19.4236,194.494 11.5,193.5C 11.5264,196.708 10.5264,198.708 8.5,199.5C 8.96798,201.134 9.96798,202.3 11.5,203C 10.4267,204.25 10.4267,205.584 11.5,207C 11.8361,208.03 12.5028,208.53 13.5,208.5 Z"/></g>
<g><path style="opacity:1" fill="#427753" d="M 9.5,186.5 C 18.7506,186.182 27.9172,186.515 37,187.5C 37.7835,190.76 37.6168,193.927 36.5,197C 33.2423,197.212 30.0757,197.712 27,198.5C 23.0736,198.259 19.2403,197.926 15.5,197.5C 21.4212,195.702 27.7545,194.869 34.5,195C 35.4231,192.959 35.7564,190.792 35.5,188.5C 27.4931,188.666 19.4931,188.5 11.5,188C 10.5842,187.722 9.91753,187.222 9.5,186.5 Z"/></g>
<g><path style="opacity:1" fill="#1c7439" d="M 256.5,187.5 C 256.5,187.833 256.5,188.167 256.5,188.5C 255.867,193.829 252.867,195.662 247.5,194C 246.167,191.667 246.167,189.333 247.5,187C 250.555,186.366 253.555,186.532 256.5,187.5 Z"/></g>
<g><path style="opacity:1" fill="#18793a" d="M 75.5,187.5 C 78.4507,188.694 81.4507,189.694 84.5,190.5C 83.1957,192.856 81.8624,195.189 80.5,197.5C 79.1401,198.18 77.8068,198.847 76.5,199.5C 74.4727,199.338 72.4727,199.505 70.5,200C 70.8333,200.333 71.1667,200.667 71.5,201C 69.0614,202.956 67.3947,202.623 66.5,200C 67.0707,198.401 68.0707,197.234 69.5,196.5C 70.7899,195.942 71.6232,194.942 72,193.5C 72.414,193.957 72.914,194.291 73.5,194.5C 75.0205,192.379 77.0205,190.879 79.5,190C 77.3313,189.571 75.3313,190.071 73.5,191.5C 73.1667,191.167 72.8333,190.833 72.5,190.5C 73.7701,189.712 74.7701,188.712 75.5,187.5 Z"/></g>
<g><path style="opacity:1" fill="#417753" d="M 256.5,187.5 C 253.555,186.532 250.555,186.366 247.5,187C 246.167,189.333 246.167,191.667 247.5,194C 252.867,195.662 255.867,193.829 256.5,188.5C 257.259,196.165 253.592,198.665 245.5,196C 241.325,191.694 241.658,187.694 246.5,184C 250.687,182.978 254.02,184.144 256.5,187.5 Z"/></g>
<g><path style="opacity:1" fill="#326f48" d="M 6.5,185.5 C 4.72812,188.047 3.89479,190.714 4,193.5C 3.50034,200.826 3.33368,208.159 3.5,215.5C 3.5,218.833 3.5,222.167 3.5,225.5C 3.26006,228.579 3.59339,231.579 4.5,234.5C 12.9637,235.645 21.2971,236.645 29.5,237.5C 20.9062,238.28 12.2395,238.28 3.5,237.5C 2.84804,222.069 2.18137,206.735 1.5,191.5C 1.5,189.833 1.5,188.167 1.5,186.5C 3.29152,186.634 4.95819,186.301 6.5,185.5 Z"/></g>
<g><path style="opacity:1" fill="#21693b" d="M 61.5,193.5 C 60.2264,194.189 60.2264,195.023 61.5,196C 58.4115,197.757 55.4115,198.923 52.5,199.5C 50.9212,202.266 48.9212,204.6 46.5,206.5C 46.3379,204.473 46.5045,202.473 47,200.5C 47.5354,202.271 48.3687,202.604 49.5,201.5C 48.4599,199.477 47.4599,197.477 46.5,195.5C 46.4534,193.962 47.1201,192.962 48.5,192.5C 48.9867,193.473 49.4867,194.473 50,195.5C 51.5655,194.939 52.8989,195.606 54,197.5C 54.2492,196.376 54.7492,195.376 55.5,194.5C 57.5976,194.043 59.2642,193.043 60.5,191.5C 62.1172,190.962 63.7839,190.629 65.5,190.5C 66.8221,190.67 67.9887,190.337 69,189.5C 69.3742,190.416 69.8742,191.25 70.5,192C 68.9398,194.659 66.6065,195.826 63.5,195.5C 63.719,194.325 63.3857,193.325 62.5,192.5C 61.8933,192.624 61.56,192.957 61.5,193.5 Z"/></g>
<g><path style="opacity:1" fill="#177739" d="M 69.5,196.5 C 68.0707,197.234 67.0707,198.401 66.5,200C 67.3947,202.623 69.0614,202.956 71.5,201C 71.1667,200.667 70.8333,200.333 70.5,200C 72.4727,199.505 74.4727,199.338 76.5,199.5C 76.5,200.833 76.5,202.167 76.5,203.5C 76.1667,203.5 75.8333,203.5 75.5,203.5C 73.4041,202.396 72.4041,203.23 72.5,206C 73.3784,207.8 74.045,209.633 74.5,211.5C 72.1229,211.216 69.9562,211.216 68,211.5C 67.2935,209.919 66.4601,208.419 65.5,207C 62.1119,206.341 58.7786,206.508 55.5,207.5C 56.3351,206.057 57.6684,205.057 59.5,204.5C 59.3333,204.167 59.1667,203.833 59,203.5C 56.6105,204.724 54.1105,205.224 51.5,205C 53.5525,201.471 56.5525,199.138 60.5,198C 63.4781,197.304 66.4781,196.804 69.5,196.5 Z"/></g>
<g><path style="opacity:1" fill="#447556" d="M 117.5,226.5 C 117.666,221.821 117.499,217.155 117,212.5C 116.722,211.584 116.222,210.918 115.5,210.5C 114.639,208.614 113.639,206.78 112.5,205C 109.758,203.93 107.258,202.43 105,200.5C 100.239,200.118 95.4058,200.785 90.5,202.5C 89.5836,202.457 88.9169,202.124 88.5,201.5C 100.256,195.435 110.09,197.768 118,208.5C 118.5,212 119,215.5 119.5,219C 119.354,221.76 118.687,224.26 117.5,226.5 Z"/></g>
<g><path style="opacity:1" fill="#18773b" d="M 115.5,210.5 C 115.5,210.833 115.5,211.167 115.5,211.5C 113.871,210.375 112.371,209.041 111,207.5C 110.878,209.437 110.045,210.77 108.5,211.5C 108.586,210.504 108.252,209.671 107.5,209C 104.79,207.985 102.457,206.485 100.5,204.5C 96.7735,206.694 93.4402,209.361 90.5,212.5C 90.6046,207.846 89.2713,207.346 86.5,211C 87.9561,211.423 88.4561,212.256 88,213.5C 87.6667,213.167 87.3333,212.833 87,212.5C 86.1482,213.571 85.3149,214.571 84.5,215.5C 85.0746,211.477 85.7412,207.477 86.5,203.5C 86.8333,202.5 87.5,201.833 88.5,201.5C 88.9169,202.124 89.5836,202.457 90.5,202.5C 95.4058,200.785 100.239,200.118 105,200.5C 107.258,202.43 109.758,203.93 112.5,205C 113.639,206.78 114.639,208.614 115.5,210.5 Z"/></g>
<g><path style="opacity:1" fill="#2c7645" d="M 157.5,209.5 C 157.789,213.106 157.456,216.606 156.5,220C 148.989,220.171 141.655,220.671 134.5,221.5C 134.167,221.5 133.833,221.5 133.5,221.5C 134.606,218.265 134.272,215.098 132.5,212C 134.458,208.375 137.125,205.375 140.5,203C 138.538,203.141 136.704,202.974 135,202.5C 133.775,202.862 132.609,203.362 131.5,204C 129.362,206.475 127.196,208.975 125,211.5C 124.501,215.486 124.334,219.486 124.5,223.5C 124.993,225.806 125.326,228.139 125.5,230.5C 118.408,220.38 119.408,210.88 128.5,202C 137.242,196.552 145.909,196.886 154.5,203C 155.412,205.251 156.412,207.417 157.5,209.5 Z M 137.5,209.5 C 140.983,208.916 143.983,209.749 146.5,212C 142.679,212.06 139.013,212.06 135.5,212C 136.381,211.292 137.047,210.458 137.5,209.5 Z"/></g>
<g><path style="opacity:1" fill="#197439" d="M 215.5,204.5 C 215.5,204.833 215.5,205.167 215.5,205.5C 214.848,206.449 214.514,207.615 214.5,209C 215.866,213.393 216.532,217.893 216.5,222.5C 214.255,221.172 213.922,219.339 215.5,217C 213.578,215.54 212.911,213.873 213.5,212C 212.851,209.519 211.851,209.186 210.5,211C 211.415,213.53 211.415,215.696 210.5,217.5C 208.653,211.779 206.653,206.112 204.5,200.5C 207.167,200.5 209.833,200.5 212.5,200.5C 212.468,202.619 213.468,203.952 215.5,204.5 Z"/></g>
<g><path style="opacity:1" fill="#1a733a" d="M 75.5,187.5 C 74.7701,188.712 73.7701,189.712 72.5,190.5C 72.8333,190.833 73.1667,191.167 73.5,191.5C 75.3313,190.071 77.3313,189.571 79.5,190C 77.0205,190.879 75.0205,192.379 73.5,194.5C 72.914,194.291 72.414,193.957 72,193.5C 71.6232,194.942 70.7899,195.942 69.5,196.5C 66.4781,196.804 63.4781,197.304 60.5,198C 56.5525,199.138 53.5525,201.471 51.5,205C 54.1105,205.224 56.6105,204.724 59,203.5C 59.1667,203.833 59.3333,204.167 59.5,204.5C 57.6684,205.057 56.3351,206.057 55.5,207.5C 54.2502,207.577 53.4169,208.244 53,209.5C 52.5017,212.817 52.335,216.15 52.5,219.5C 52.0954,220.55 51.4288,220.55 50.5,219.5C 49.276,217.172 49.276,214.839 50.5,212.5C 49.9017,211.205 49.4017,209.872 49,208.5C 48.1841,209.823 47.0174,210.489 45.5,210.5C 45.8333,209.167 46.1667,207.833 46.5,206.5C 48.9212,204.6 50.9212,202.266 52.5,199.5C 55.4115,198.923 58.4115,197.757 61.5,196C 60.2264,195.023 60.2264,194.189 61.5,193.5C 61.56,192.957 61.8933,192.624 62.5,192.5C 63.3857,193.325 63.719,194.325 63.5,195.5C 66.6065,195.826 68.9398,194.659 70.5,192C 69.8742,191.25 69.3742,190.416 69,189.5C 67.9887,190.337 66.8221,190.67 65.5,190.5C 68.381,188.32 71.7144,187.32 75.5,187.5 Z"/></g>
<g><path style="opacity:1" fill="#177839" d="M 191.5,202.5 C 191.047,203.458 190.381,204.292 189.5,205C 191.107,204.981 192.774,204.815 194.5,204.5C 194.571,207.024 193.571,209.024 191.5,210.5C 194.18,213.147 193.513,214.48 189.5,214.5C 189.611,213.883 189.944,213.383 190.5,213C 189.335,211.008 188.002,209.175 186.5,207.5C 184.782,206.776 182.948,206.109 181,205.5C 178.851,206.84 177.684,206.173 177.5,203.5C 178.848,202.399 180.348,201.399 182,200.5C 185.161,201.207 188.328,201.874 191.5,202.5 Z"/></g>
<g><path style="opacity:1" fill="#177638" d="M 5.5,206.5 C 6.83333,206.5 8.16667,206.5 9.5,206.5C 9.45398,211.688 9.12065,217.188 8.5,223C 8.84426,224.365 9.51093,225.532 10.5,226.5C 9.04988,227.85 8.38321,229.516 8.5,231.5C 7.17793,231.67 6.01127,231.337 5,230.5C 4.80192,228.618 4.30192,226.952 3.5,225.5C 3.5,222.167 3.5,218.833 3.5,215.5C 4.24484,212.61 4.9115,209.61 5.5,206.5 Z"/></g>
<g><path style="opacity:1" fill="#3e7950" d="M 75.5,203.5 C 77.0867,206.919 77.7533,210.585 77.5,214.5C 74.1825,215.221 70.8492,215.388 67.5,215C 65.6418,212.145 63.1418,209.978 60,208.5C 55.3088,210.533 53.1421,214.199 53.5,219.5C 53.1667,219.5 52.8333,219.5 52.5,219.5C 52.335,216.15 52.5017,212.817 53,209.5C 53.4169,208.244 54.2502,207.577 55.5,207.5C 58.7786,206.508 62.1119,206.341 65.5,207C 66.4601,208.419 67.2935,209.919 68,211.5C 69.9562,211.216 72.1229,211.216 74.5,211.5C 74.045,209.633 73.3784,207.8 72.5,206C 72.4041,203.23 73.4041,202.396 75.5,203.5 Z"/></g>
<g><path style="opacity:1" fill="#247640" d="M 237.5,209.5 C 237.097,212.486 236.097,215.152 234.5,217.5C 234.587,214.402 234.087,214.068 233,216.5C 232.289,214.633 232.789,213.133 234.5,212C 232.608,209.365 230.274,208.532 227.5,209.5C 228.008,206.611 228.675,203.778 229.5,201C 232.482,200.502 235.482,200.335 238.5,200.5C 238.296,203.518 237.963,206.518 237.5,209.5 Z"/></g>
<g><path style="opacity:1" fill="#1a7439" d="M 196.5,203.5 C 197.681,214.132 198.348,224.798 198.5,235.5C 195.813,235.664 193.146,235.497 190.5,235C 189.556,232.281 189.223,229.448 189.5,226.5C 190.001,222.412 190.001,218.412 189.5,214.5C 193.513,214.48 194.18,213.147 191.5,210.5C 193.571,209.024 194.571,207.024 194.5,204.5C 192.774,204.815 191.107,204.981 189.5,205C 190.381,204.292 191.047,203.458 191.5,202.5C 192.117,202.389 192.617,202.056 193,201.5C 193.71,202.973 194.876,203.64 196.5,203.5 Z"/></g>
<g><path style="opacity:1" fill="#2d7244" d="M 14.5,203.5 C 15.4778,203.811 16.1445,204.478 16.5,205.5C 18.3333,205.833 20.1667,206.167 22,206.5C 24.3023,206.4 26.3023,205.733 28,204.5C 29.7337,205.249 31.567,205.749 33.5,206C 35.291,208.106 35.9577,210.606 35.5,213.5C 33.5107,214.481 31.5107,215.481 29.5,216.5C 24.2092,215.598 18.8758,215.265 13.5,215.5C 19.6849,214.712 26.0182,214.045 32.5,213.5C 32.434,209.247 30.934,208.58 28,211.5C 23.3036,209.957 18.4703,208.957 13.5,208.5C 13.366,206.708 13.6993,205.042 14.5,203.5 Z"/></g>
<g><path style="opacity:1" fill="#19753a" d="M 177.5,203.5 C 177.684,206.173 178.851,206.84 181,205.5C 182.948,206.109 184.782,206.776 186.5,207.5C 183.482,207.335 180.482,207.502 177.5,208C 176.953,208.925 176.287,209.758 175.5,210.5C 174.833,216.319 174.167,221.986 173.5,227.5C 172.717,224.491 172.05,221.324 171.5,218C 171.31,215.688 171.977,213.355 173.5,211C 172.929,209.795 172.262,208.628 171.5,207.5C 169.051,210.911 167.051,214.911 165.5,219.5C 165.8,214.901 165.467,210.401 164.5,206C 165.795,203.536 167.795,202.036 170.5,201.5C 172.519,202.14 174.353,202.14 176,201.5C 176.278,202.416 176.778,203.082 177.5,203.5 Z"/></g>
<g><path style="opacity:1" fill="#167737" d="M 133.5,221.5 C 133.5,221.833 133.5,222.167 133.5,222.5C 133.5,222.833 133.5,223.167 133.5,223.5C 132.71,224.609 132.21,225.942 132,227.5C 130.68,227.201 129.18,227.034 127.5,227C 126.837,225.482 125.837,224.315 124.5,223.5C 124.334,219.486 124.501,215.486 125,211.5C 127.196,208.975 129.362,206.475 131.5,204C 132.609,203.362 133.775,202.862 135,202.5C 136.704,202.974 138.538,203.141 140.5,203C 137.125,205.375 134.458,208.375 132.5,212C 134.272,215.098 134.606,218.265 133.5,221.5 Z"/></g>
<g><path style="opacity:1" fill="#37764c" d="M 86.5,203.5 C 85.7412,207.477 85.0746,211.477 84.5,215.5C 83.8466,216.807 83.1799,218.14 82.5,219.5C 84.5515,222.569 85.8848,225.903 86.5,229.5C 87.5,229.5 88.5,229.5 89.5,229.5C 89.1412,231.766 89.8078,233.599 91.5,235C 94.6262,235.759 97.7928,236.259 101,236.5C 103.821,236.592 106.321,235.926 108.5,234.5C 110.264,231.177 112.597,228.177 115.5,225.5C 116.72,220.817 116.72,216.15 115.5,211.5C 115.5,211.167 115.5,210.833 115.5,210.5C 116.222,210.918 116.722,211.584 117,212.5C 117.499,217.155 117.666,221.821 117.5,226.5C 114.432,235.038 108.266,239.038 99,238.5C 86.5046,238.003 80.3379,231.503 80.5,219C 80.3421,213.8 81.5088,208.966 84,204.5C 84.6708,203.748 85.5041,203.414 86.5,203.5 Z"/></g>
<g><path style="opacity:1" fill="#177639" d="M 90.5,212.5 C 87.9222,225.348 92.9222,230.848 105.5,229C 108.229,224.985 109.229,220.485 108.5,215.5C 110.821,222.415 109.321,228.415 104,233.5C 103.107,232.289 102.274,232.289 101.5,233.5C 103.882,233.962 106.215,234.295 108.5,234.5C 106.321,235.926 103.821,236.592 101,236.5C 97.7928,236.259 94.6262,235.759 91.5,235C 89.8078,233.599 89.1412,231.766 89.5,229.5C 88.5,229.5 87.5,229.5 86.5,229.5C 85.8848,225.903 84.5515,222.569 82.5,219.5C 83.1799,218.14 83.8466,216.807 84.5,215.5C 85.3149,214.571 86.1482,213.571 87,212.5C 87.3333,212.833 87.6667,213.167 88,213.5C 88.4561,212.256 87.9561,211.423 86.5,211C 89.2713,207.346 90.6046,207.846 90.5,212.5 Z"/></g>
<g><path style="opacity:1" fill="#3a754d" d="M 215.5,204.5 C 213.468,203.952 212.468,202.619 212.5,200.5C 209.833,200.5 207.167,200.5 204.5,200.5C 206.653,206.112 208.653,211.779 210.5,217.5C 212.271,221.979 213.605,226.646 214.5,231.5C 214.043,232.298 213.376,232.631 212.5,232.5C 208.995,222.153 204.995,211.986 200.5,202C 200.759,200.739 201.426,199.739 202.5,199C 206.167,198.333 209.833,198.333 213.5,199C 214.464,200.725 215.131,202.559 215.5,204.5 Z"/></g>
<g><path style="opacity:1" fill="#1d773a" d="M 234.5,217.5 C 234.448,220.346 233.448,222.68 231.5,224.5C 229.753,226.428 228.087,228.594 226.5,231C 227.833,232.333 227.833,233.667 226.5,235C 221.909,235.942 217.576,235.442 213.5,233.5C 212.833,233.5 212.5,233.167 212.5,232.5C 213.376,232.631 214.043,232.298 214.5,231.5C 213.605,226.646 212.271,221.979 210.5,217.5C 211.415,215.696 211.415,213.53 210.5,211C 211.851,209.186 212.851,209.519 213.5,212C 212.911,213.873 213.578,215.54 215.5,217C 213.922,219.339 214.255,221.172 216.5,222.5C 217.738,222.81 217.738,223.31 216.5,224C 218.282,224.814 219.782,225.981 221,227.5C 221.414,227.043 221.914,226.709 222.5,226.5C 223.214,223.973 223.88,221.473 224.5,219C 224.167,218.667 223.833,218.333 223.5,218C 225.759,215.646 227.093,212.813 227.5,209.5C 230.274,208.532 232.608,209.365 234.5,212C 232.789,213.133 232.289,214.633 233,216.5C 234.087,214.068 234.587,214.402 234.5,217.5 Z"/></g>
<g><path style="opacity:1" fill="#72957d" d="M 1.5,191.5 C 2.18137,206.735 2.84804,222.069 3.5,237.5C 1.82902,234.392 0.829019,230.892 0.5,227C 1.37959,215.035 1.71293,203.201 1.5,191.5 Z"/></g>
<g><path style="opacity:1" fill="#167839" d="M 52.5,219.5 C 52.8333,219.5 53.1667,219.5 53.5,219.5C 54.1667,219.5 54.5,219.833 54.5,220.5C 50.0116,224.21 50.5116,227.21 56,229.5C 56.3333,230.5 56.6667,231.5 57,232.5C 58.2682,232.384 59.6015,232.051 61,231.5C 61.6123,233.237 60.9457,234.237 59,234.5C 55.1117,234.325 51.945,232.825 49.5,230C 49.8333,229.667 50.1667,229.333 50.5,229C 47.9552,227.725 45.9552,225.892 44.5,223.5C 43.0626,218.935 43.3959,214.601 45.5,210.5C 47.0174,210.489 48.1841,209.823 49,208.5C 49.4017,209.872 49.9017,211.205 50.5,212.5C 49.276,214.839 49.276,217.172 50.5,219.5C 51.4288,220.55 52.0954,220.55 52.5,219.5 Z"/></g>
<g><path style="opacity:1" fill="#36774c" d="M 108.5,211.5 C 108.5,212.833 108.5,214.167 108.5,215.5C 109.229,220.485 108.229,224.985 105.5,229C 92.9222,230.848 87.9222,225.348 90.5,212.5C 93.4402,209.361 96.7735,206.694 100.5,204.5C 102.457,206.485 104.79,207.985 107.5,209C 108.252,209.671 108.586,210.504 108.5,211.5 Z M 103.5,226.5 C 101.283,227.369 98.9496,227.702 96.5,227.5C 92.7085,222.05 92.5418,216.384 96,210.5C 104.117,208.632 107.45,211.965 106,220.5C 105.427,222.641 104.594,224.641 103.5,226.5 Z"/></g>
<g><path style="opacity:1" fill="#4f7d5d" d="M 35.5,213.5 C 35.67,214.822 35.3366,215.989 34.5,217C 32.444,217.311 30.444,217.811 28.5,218.5C 24.5575,217.4 20.5575,217.233 16.5,218C 15.7089,220.75 15.7089,223.583 16.5,226.5C 22.8421,226.334 29.1754,226.5 35.5,227C 37.6912,230.23 38.0245,233.73 36.5,237.5C 35.4728,238.791 34.4728,238.791 33.5,237.5C 34.2117,234.007 35.0451,231.34 36,229.5C 34.077,228.684 32.077,228.017 30,227.5C 25.2081,228.586 20.3748,228.753 15.5,228C 12.4944,225.073 12.1611,222.073 14.5,219C 13.7476,218.329 13.4142,217.496 13.5,216.5C 13.5,216.167 13.5,215.833 13.5,215.5C 18.8758,215.265 24.2092,215.598 29.5,216.5C 31.5107,215.481 33.5107,214.481 35.5,213.5 Z"/></g>
<g><path style="opacity:1" fill="#38784d" d="M 237.5,209.5 C 237.963,206.518 238.296,203.518 238.5,200.5C 235.482,200.335 232.482,200.502 229.5,201C 228.675,203.778 228.008,206.611 227.5,209.5C 227.093,212.813 225.759,215.646 223.5,218C 223.833,218.333 224.167,218.667 224.5,219C 223.88,221.473 223.214,223.973 222.5,226.5C 221.914,226.709 221.414,227.043 221,227.5C 219.782,225.981 218.282,224.814 216.5,224C 217.738,223.31 217.738,222.81 216.5,222.5C 216.532,217.893 215.866,213.393 214.5,209C 214.514,207.615 214.848,206.449 215.5,205.5C 217.638,210.417 219.471,215.417 221,220.5C 222.434,213.081 224.934,206.081 228.5,199.5C 229.328,198.585 230.328,197.919 231.5,197.5C 235.094,198.426 238.76,198.759 242.5,198.5C 241.092,202.313 239.426,205.98 237.5,209.5 Z"/></g>
<g><path style="opacity:1" fill="#4e8261" d="M 157.5,209.5 C 160.002,213.179 160.668,217.179 159.5,221.5C 156.603,221.125 153.937,221.625 151.5,223C 153.285,224.163 155.285,224.83 157.5,225C 158.574,225.739 159.241,226.739 159.5,228C 158.015,230.156 156.515,232.323 155,234.5C 154.329,235.252 153.496,235.586 152.5,235.5C 152.351,234.448 152.517,233.448 153,232.5C 157.825,228.731 156.992,226.397 150.5,225.5C 145.424,229.613 140.091,230.113 134.5,227C 133.663,225.989 133.33,224.822 133.5,223.5C 133.5,223.167 133.5,222.833 133.5,222.5C 134.249,223.531 134.915,224.698 135.5,226C 138.768,227.213 142.101,227.546 145.5,227C 146.687,225.981 147.687,224.814 148.5,223.5C 143.88,222.468 139.214,221.802 134.5,221.5C 141.655,220.671 148.989,220.171 156.5,220C 157.456,216.606 157.789,213.106 157.5,209.5 Z"/></g>
<g><path style="opacity:1" fill="#aeddb7" d="M 103.5,226.5 C 102.848,227.725 101.681,228.392 100,228.5C 98.6153,228.486 97.4486,228.152 96.5,227.5C 98.9496,227.702 101.283,227.369 103.5,226.5 Z"/></g>
<g><path style="opacity:1" fill="#177838" d="M 115.5,211.5 C 116.72,216.15 116.72,220.817 115.5,225.5C 112.597,228.177 110.264,231.177 108.5,234.5C 106.215,234.295 103.882,233.962 101.5,233.5C 102.274,232.289 103.107,232.289 104,233.5C 109.321,228.415 110.821,222.415 108.5,215.5C 108.5,214.167 108.5,212.833 108.5,211.5C 110.045,210.77 110.878,209.437 111,207.5C 112.371,209.041 113.871,210.375 115.5,211.5 Z"/></g>
<g><path style="opacity:1" fill="#4a7e59" d="M 196.5,203.5 C 197.79,204.058 198.623,205.058 199,206.5C 199.667,216.833 199.667,227.167 199,237.5C 195.25,238.336 191.417,238.336 187.5,237.5C 186.813,228.677 186.479,220.01 186.5,211.5C 188.141,216.251 189.141,221.251 189.5,226.5C 189.223,229.448 189.556,232.281 190.5,235C 193.146,235.497 195.813,235.664 198.5,235.5C 198.348,224.798 197.681,214.132 196.5,203.5 Z"/></g>
<g><path style="opacity:1" fill="#32774a" d="M 196.5,203.5 C 194.876,203.64 193.71,202.973 193,201.5C 192.617,202.056 192.117,202.389 191.5,202.5C 188.328,201.874 185.161,201.207 182,200.5C 180.348,201.399 178.848,202.399 177.5,203.5C 176.778,203.082 176.278,202.416 176,201.5C 174.353,202.14 172.519,202.14 170.5,201.5C 167.795,202.036 165.795,203.536 164.5,206C 165.467,210.401 165.8,214.901 165.5,219.5C 165.638,224.546 165.638,229.546 165.5,234.5C 164.695,228.998 164.029,223.331 163.5,217.5C 164.241,214.609 164.574,211.776 164.5,209C 163.934,208.005 163.267,207.172 162.5,206.5C 161.639,200.512 164.139,197.845 170,198.5C 172.671,198.274 175.004,198.941 177,200.5C 181.283,197.591 185.783,197.091 190.5,199C 193.106,199.792 195.106,201.292 196.5,203.5 Z"/></g>
<g><path style="opacity:1" fill="#1b743b" d="M 13.5,216.5 C 13.4142,217.496 13.7476,218.329 14.5,219C 12.1611,222.073 12.4944,225.073 15.5,228C 20.3748,228.753 25.2081,228.586 30,227.5C 32.077,228.017 34.077,228.684 36,229.5C 35.0451,231.34 34.2117,234.007 33.5,237.5C 32.1667,237.5 30.8333,237.5 29.5,237.5C 21.2971,236.645 12.9637,235.645 4.5,234.5C 3.59339,231.579 3.26006,228.579 3.5,225.5C 4.30192,226.952 4.80192,228.618 5,230.5C 6.01127,231.337 7.17793,231.67 8.5,231.5C 9.04782,233.532 10.3812,234.532 12.5,234.5C 12.9213,229.88 11.9213,225.713 9.5,222C 10.2638,219.931 10.7638,217.764 11,215.5C 11.3418,217.619 12.1751,217.953 13.5,216.5 Z"/></g>
<g><path style="opacity:1" fill="#2b7844" d="M 54.5,220.5 C 55.1763,227.503 58.5097,229.169 64.5,225.5C 64.968,223.866 65.968,222.7 67.5,222C 70.5,222.667 73.5,222.667 76.5,222C 78.0356,223.599 78.5356,225.433 78,227.5C 76.5129,230.859 74.3462,233.525 71.5,235.5C 65.8546,236.387 60.188,236.554 54.5,236C 50.7195,234.382 47.7195,231.882 45.5,228.5C 44.6906,226.929 44.3573,225.262 44.5,223.5C 45.9552,225.892 47.9552,227.725 50.5,229C 50.1667,229.333 49.8333,229.667 49.5,230C 51.945,232.825 55.1117,234.325 59,234.5C 60.9457,234.237 61.6123,233.237 61,231.5C 59.6015,232.051 58.2682,232.384 57,232.5C 56.6667,231.5 56.3333,230.5 56,229.5C 50.5116,227.21 50.0116,224.21 54.5,220.5 Z"/></g>
<g><path style="opacity:1" fill="#a5c7aa" d="M 176.5,213.5 C 176.5,221.5 176.5,229.5 176.5,237.5C 174.833,237.5 173.167,237.5 171.5,237.5C 172.568,236.566 173.901,236.232 175.5,236.5C 175.175,228.648 175.508,220.982 176.5,213.5 Z"/></g>
<g><path style="opacity:1" fill="#3e7350" d="M 51.5,186.5 C 51.6602,188.199 51.4935,189.866 51,191.5C 50.3292,192.252 49.4959,192.586 48.5,192.5C 47.1201,192.962 46.4534,193.962 46.5,195.5C 47.4599,197.477 48.4599,199.477 49.5,201.5C 48.3687,202.604 47.5354,202.271 47,200.5C 46.5045,202.473 46.3379,204.473 46.5,206.5C 46.1667,207.833 45.8333,209.167 45.5,210.5C 43.3959,214.601 43.0626,218.935 44.5,223.5C 44.3573,225.262 44.6906,226.929 45.5,228.5C 47.7195,231.882 50.7195,234.382 54.5,236C 60.188,236.554 65.8546,236.387 71.5,235.5C 66.7847,239.503 61.4514,240.336 55.5,238C 45.4325,235.246 40.7659,228.58 41.5,218C 41.671,213.484 42.671,209.151 44.5,205C 43.4411,200.768 43.7745,196.601 45.5,192.5C 47.8818,190.785 49.8818,188.785 51.5,186.5 Z"/></g>
<g><path style="opacity:1" fill="#1a753a" d="M 124.5,223.5 C 125.837,224.315 126.837,225.482 127.5,227C 129.18,227.034 130.68,227.201 132,227.5C 132.21,225.942 132.71,224.609 133.5,223.5C 133.33,224.822 133.663,225.989 134.5,227C 140.091,230.113 145.424,229.613 150.5,225.5C 156.992,226.397 157.825,228.731 153,232.5C 152.517,233.448 152.351,234.448 152.5,235.5C 152.167,235.5 151.833,235.5 151.5,235.5C 142.041,236.708 133.374,235.041 125.5,230.5C 125.326,228.139 124.993,225.806 124.5,223.5 Z"/></g>
<g><path style="opacity:1" fill="#2b6b42" d="M 162.5,206.5 C 163.267,207.172 163.934,208.005 164.5,209C 164.574,211.776 164.241,214.609 163.5,217.5C 164.029,223.331 164.695,228.998 165.5,234.5C 172.055,236.87 174.721,234.537 173.5,227.5C 174.167,221.986 174.833,216.319 175.5,210.5C 176.287,209.758 176.953,208.925 177.5,208C 180.482,207.502 183.482,207.335 186.5,207.5C 188.002,209.175 189.335,211.008 190.5,213C 189.944,213.383 189.611,213.883 189.5,214.5C 190.001,218.412 190.001,222.412 189.5,226.5C 189.141,221.251 188.141,216.251 186.5,211.5C 182.391,208.455 179.058,209.122 176.5,213.5C 175.508,220.982 175.175,228.648 175.5,236.5C 173.901,236.232 172.568,236.566 171.5,237.5C 168.938,238.371 166.272,238.371 163.5,237.5C 162.818,227.181 162.485,216.847 162.5,206.5 Z"/></g>
<g><path style="opacity:1" fill="#177839" d="M 173.5,227.5 C 174.721,234.537 172.055,236.87 165.5,234.5C 165.638,229.546 165.638,224.546 165.5,219.5C 167.051,214.911 169.051,210.911 171.5,207.5C 172.262,208.628 172.929,209.795 173.5,211C 171.977,213.355 171.31,215.688 171.5,218C 172.05,221.324 172.717,224.491 173.5,227.5 Z"/></g>
<g><path style="opacity:1" fill="#4c855e" d="M 125.5,230.5 C 133.374,235.041 142.041,236.708 151.5,235.5C 143.813,240.637 136.146,240.47 128.5,235C 126.859,233.871 125.859,232.371 125.5,230.5 Z"/></g>
<g><path style="opacity:1" fill="#3e7250" d="M 231.5,224.5 C 230.484,228.721 229.151,232.887 227.5,237C 224.139,237.337 220.806,237.837 217.5,238.5C 214.996,237.85 213.663,236.183 213.5,233.5C 217.576,235.442 221.909,235.942 226.5,235C 227.833,233.667 227.833,232.333 226.5,231C 228.087,228.594 229.753,226.428 231.5,224.5 Z"/></g>
<g><path style="opacity:1" fill="#598569" d="M 245.5,199.5 C 245.5,205.5 245.5,211.5 245.5,217.5C 245.5,217.833 245.5,218.167 245.5,218.5C 245.171,224.206 245.505,229.872 246.5,235.5C 249.084,236.393 251.751,236.726 254.5,236.5C 254.5,224.5 254.5,212.5 254.5,200.5C 252.265,200.795 250.265,200.461 248.5,199.5C 251.011,199.162 253.345,199.162 255.5,199.5C 256.666,211.82 256.833,224.153 256,236.5C 255.261,237.574 254.261,238.241 253,238.5C 250.616,237.281 248.283,237.281 246,238.5C 245.333,237.833 244.667,237.167 244,236.5C 243.833,230.333 243.667,224.167 243.5,218C 243.504,211.462 244.17,205.295 245.5,199.5 Z"/></g>
<g><path style="opacity:1" fill="#177737" d="M 245.5,218.5 C 245.5,218.167 245.5,217.833 245.5,217.5C 246.213,212.632 246.879,207.632 247.5,202.5C 249.5,201.167 251.5,201.167 253.5,202.5C 252.331,213.137 252.331,223.804 253.5,234.5C 251.167,234.5 248.833,234.5 246.5,234.5C 246.821,228.974 246.488,223.64 245.5,218.5 Z"/></g>
<g><path style="opacity:1" fill="#20733e" d="M 245.5,199.5 C 246.5,199.5 247.5,199.5 248.5,199.5C 250.265,200.461 252.265,200.795 254.5,200.5C 254.5,212.5 254.5,224.5 254.5,236.5C 251.751,236.726 249.084,236.393 246.5,235.5C 245.505,229.872 245.171,224.206 245.5,218.5C 246.488,223.64 246.821,228.974 246.5,234.5C 248.833,234.5 251.167,234.5 253.5,234.5C 252.331,223.804 252.331,213.137 253.5,202.5C 251.5,201.167 249.5,201.167 247.5,202.5C 246.879,207.632 246.213,212.632 245.5,217.5C 245.5,211.5 245.5,205.5 245.5,199.5 Z"/></g>
</svg>
