<svg version="1.1" id="Layer_1" xmlns="http://www.w3.org/2000/svg" xmlns:xlink="http://www.w3.org/1999/xlink" x="0px" y="0px"
	 width="100%" viewBox="0 0 261 243" enable-background="new 0 0 261 243" xml:space="preserve">
<path fill="#000000" opacity="1.000000" stroke="none" 
	d="
M1.000000,198.000000 
	C1.000000,132.361908 1.000000,66.723824 1.000000,1.042871 
	C87.933533,1.042871 174.867096,1.042871 261.900330,1.042871 
	C261.900330,81.898193 261.900330,162.796539 261.900330,243.847443 
	C175.000198,243.847443 88.000137,243.847443 1.000000,243.847443 
	C1.000000,229.591721 1.000000,215.264511 1.365753,200.420029 
	C2.155612,200.720825 2.939137,201.536118 2.945529,202.357452 
	C2.987233,207.716034 2.657143,213.082993 2.842961,218.433517 
	C3.050690,224.414963 3.506858,230.404053 4.282767,236.333862 
	C4.415982,237.351959 6.667153,238.807556 7.972257,238.842163 
	C16.685499,239.073074 25.410299,238.851746 34.125015,239.052399 
	C36.857410,239.115311 38.811092,238.838501 38.883228,235.664413 
	C38.950916,232.685867 39.395908,229.347229 34.963615,229.029068 
	C29.534515,228.639389 24.099915,228.326324 18.325348,227.958328 
	C18.254179,227.633606 18.119547,226.830399 17.900700,226.050842 
	C16.187338,219.947723 16.869711,218.980316 23.163412,219.022217 
	C25.133005,219.035324 27.102207,219.358276 29.068493,219.568375 
	C34.338619,220.131516 36.789295,218.493546 36.956448,214.274643 
	C37.213024,207.798584 37.008797,207.560791 30.384628,208.023300 
	C28.417963,208.160614 26.479834,208.669922 24.519884,208.946899 
	C18.008091,209.867142 15.576763,207.267273 16.590952,200.158096 
	C21.904577,199.784195 27.277758,199.304260 32.661613,199.053101 
	C39.369694,198.740158 40.842201,196.035004 37.708096,188.890503 
	C28.754673,188.342636 19.859356,188.244232 10.614357,188.068344 
	C8.010489,187.990860 5.756303,187.990860 2.976503,187.990860 
	C2.976503,190.368317 3.218273,192.371750 2.893023,194.278458 
	C2.669555,195.588486 1.658835,196.764236 1.000000,198.000000 
M172.494064,159.136429 
	C172.298157,159.415588 172.102249,159.694748 171.464035,160.073715 
	C171.464035,160.073715 171.028442,160.199615 170.338882,160.078644 
	C169.237457,159.924194 168.136047,159.769760 168.041931,159.756561 
	C169.435669,154.024261 170.782227,148.485992 172.098999,142.501144 
	C172.098999,142.501144 172.141861,142.054840 172.601624,141.691437 
	C172.689255,141.123184 172.776886,140.554916 172.975235,139.249405 
	C172.938797,138.507294 172.902359,137.765167 172.957382,136.236343 
	C172.594513,134.487808 172.231659,132.739288 172.005371,130.522202 
	C172.005371,130.522202 172.119888,130.047455 172.566254,129.725800 
	C172.409988,129.123566 172.253708,128.521347 171.998566,127.189163 
	C171.611313,124.762070 172.376480,121.386276 167.269608,122.124573 
	C166.483276,121.719765 165.696930,121.314957 165.243530,120.372520 
	C165.911987,119.641121 166.474411,118.759064 167.265701,118.202217 
	C173.479218,113.829575 173.755646,109.340363 167.020813,105.629669 
	C162.014053,102.871094 156.091476,101.776405 150.581757,99.925835 
	C150.159088,99.783875 149.775833,99.524513 149.127701,99.193985 
	C149.813080,97.988518 150.427872,96.907234 151.289307,95.392128 
	C148.330734,94.249252 145.639511,93.209648 142.140778,92.063477 
	C137.434082,91.332832 132.727402,90.602188 127.452736,89.326233 
	C118.595154,88.234253 110.890793,91.934944 106.237305,98.462120 
	C99.649696,107.702164 93.644157,117.683746 91.129181,129.650116 
	C90.779869,126.209587 89.580383,122.974205 90.350517,120.307678 
	C92.342117,113.411957 94.266068,106.192589 97.959869,100.171677 
	C102.307892,93.084389 108.492622,87.124283 113.877403,80.672478 
	C116.283516,77.789581 118.681084,74.899551 121.012886,72.004669 
	C121.012886,72.004669 121.014214,72.074776 121.634644,71.764275 
	C123.600494,70.577698 125.596947,69.438652 127.526665,68.195976 
	C134.393250,63.774143 141.576355,59.643734 144.597702,50.529617 
	C145.359726,48.876144 146.394440,47.292843 146.840866,45.558151 
	C150.601044,30.946821 144.956970,18.297695 138.163071,6.004982 
	C137.662277,5.098867 134.382141,4.474655 133.758072,5.093925 
	C129.636887,9.183298 125.889252,13.649137 121.991745,17.992331 
	C121.991745,17.992331 121.989441,18.020826 121.543465,18.210016 
	C121.265610,18.403564 121.083572,18.664074 120.999413,18.999439 
	C120.999413,18.999439 120.990959,18.997787 120.541466,19.200600 
	C120.261787,19.399252 120.073700,19.663187 120.000854,19.999098 
	C120.000854,19.999098 119.979172,19.980223 119.210548,19.922390 
	C116.886711,22.629940 114.562874,25.337492 112.090508,28.482191 
	C112.090508,28.482191 111.985626,28.931810 111.270508,29.095015 
	C104.317009,38.234333 106.116051,48.446831 108.178497,58.439148 
	C108.724098,61.082504 111.685837,63.227169 114.038673,66.242218 
	C111.630806,68.420853 108.567406,71.192619 105.195541,73.121117 
	C104.487885,70.042679 103.780228,66.964241 103.007774,63.722591 
	C103.007774,63.722591 102.903717,63.950115 103.528938,63.588898 
	C103.015541,61.361515 102.502151,59.134132 101.889496,56.504528 
	C101.889496,56.504528 101.764366,56.109596 101.854324,55.428955 
	C101.220314,54.546780 100.586304,53.664604 99.928246,52.501717 
	C99.928246,52.501717 99.860886,52.228153 99.857780,51.647961 
	C99.575645,51.412357 99.293503,51.176750 99.039856,50.990395 
	C99.039856,50.990395 99.063789,50.938786 98.834641,50.390575 
	C98.228256,49.889599 97.621872,49.388622 96.687546,48.306557 
	C87.499344,37.459728 75.156601,37.940712 62.788162,38.278706 
	C63.941845,43.068275 64.687386,47.437767 66.071396,51.594685 
	C67.904404,57.100182 69.529785,62.872608 72.518311,67.749718 
	C77.121925,75.262535 84.861137,77.512512 94.124954,77.171349 
	C93.624397,73.663826 93.128403,70.188255 92.512772,65.874405 
	C97.723877,72.970543 97.403358,79.672714 94.332375,86.537163 
	C89.737633,96.807587 81.520576,105.653076 81.694191,117.790794 
	C81.801559,125.297791 81.116531,133.119843 82.990608,140.218796 
	C85.192833,148.560715 89.834145,156.049072 96.104950,162.608658 
	C106.847252,173.845596 120.279770,178.733109 135.023392,179.729202 
	C145.563202,180.441284 156.121979,179.246033 166.174484,174.386292 
	C174.596771,170.314651 181.793884,164.964981 187.404205,157.844604 
	C195.290787,147.835358 198.769714,136.230118 198.082428,123.239578 
	C197.182968,106.238312 187.632233,94.487312 175.412781,84.359764 
	C171.438965,81.066254 171.452118,81.037750 174.432236,76.626289 
	C176.803070,73.116768 177.900879,68.599609 178.906494,64.373375 
	C179.468460,62.011589 177.956833,60.475445 174.965607,60.817558 
	C172.718674,61.074543 169.816589,61.365677 168.196121,60.229576 
	C163.786255,57.137844 159.518204,58.092842 154.884109,59.011646 
	C151.848785,59.613464 148.604141,59.562794 145.498154,59.291115 
	C142.419449,59.021824 138.573700,61.733112 139.235641,64.703392 
	C140.079437,68.489670 141.091766,72.487953 143.123459,75.705261 
	C146.764938,81.471786 147.115738,81.267563 141.900116,86.058159 
	C141.428024,86.491783 140.716644,86.664932 140.029770,87.001488 
	C145.920456,91.804520 149.684067,91.992783 155.038757,88.612297 
	C156.501541,87.688820 158.349396,87.375313 160.742188,86.951500 
	C170.039536,90.354721 176.529999,97.083244 181.869614,105.058128 
	C188.177795,114.479591 189.423309,125.010948 188.072174,136.450928 
	C188.072174,136.450928 187.962799,136.893494 187.468063,137.256668 
	C187.380798,137.847046 187.293533,138.437408 187.063629,139.446045 
	C187.063629,139.446045 186.950348,139.873184 186.393265,140.313919 
	C185.288620,142.895493 184.183990,145.477051 182.864319,148.552490 
	C182.564758,148.996460 182.265213,149.440445 181.367218,150.190765 
	C179.545059,152.445511 177.722900,154.700256 175.970612,157.006104 
	C175.970612,157.006104 176.021729,156.936264 175.424316,157.007065 
	C174.942123,157.329147 174.459946,157.651230 174.000000,158.000610 
	C174.000000,158.000610 173.982483,157.970230 173.485245,158.120895 
	C173.307037,158.407242 173.128830,158.693573 172.996521,159.007141 
	C172.996521,159.007141 172.983749,158.955322 172.494064,159.136429 
M57.865498,228.515930 
	C57.576004,228.321808 57.286510,228.127686 56.982891,228.013214 
	C56.982891,228.013214 57.062538,228.027359 56.998173,227.402863 
	C56.677269,226.915604 56.356365,226.428360 56.023479,225.998856 
	C56.023479,225.998856 56.080360,225.983231 56.065815,225.143753 
	C55.696529,223.373718 54.696888,221.445862 55.092133,219.867249 
	C55.861439,216.794617 57.000961,213.602097 58.883663,211.146637 
	C59.470322,210.381516 64.143921,211.119415 64.891289,212.383987 
	C68.573608,218.614487 73.422478,217.142899 79.006889,215.185196 
	C78.823372,213.565414 79.162392,211.477127 78.317642,210.132538 
	C76.410202,207.096420 77.266678,205.767792 80.048904,203.851578 
	C85.896255,199.824341 90.002319,194.364960 91.210762,186.294968 
	C91.761002,184.424988 92.718033,182.558151 92.732552,180.684036 
	C92.744125,179.189148 91.745132,176.517303 90.951256,176.423264 
	C89.176353,176.212997 87.192986,177.148163 85.404991,177.884857 
	C84.265106,178.354538 83.408730,179.727661 82.275711,179.957016 
	C79.238373,180.571854 76.120529,180.789062 72.200340,181.072479 
	C61.263748,181.279205 52.229462,185.095093 46.644630,195.800003 
	C46.057491,200.096313 46.014778,205.627640 44.438511,210.680542 
	C42.249214,217.698639 42.372669,224.612549 45.178753,230.916672 
	C48.622551,238.653427 56.490417,240.198639 64.025230,240.264175 
	C70.077660,240.316833 75.443123,237.788284 77.783600,231.409607 
	C78.454376,229.581451 78.830734,227.645264 79.342094,225.758636 
	C77.209541,225.234131 75.076988,224.709625 72.381729,224.073837 
	C72.000694,224.041641 71.619667,224.009460 70.857239,223.393951 
	C69.538795,224.585526 68.220360,225.777115 66.964996,226.977997 
	C66.964996,226.977997 66.959358,226.914490 66.360931,227.195953 
	C64.892754,228.117935 63.424572,229.039932 61.231667,230.017349 
	C60.506969,229.987625 59.782276,229.957916 58.848232,229.468185 
	C58.572723,229.282349 58.297215,229.096497 58.003170,228.985748 
	C58.003170,228.985748 58.078281,229.004288 57.865498,228.515930 
M178.994568,212.011856 
	C178.994568,212.011856 179.008453,212.081009 179.787491,211.962296 
	C181.850479,211.697586 183.913452,211.432877 186.420822,211.664169 
	C187.177551,213.203445 188.459381,214.696045 188.601105,216.290009 
	C189.252716,223.618759 189.586029,230.975830 190.056122,238.693375 
	C191.968292,238.879974 193.794418,238.794739 195.460968,239.269547 
	C200.724014,240.769058 201.123291,237.818069 201.018387,233.792801 
	C200.853577,227.469009 200.137817,220.992508 201.188232,214.842484 
	C202.850143,205.112320 190.025040,197.665115 181.018066,200.770370 
	C179.584564,201.264587 177.613937,201.066849 176.164078,200.496475 
	C170.161224,198.134995 165.337723,200.321228 164.325668,206.430649 
	C164.634079,215.266266 164.942474,224.101868 165.139069,233.786270 
	C165.139069,235.402084 165.139069,237.017914 165.139069,239.160217 
	C168.334625,239.020645 171.222656,238.894516 174.939621,238.965851 
	C178.089691,239.668228 177.952438,237.558212 177.987900,235.482315 
	C178.114578,228.070587 178.287506,220.659683 178.324051,212.961273 
	C178.324051,212.961273 178.036865,213.080124 178.577606,212.976883 
	C178.739670,212.650711 178.901733,212.324539 178.994568,212.011856 
M160.000519,215.999390 
	C160.000519,215.999390 159.988373,216.008255 159.967239,215.221909 
	C158.933823,210.728394 158.492889,205.856888 152.434067,203.901505 
	C148.698257,199.706802 143.314682,200.077545 138.832230,200.445847 
	C130.605606,201.121780 122.948357,210.496094 122.659821,218.779984 
	C122.403168,226.148483 125.045143,232.731918 131.000244,236.811691 
	C137.873856,241.520721 145.613052,241.981171 153.790558,237.102600 
	C156.364700,234.851273 158.938828,232.599945 162.545593,229.445496 
	C159.327744,228.277145 157.610748,227.445084 155.798416,227.046341 
	C153.300156,226.496658 152.765030,225.340714 154.106903,223.144989 
	C154.106903,223.144989 154.038239,223.110245 154.867035,223.032883 
	C156.730072,223.032883 158.593094,223.032883 160.991180,223.032883 
	C160.444382,221.675980 160.115433,220.859665 159.928452,219.299774 
	C159.952423,218.543350 159.976410,217.786926 160.326874,216.830917 
	C160.215012,216.557571 160.103165,216.284210 160.000519,215.999390 
M118.215439,209.514130 
	C113.874786,203.120316 104.130951,199.082748 97.239502,200.822281 
	C86.743927,203.471588 82.539383,209.106628 81.914177,220.057861 
	C81.559227,226.275269 83.654861,231.420242 87.877701,235.369370 
	C93.955215,241.052902 106.428658,241.556412 112.319252,237.134964 
	C121.712883,230.084167 122.083748,219.955627 118.215439,209.514130 
M242.016907,200.087555 
	C239.585403,200.313400 236.949249,201.235977 234.771957,200.596420 
	C231.753876,199.709869 230.329926,200.729111 229.317871,203.121857 
	C228.112701,205.971100 227.006454,208.870605 226.029541,211.805664 
	C224.998978,214.901978 224.171402,218.065887 223.255127,221.200272 
	C220.115845,215.387192 218.210541,209.635757 215.980698,204.013046 
	C215.494308,202.786575 213.938675,201.338348 212.718002,201.175964 
	C209.662140,200.769455 206.515976,201.041809 203.187531,201.041809 
	C203.187531,202.833710 202.860687,204.099213 203.237823,205.099228 
	C207.244583,215.723526 211.212097,226.369537 215.633530,236.822159 
	C216.215775,238.198624 219.214600,238.782547 221.207626,239.253448 
	C222.580551,239.577805 224.160522,238.888367 225.628174,238.977570 
	C228.758347,239.167786 229.875641,237.346115 230.844254,234.746979 
	C234.665619,224.492874 238.706177,214.320572 242.558426,204.077682 
	C242.973465,202.974106 242.692566,201.608795 242.016907,200.087555 
M244.938522,219.746414 
	C244.985474,225.440933 244.922318,231.140839 245.199951,236.824081 
	C245.240860,237.661896 246.788208,238.845428 247.831665,239.111404 
	C249.213257,239.463547 250.890396,238.687790 252.256165,239.064743 
	C257.167511,240.420227 258.008026,237.716278 257.992035,233.810898 
	C257.960022,225.993469 258.004150,218.175766 257.986633,210.358231 
	C257.963684,200.124374 257.830017,200.015625 247.565903,201.201035 
	C247.256378,201.236755 246.967972,201.455414 246.186096,201.805054 
	C245.781342,207.311508 245.358597,213.062820 244.938522,219.746414 
M257.774994,194.065186 
	C258.641632,189.786026 256.895233,187.048584 252.715088,186.086288 
	C248.652374,185.150986 245.563217,187.436646 244.512543,190.783890 
	C243.951706,192.570663 245.656982,195.896805 247.348358,197.369705 
	C249.928970,199.617050 255.523239,197.820404 257.774994,194.065186 
z"/>
<path fill="#237642" opacity="1.000000" stroke="none" 
	d="
M1.000000,198.333328 
	C1.658835,196.764236 2.669555,195.588486 2.893023,194.278458 
	C3.218273,192.371750 2.976503,190.368317 2.976503,187.990860 
	C5.756303,187.990860 8.010489,187.990860 10.997753,188.236069 
	C20.409288,188.767517 29.087744,189.053741 37.766201,189.339981 
	C40.842201,196.035004 39.369694,198.740158 32.661613,199.053101 
	C27.277758,199.304260 21.904577,199.784195 16.590952,200.158096 
	C15.576763,207.267273 18.008091,209.867142 24.519884,208.946899 
	C26.479834,208.669922 28.417963,208.160614 30.384628,208.023300 
	C37.008797,207.560791 37.213024,207.798584 36.956448,214.274643 
	C36.789295,218.493546 34.338619,220.131516 29.068493,219.568375 
	C27.102207,219.358276 25.133005,219.035324 23.163412,219.022217 
	C16.869711,218.980316 16.187338,219.947723 17.900700,226.050842 
	C18.119547,226.830399 18.254179,227.633606 18.325348,227.958328 
	C24.099915,228.326324 29.534515,228.639389 34.963615,229.029068 
	C39.395908,229.347229 38.950916,232.685867 38.883228,235.664413 
	C38.811092,238.838501 36.857410,239.115311 34.125015,239.052399 
	C25.410299,238.851746 16.685499,239.073074 7.972257,238.842163 
	C6.667153,238.807556 4.415982,237.351959 4.282767,236.333862 
	C3.506858,230.404053 3.050690,224.414963 2.842961,218.433517 
	C2.657143,213.082993 2.987233,207.716034 2.945529,202.357452 
	C2.939137,201.536118 2.155612,200.720825 1.365753,199.951370 
	C1.000000,199.555557 1.000000,199.111099 1.000000,198.333328 
z"/>
<path fill="#267341" opacity="1.000000" stroke="none" 
	d="
M186.950348,139.873184 
	C186.950348,139.873184 187.063629,139.446045 187.262695,139.088806 
	C187.628769,138.118881 187.795776,137.506195 187.962799,136.893494 
	C187.962799,136.893494 188.072174,136.450928 188.357651,135.941162 
	C188.943573,134.842682 189.373184,134.285477 189.525620,133.660660 
	C193.642944,116.784103 181.403809,93.057472 165.139862,86.665306 
	C163.674988,86.089561 161.738174,86.714531 160.020538,86.781876 
	C158.349396,87.375313 156.501541,87.688820 155.038757,88.612297 
	C149.684067,91.992783 145.920456,91.804520 140.029770,87.001488 
	C140.716644,86.664932 141.428024,86.491783 141.900116,86.058159 
	C147.115738,81.267563 146.764938,81.471786 143.123459,75.705261 
	C141.091766,72.487953 140.079437,68.489670 139.235641,64.703392 
	C138.573700,61.733112 142.419449,59.021824 145.498154,59.291115 
	C148.604141,59.562794 151.848785,59.613464 154.884109,59.011646 
	C159.518204,58.092842 163.786255,57.137844 168.196121,60.229576 
	C169.816589,61.365677 172.718674,61.074543 174.965607,60.817558 
	C177.956833,60.475445 179.468460,62.011589 178.906494,64.373375 
	C177.900879,68.599609 176.803070,73.116768 174.432236,76.626289 
	C171.452118,81.037750 171.438965,81.066254 175.412781,84.359764 
	C187.632233,94.487312 197.182968,106.238312 198.082428,123.239578 
	C198.769714,136.230118 195.290787,147.835358 187.404205,157.844604 
	C181.793884,164.964981 174.596771,170.314651 166.174484,174.386292 
	C156.121979,179.246033 145.563202,180.441284 135.023392,179.729202 
	C120.279770,178.733109 106.847252,173.845596 96.104950,162.608658 
	C89.834145,156.049072 85.192833,148.560715 82.990608,140.218796 
	C81.116531,133.119843 81.801559,125.297791 81.694191,117.790794 
	C81.520576,105.653076 89.737633,96.807587 94.332375,86.537163 
	C97.403358,79.672714 97.723877,72.970543 92.512772,65.874405 
	C93.128403,70.188255 93.624397,73.663826 94.124954,77.171349 
	C84.861137,77.512512 77.121925,75.262535 72.518311,67.749718 
	C69.529785,62.872608 67.904404,57.100182 66.071396,51.594685 
	C64.687386,47.437767 63.941845,43.068275 62.788162,38.278706 
	C75.156601,37.940712 87.499344,37.459728 96.848175,48.949501 
	C97.006401,50.060959 97.003990,50.529472 96.686096,50.862976 
	C95.120842,49.917534 93.672142,49.302185 92.654297,48.264301 
	C86.999969,42.498684 79.699768,41.065189 72.153023,40.580585 
	C70.809998,40.494347 68.021820,42.525665 68.145226,43.075287 
	C69.769470,50.309334 70.854477,57.920670 74.089813,64.436913 
	C75.916565,68.116127 81.161392,70.634735 85.396126,72.419884 
	C89.085640,73.975189 90.868805,71.793533 89.475403,68.016350 
	C88.350121,64.965981 86.519760,62.173527 84.976723,59.280239 
	C83.957298,57.368736 82.892822,55.481262 81.601059,53.133247 
	C90.121971,53.416763 97.501938,64.174652 99.019043,77.431900 
	C98.610260,80.251831 98.363869,82.683418 97.788162,85.034370 
	C96.876793,88.755989 97.523514,90.927773 101.831558,90.294983 
	C98.466583,95.742050 95.255074,100.886673 92.027740,105.684502 
	C91.703568,104.070297 91.395226,102.802887 91.086876,101.535469 
	C90.477417,101.481148 89.867958,101.426826 89.258492,101.372505 
	C87.529160,106.920700 85.111557,112.368187 84.280556,118.047813 
	C83.570656,122.899811 84.682159,128.018311 85.150253,133.186462 
	C85.529167,133.577118 85.747719,133.798386 85.973053,134.266113 
	C85.977951,134.514465 85.989555,135.011124 86.041885,135.357590 
	C86.723022,138.806793 87.351814,141.909546 88.120613,145.331085 
	C93.453934,152.247391 98.136711,159.356247 104.036331,165.246323 
	C107.452637,168.657104 112.709686,170.385483 117.358231,172.350906 
	C121.244797,173.994156 125.379562,175.425613 129.533005,175.970337 
	C135.110596,176.701843 140.822067,176.773239 146.456192,176.571747 
	C149.612396,176.458862 152.728455,175.222870 155.862595,174.492920 
	C155.810638,173.803650 155.758682,173.114380 155.706741,172.425110 
	C153.501724,171.674194 151.296722,170.923279 148.906784,170.109390 
	C150.365417,165.423721 154.534119,165.239822 158.155975,164.284088 
	C160.174026,165.037521 162.485916,166.459915 163.814301,165.824921 
	C166.501328,164.540421 168.654892,162.139923 171.028442,160.199615 
	C171.028442,160.199615 171.464035,160.073715 171.871796,159.862305 
	C172.523712,159.428574 172.758438,159.196716 172.983749,158.955322 
	C172.983749,158.955322 172.996521,159.007141 173.153610,158.833221 
	C173.546158,158.440857 173.770096,158.211151 173.982483,157.970230 
	C173.982483,157.970230 174.000000,158.000610 174.249268,157.868134 
	C175.006271,157.469177 175.513992,157.202728 176.021729,156.936264 
	C176.021729,156.936264 175.970612,157.006104 176.257797,156.854614 
	C178.351883,154.430222 180.158768,152.157318 181.965652,149.884415 
	C182.265213,149.440445 182.564758,148.996460 183.268402,148.128967 
	C184.765106,145.094696 185.857727,142.483948 186.950348,139.873184 
M157.182159,68.066963 
	C155.205353,68.609001 153.228561,69.151031 149.916260,70.059258 
	C152.298004,71.914406 153.828445,73.106461 155.585037,74.474678 
	C156.870438,72.069138 157.796204,70.336632 159.057648,68.266670 
	C159.010132,67.760864 158.962616,67.255058 158.915115,66.749252 
	C158.587982,67.142708 158.260864,67.536163 157.182159,68.066963 
M156.517746,167.482056 
	C156.517746,167.482056 156.486221,167.485764 156.517746,167.482056 
M154.518402,169.517532 
	C154.518402,169.517532 154.518280,169.489090 154.518402,169.517532 
z"/>
<path fill="#20783F" opacity="1.000000" stroke="none" 
	d="
M111.985626,28.931810 
	C111.985626,28.931810 112.090508,28.482191 112.492096,28.168648 
	C115.255508,25.230143 117.617340,22.605183 119.979172,19.980221 
	C119.979172,19.980223 120.000854,19.999098 120.165039,19.837063 
	C120.559402,19.458654 120.779976,19.232908 120.990959,18.997787 
	C120.990959,18.997787 120.999413,18.999439 121.171036,18.841179 
	C121.568146,18.471886 121.783745,18.251188 121.989441,18.020826 
	C121.989441,18.020826 121.991745,17.992331 122.354752,17.922638 
	C126.066139,15.243219 129.488251,12.721101 132.734100,9.989534 
	C134.559830,8.453084 136.362854,6.838598 137.795654,9.955988 
	C140.066772,14.897313 142.036606,19.984003 143.975647,25.069532 
	C147.311310,33.818008 144.736725,42.384586 142.742828,51.202423 
	C136.763626,56.570858 130.961166,61.640083 125.300331,66.862808 
	C123.662712,68.373688 122.431648,70.325241 121.014214,72.074776 
	C121.014214,72.074776 121.012886,72.004669 120.718765,72.131805 
	C117.310516,74.525436 114.196396,76.791924 110.963013,78.762680 
	C110.224419,77.634293 109.605095,76.801636 109.122879,75.660545 
	C110.249916,74.030792 111.275620,72.734573 112.223938,71.384026 
	C117.832336,63.396816 123.733643,55.591007 128.893814,47.323120 
	C131.654602,42.899651 132.580734,37.593769 131.133148,32.032398 
	C129.641022,33.145264 128.622498,34.449360 127.839867,35.882309 
	C124.908150,41.250145 122.358040,46.858143 119.035461,51.966747 
	C117.484879,54.350826 114.494827,55.798683 112.157242,57.670898 
	C111.124931,54.627129 109.111595,51.534267 109.260956,48.549625 
	C109.589638,41.981354 111.010521,35.467735 111.985626,28.931810 
z"/>
<path fill="#217740" opacity="1.000000" stroke="none" 
	d="
M59.057583,229.928192 
	C59.782276,229.957916 60.506969,229.987625 61.791279,230.142487 
	C65.717979,231.666306 66.251671,229.170822 66.959358,226.914490 
	C66.959358,226.914490 66.964996,226.977997 67.243423,226.847610 
	C68.760773,225.803909 69.999702,224.890594 71.238632,223.977280 
	C71.619667,224.009460 72.000694,224.041641 72.871841,224.371872 
	C77.009148,228.620926 77.048935,230.522079 73.552963,233.798569 
	C67.301163,239.657867 55.134514,238.965073 49.581520,232.433578 
	C43.154907,224.874527 43.233116,212.827164 50.663589,206.163284 
	C55.004581,202.270157 60.635593,199.809235 65.712227,196.747070 
	C66.952423,195.999023 68.294678,195.420166 69.590012,194.763535 
	C69.429886,194.243210 69.269768,193.722900 69.109642,193.202591 
	C65.530785,193.468399 61.953716,193.891617 58.372295,193.932358 
	C56.630306,193.952194 54.880180,193.257080 53.133739,192.885620 
	C54.166809,191.326874 54.894135,189.358444 56.304794,188.305649 
	C58.407822,186.736130 60.931709,185.664185 63.388111,184.651093 
	C66.545860,183.348740 69.814056,182.314163 73.034668,181.164215 
	C76.120529,180.789062 79.238373,180.571854 82.275711,179.957016 
	C83.408730,179.727661 84.265106,178.354538 85.404991,177.884857 
	C87.192986,177.148163 89.176353,176.212997 90.951256,176.423264 
	C91.745132,176.517303 92.744125,179.189148 92.732552,180.684036 
	C92.718033,182.558151 91.761002,184.424988 90.767921,186.838257 
	C85.642357,192.875748 80.819466,198.260681 76.386002,203.949142 
	C75.408028,205.203934 75.487625,207.562622 75.645714,209.363358 
	C75.948250,212.809494 74.334404,214.517899 71.087646,213.377365 
	C69.609253,212.858047 68.333977,211.633438 67.097351,210.575821 
	C62.593220,206.723694 56.811291,207.687820 54.331356,213.097382 
	C52.271206,217.591263 52.394547,222.110718 56.080360,225.983231 
	C56.080360,225.983231 56.023479,225.998856 56.139549,226.239197 
	C56.524590,226.995483 56.793564,227.511414 57.062538,228.027359 
	C57.062538,228.027359 56.982891,228.013214 57.162476,228.159790 
	C57.587471,228.539001 57.832874,228.771652 58.078281,229.004288 
	C58.078281,229.004288 58.003170,228.985748 58.088905,229.077026 
	C58.468960,229.421585 58.763271,229.674881 59.057583,229.928192 
z"/>
<path fill="#227541" opacity="1.000000" stroke="none" 
	d="
M118.444565,209.830704 
	C122.083748,219.955627 121.712883,230.084167 112.319252,237.134964 
	C106.428658,241.556412 93.955215,241.052902 87.877701,235.369370 
	C83.654861,231.420242 81.559227,226.275269 81.914177,220.057861 
	C82.539383,209.106628 86.743927,203.471588 97.239502,200.822281 
	C104.130951,199.082748 113.874786,203.120316 118.444565,209.830704 
M105.305107,228.124512 
	C106.207748,224.609940 107.710754,221.118011 107.844276,217.574448 
	C107.977982,214.026230 105.625565,211.547928 101.747589,210.998260 
	C98.024307,210.470505 96.693497,212.778793 96.003510,215.745804 
	C95.522408,217.814590 95.008636,219.953873 95.048645,222.051376 
	C95.177521,228.808456 98.464653,230.909256 105.305107,228.124512 
z"/>
<path fill="#227740" opacity="1.000000" stroke="none" 
	d="
M174.110687,238.768387 
	C171.222656,238.894516 168.334625,239.020645 165.139069,239.160217 
	C165.139069,237.017914 165.139069,235.402084 165.291779,232.970551 
	C165.280136,223.376968 165.115753,214.599136 164.951385,205.821289 
	C165.337723,200.321228 170.161224,198.134995 176.164078,200.496475 
	C177.613937,201.066849 179.584564,201.264587 181.018066,200.770370 
	C190.025040,197.665115 202.850143,205.112320 201.188232,214.842484 
	C200.137817,220.992508 200.853577,227.469009 201.018387,233.792801 
	C201.123291,237.818069 200.724014,240.769058 195.460968,239.269547 
	C193.794418,238.794739 191.968292,238.879974 190.056122,238.693375 
	C189.586029,230.975830 189.252716,223.618759 188.601105,216.290009 
	C188.459381,214.696045 187.177551,213.203445 185.985443,211.165878 
	C182.755936,208.298981 180.751221,209.583832 179.008453,212.081009 
	C179.008453,212.081009 178.994568,212.011856 178.847198,212.175217 
	C178.466736,212.574951 178.245758,212.822144 178.036865,213.080124 
	C178.036865,213.080124 178.324051,212.961273 178.089096,213.345001 
	C177.228699,216.374329 176.386093,218.990479 176.022781,221.671600 
	C175.252960,227.352585 174.733063,233.067429 174.110687,238.768387 
z"/>
<path fill="#237540" opacity="1.000000" stroke="none" 
	d="
M242.375702,200.226227 
	C242.692566,201.608795 242.973465,202.974106 242.558426,204.077682 
	C238.706177,214.320572 234.665619,224.492874 230.844254,234.746979 
	C229.875641,237.346115 228.758347,239.167786 225.628174,238.977570 
	C224.160522,238.888367 222.580551,239.577805 221.207626,239.253448 
	C219.214600,238.782547 216.215775,238.198624 215.633530,236.822159 
	C211.212097,226.369537 207.244583,215.723526 203.237823,205.099228 
	C202.860687,204.099213 203.187531,202.833710 203.187531,201.041809 
	C206.515976,201.041809 209.662140,200.769455 212.718002,201.175964 
	C213.938675,201.338348 215.494308,202.786575 215.980698,204.013046 
	C218.210541,209.635757 220.115845,215.387192 223.255127,221.200272 
	C224.171402,218.065887 224.998978,214.901978 226.029541,211.805664 
	C227.006454,208.870605 228.112701,205.971100 229.317871,203.121857 
	C230.329926,200.729111 231.753876,199.709869 234.771957,200.596420 
	C236.949249,201.235977 239.585403,200.313400 242.375702,200.226227 
z"/>
<path fill="#1B7B3D" opacity="1.000000" stroke="none" 
	d="
M128.020706,89.871536 
	C132.727402,90.602188 137.434082,91.332832 142.720306,92.395859 
	C146.375107,96.600433 145.470184,99.993668 142.281570,103.355820 
	C140.348419,105.394180 138.773102,107.771896 136.769257,110.193817 
	C135.546051,111.242111 134.515839,112.024422 133.649719,112.958824 
	C131.380814,115.406631 131.535278,117.196213 135.551483,117.893707 
	C138.031265,117.623543 140.115891,117.342110 142.471069,117.053154 
	C143.100281,117.052063 143.458923,117.058502 144.125702,117.190109 
	C145.285355,117.560974 146.136856,117.806671 146.992615,118.455856 
	C147.016830,119.946304 147.036789,121.033257 146.746033,122.194992 
	C136.630554,121.857895 126.825813,121.446030 116.744202,120.987183 
	C110.770706,122.626930 114.609940,126.922485 113.589188,130.000488 
	C112.122032,130.005585 111.055008,130.008072 109.734863,129.877960 
	C108.964378,129.502548 108.446999,129.259766 107.956436,129.008209 
	C107.983246,128.999435 107.958382,129.050095 107.979111,128.742554 
	C108.006500,128.229660 108.013168,128.024277 108.047974,127.663864 
	C108.076111,127.508827 108.183144,127.212433 108.400818,126.953720 
	C109.386879,124.111275 110.155266,121.527542 111.244919,118.828064 
	C113.370422,116.132202 115.174652,113.552094 117.190582,110.719681 
	C119.255302,109.298126 121.108322,108.128868 123.288162,106.832886 
	C126.092392,105.460991 128.722763,103.960266 126.803131,100.845367 
	C126.439369,100.255104 122.768745,101.680000 120.638245,102.230522 
	C120.376427,102.298180 120.203712,102.710640 119.617691,102.970367 
	C118.501648,102.992203 117.757622,103.006966 116.648407,103.085327 
	C113.355858,104.764328 110.477371,106.478668 107.482597,107.957527 
	C105.721138,108.827339 103.774963,109.323082 102.092377,109.688049 
	C105.802940,101.681618 110.755753,95.314209 119.017723,92.306580 
	C121.928467,91.246971 125.014633,90.669273 128.020706,89.871536 
z"/>
<path fill="#20763F" opacity="1.000000" stroke="none" 
	d="
M153.049774,237.201340 
	C145.613052,241.981171 137.873856,241.520721 131.000244,236.811691 
	C125.045143,232.731918 122.403168,226.148483 122.659821,218.779984 
	C122.948357,210.496094 130.605606,201.121780 138.832230,200.445847 
	C143.314682,200.077545 148.698257,199.706802 152.823303,204.384918 
	C155.471161,208.581635 157.729767,212.294952 159.988373,216.008255 
	C159.988373,216.008255 160.000519,215.999390 159.998840,216.260040 
	C159.998230,216.690643 159.999298,216.860565 160.000381,217.030502 
	C159.976410,217.786926 159.952423,218.543350 159.576065,219.747589 
	C157.495193,221.167007 155.766708,222.138611 154.038239,223.110229 
	C154.038239,223.110245 154.106903,223.144989 153.816406,222.956207 
	C148.015289,221.276077 142.505066,219.964005 136.689560,222.910217 
	C136.537521,224.702316 136.699371,226.385986 137.049194,228.238220 
	C137.513519,228.597214 137.789871,228.787643 138.018372,228.923462 
	C137.970520,228.868881 138.077606,228.770844 138.265564,229.062347 
	C140.666428,229.967102 142.863815,230.977219 145.097321,231.064606 
	C146.799576,231.131210 148.513809,229.751205 150.286316,229.534149 
	C151.632568,229.369278 153.586060,229.583344 154.327988,230.442108 
	C154.978348,231.194870 154.444244,233.102371 154.195282,234.456024 
	C154.019989,235.409119 153.445831,236.288849 153.049774,237.201340 
M148.352402,211.101105 
	C145.457138,210.316132 142.442780,208.684799 139.712067,209.069092 
	C138.117889,209.293442 136.048447,212.658218 135.862961,214.757675 
	C135.620331,217.503922 138.121231,218.387222 140.880051,217.780228 
	C142.324860,217.462326 143.838837,217.425140 145.326096,217.340195 
	C149.341721,217.110855 150.967865,215.508591 148.352402,211.101105 
z"/>
<path fill="#1E7A3E" opacity="1.000000" stroke="none" 
	d="
M99.033714,77.007385 
	C97.501938,64.174652 90.121971,53.416763 81.601059,53.133247 
	C82.892822,55.481262 83.957298,57.368736 84.976723,59.280239 
	C86.519760,62.173527 88.350121,64.965981 89.475403,68.016350 
	C90.868805,71.793533 89.085640,73.975189 85.396126,72.419884 
	C81.161392,70.634735 75.916565,68.116127 74.089813,64.436913 
	C70.854477,57.920670 69.769470,50.309334 68.145226,43.075287 
	C68.021820,42.525665 70.809998,40.494347 72.153023,40.580585 
	C79.699768,41.065189 86.999969,42.498684 92.654297,48.264301 
	C93.672142,49.302185 95.120842,49.917534 96.685303,50.863964 
	C96.999985,50.999962 97.001854,50.998306 97.119308,51.026161 
	C97.472023,51.098976 97.709236,51.114029 98.228287,51.066238 
	C98.693375,51.001793 98.878586,50.970287 99.063789,50.938786 
	C99.063789,50.938786 99.039856,50.990395 99.147545,51.191734 
	C99.457123,51.671436 99.659004,51.949795 99.860886,52.228149 
	C99.860886,52.228153 99.928246,52.501717 99.938782,53.043488 
	C99.979614,54.381004 100.009895,55.176750 100.035393,56.201706 
	C100.652390,57.284191 101.274178,58.137466 101.951431,59.488602 
	C102.305832,61.307682 102.604774,62.628899 102.903717,63.950115 
	C102.903717,63.950115 103.007774,63.722591 102.861359,64.268959 
	C103.151215,67.866402 103.587486,70.917465 103.910629,74.268295 
	C103.529572,75.379128 103.261620,76.190201 102.597260,77.001381 
	C101.145142,77.003456 100.089424,77.005424 99.033714,77.007385 
z"/>
<path fill="#257642" opacity="1.000000" stroke="none" 
	d="
M244.937180,219.280273 
	C245.358597,213.062820 245.781342,207.311508 246.186096,201.805054 
	C246.967972,201.455414 247.256378,201.236755 247.565903,201.201035 
	C257.830017,200.015625 257.963684,200.124374 257.986633,210.358231 
	C258.004150,218.175766 257.960022,225.993469 257.992035,233.810898 
	C258.008026,237.716278 257.167511,240.420227 252.256165,239.064743 
	C250.890396,238.687790 249.213257,239.463547 247.831665,239.111404 
	C246.788208,238.845428 245.240860,237.661896 245.199951,236.824081 
	C244.922318,231.140839 244.985474,225.440933 244.937180,219.280273 
z"/>
<path fill="#297044" opacity="1.000000" stroke="none" 
	d="
M72.617508,181.118347 
	C69.814056,182.314163 66.545860,183.348740 63.388111,184.651093 
	C60.931709,185.664185 58.407822,186.736130 56.304794,188.305649 
	C54.894135,189.358444 54.166809,191.326874 53.133739,192.885620 
	C54.880180,193.257080 56.630306,193.952194 58.372295,193.932358 
	C61.953716,193.891617 65.530785,193.468399 69.109642,193.202591 
	C69.269768,193.722900 69.429886,194.243210 69.590012,194.763535 
	C68.294678,195.420166 66.952423,195.999023 65.712227,196.747070 
	C60.635593,199.809235 55.004581,202.270157 50.663589,206.163284 
	C43.233116,212.827164 43.154907,224.874527 49.581520,232.433578 
	C55.134514,238.965073 67.301163,239.657867 73.552963,233.798569 
	C77.048935,230.522079 77.009148,228.620926 73.153191,224.427521 
	C75.076988,224.709625 77.209541,225.234131 79.342094,225.758636 
	C78.830734,227.645264 78.454376,229.581451 77.783600,231.409607 
	C75.443123,237.788284 70.077660,240.316833 64.025230,240.264175 
	C56.490417,240.198639 48.622551,238.653427 45.178753,230.916672 
	C42.372669,224.612549 42.249214,217.698639 44.438511,210.680542 
	C46.014778,205.627640 46.057491,200.096313 46.644630,195.800003 
	C52.229462,185.095093 61.263748,181.279205 72.617508,181.118347 
z"/>
<path fill="#267341" opacity="1.000000" stroke="none" 
	d="
M102.993668,77.001274 
	C103.261620,76.190201 103.529572,75.379128 104.280579,74.268478 
	C105.010422,73.967400 105.257210,73.965889 105.504005,73.964378 
	C108.567406,71.192619 111.630806,68.420853 114.038673,66.242218 
	C111.685837,63.227169 108.724098,61.082504 108.178497,58.439148 
	C106.116051,48.446831 104.317009,38.234333 111.628067,29.013412 
	C111.010521,35.467735 109.589638,41.981354 109.260956,48.549625 
	C109.111595,51.534267 111.124931,54.627129 112.157242,57.670898 
	C114.494827,55.798683 117.484879,54.350826 119.035461,51.966747 
	C122.358040,46.858143 124.908150,41.250145 127.839867,35.882309 
	C128.622498,34.449360 129.641022,33.145264 131.133148,32.032398 
	C132.580734,37.593769 131.654602,42.899651 128.893814,47.323120 
	C123.733643,55.591007 117.832336,63.396816 112.223938,71.384026 
	C111.275620,72.734573 110.249916,74.030792 109.126419,75.672112 
	C108.992859,75.992104 108.979668,75.994102 108.750809,76.219925 
	C108.010475,77.608765 107.498993,78.771790 106.697037,79.813614 
	C105.268944,78.795372 104.131310,77.898323 102.993668,77.001274 
M117.000092,59.761993 
	C116.390938,60.569012 115.781776,61.376034 115.172623,62.183052 
	C115.560982,62.436478 115.949341,62.689907 116.337708,62.943333 
	C116.914444,61.978668 117.491180,61.014004 118.461494,59.839108 
	C118.492996,59.455917 118.524498,59.072731 118.556000,58.689533 
	C118.188141,58.900646 117.820290,59.111755 117.000092,59.761993 
z"/>
<path fill="#2F7045" opacity="1.000000" stroke="none" 
	d="
M127.736725,89.598885 
	C125.014633,90.669273 121.928467,91.246971 119.017723,92.306580 
	C110.755753,95.314209 105.802940,101.681618 101.943184,109.997040 
	C98.872032,117.361023 96.219170,124.155357 93.322960,130.844330 
	C92.651085,132.396072 91.149277,133.588470 89.911102,134.657410 
	C89.541077,133.576431 89.289299,132.784271 88.974808,131.577133 
	C89.302284,124.444023 89.692467,117.725876 90.279816,110.783569 
	C90.973335,109.697731 91.469704,108.836060 91.975815,107.650238 
	C92.004890,106.894485 92.024223,106.462891 92.043564,106.031296 
	C95.255074,100.886673 98.466583,95.742050 101.951096,89.981430 
	C103.839554,87.595512 105.455002,85.825600 107.318367,83.849213 
	C108.721611,82.118431 109.876938,80.594116 111.042511,79.064697 
	C111.052757,79.059601 111.082275,79.058411 111.082275,79.058411 
	C114.196396,76.791924 117.310516,74.525436 120.753586,72.135849 
	C118.681084,74.899551 116.283516,77.789581 113.877403,80.672478 
	C108.492622,87.124283 102.307892,93.084389 97.959869,100.171677 
	C94.266068,106.192589 92.342117,113.411957 90.350517,120.307678 
	C89.580383,122.974205 90.779869,126.209587 91.129181,129.650116 
	C93.644157,117.683746 99.649696,107.702164 106.237305,98.462120 
	C110.890793,91.934944 118.595154,88.234253 127.736725,89.598885 
z"/>
<path fill="#367049" opacity="1.000000" stroke="none" 
	d="
M137.037018,109.997147 
	C138.773102,107.771896 140.348419,105.394180 142.281570,103.355820 
	C145.470184,99.993668 146.375107,96.600433 143.124054,92.449142 
	C145.639511,93.209648 148.330734,94.249252 151.289307,95.392128 
	C150.427872,96.907234 149.813080,97.988518 149.127701,99.193985 
	C149.775833,99.524513 150.159088,99.783875 150.581757,99.925835 
	C156.091476,101.776405 162.014053,102.871094 167.020813,105.629669 
	C173.755646,109.340363 173.479218,113.829575 167.265701,118.202217 
	C166.474411,118.759064 165.911987,119.641121 164.696930,120.647079 
	C163.390839,120.916443 162.631348,120.911255 162.081680,120.647598 
	C164.405014,117.742485 167.564377,115.334305 168.242416,112.360390 
	C168.653549,110.557083 165.691986,106.933449 163.415375,105.809753 
	C159.802414,104.026482 155.580063,101.650116 151.280655,105.169472 
	C152.956299,106.251823 154.992279,106.298347 156.436905,107.246170 
	C158.238419,108.428154 159.888062,110.183670 160.842606,112.075378 
	C161.082947,112.551689 158.632126,115.066246 157.053711,115.637520 
	C153.829605,116.804413 150.358017,117.287590 146.988373,118.052376 
	C146.136856,117.806671 145.285355,117.560974 144.410919,116.895622 
	C148.666260,115.644104 153.384445,115.742119 156.287827,111.609795 
	C151.950150,109.635551 148.175247,107.917435 143.546204,105.810577 
	C142.800522,107.070808 141.506882,109.477394 139.983215,111.728271 
	C139.336761,112.683258 138.207733,113.311607 137.249985,113.680756 
	C137.146973,112.181114 137.091995,111.089134 137.037018,109.997147 
z"/>
<path fill="#297044" opacity="1.000000" stroke="none" 
	d="
M56.073090,225.563492 
	C52.394547,222.110718 52.271206,217.591263 54.331356,213.097382 
	C56.811291,207.687820 62.593220,206.723694 67.097351,210.575821 
	C68.333977,211.633438 69.609253,212.858047 71.087646,213.377365 
	C74.334404,214.517899 75.948250,212.809494 75.645714,209.363358 
	C75.487625,207.562622 75.408028,205.203934 76.386002,203.949142 
	C80.819466,198.260681 85.642357,192.875748 90.583839,187.180634 
	C90.002319,194.364960 85.896255,199.824341 80.048904,203.851578 
	C77.266678,205.767792 76.410202,207.096420 78.317642,210.132538 
	C79.162392,211.477127 78.823372,213.565414 79.006889,215.185196 
	C73.422478,217.142899 68.573608,218.614487 64.891289,212.383987 
	C64.143921,211.119415 59.470322,210.381516 58.883663,211.146637 
	C57.000961,213.602097 55.861439,216.794617 55.092133,219.867249 
	C54.696888,221.445862 55.696529,223.373718 56.073090,225.563492 
z"/>
<path fill="#267341" opacity="1.000000" stroke="none" 
	d="
M142.973480,50.961655 
	C144.736725,42.384586 147.311310,33.818008 143.975647,25.069532 
	C142.036606,19.984003 140.066772,14.897313 137.795654,9.955988 
	C136.362854,6.838598 134.559830,8.453084 132.734100,9.989534 
	C129.488251,12.721101 126.066139,15.243219 122.368835,17.922634 
	C125.889252,13.649137 129.636887,9.183298 133.758072,5.093925 
	C134.382141,4.474655 137.662277,5.098867 138.163071,6.004982 
	C144.956970,18.297695 150.601044,30.946821 146.840866,45.558151 
	C146.394440,47.292843 145.359726,48.876144 144.063461,50.758537 
	C143.343964,50.978855 143.158722,50.970253 142.973480,50.961655 
z"/>
<path fill="#287242" opacity="1.000000" stroke="none" 
	d="
M257.630188,194.445984 
	C255.523239,197.820404 249.928970,199.617050 247.348358,197.369705 
	C245.656982,195.896805 243.951706,192.570663 244.512543,190.783890 
	C245.563217,187.436646 248.652374,185.150986 252.715088,186.086288 
	C256.895233,187.048584 258.641632,189.786026 257.630188,194.445984 
z"/>
<path fill="#2A7548" opacity="1.000000" stroke="none" 
	d="
M153.420166,237.151978 
	C153.445831,236.288849 154.019989,235.409119 154.195282,234.456024 
	C154.444244,233.102371 154.978348,231.194870 154.327988,230.442108 
	C153.586060,229.583344 151.632568,229.369278 150.286316,229.534149 
	C148.513809,229.751205 146.799576,231.131210 145.097321,231.064606 
	C142.863815,230.977219 140.666428,229.967102 138.606934,229.046402 
	C142.889130,228.871094 147.648224,230.531128 149.576981,224.537308 
	C145.131668,223.923721 141.067566,223.362747 137.003464,222.801773 
	C142.505066,219.964005 148.015289,221.276077 153.799042,222.990540 
	C152.765030,225.340714 153.300156,226.496658 155.798416,227.046341 
	C157.610748,227.445084 159.327744,228.277145 162.545593,229.445496 
	C158.938828,232.599945 156.364700,234.851273 153.420166,237.151978 
z"/>
<path fill="#2A6E43" opacity="1.000000" stroke="none" 
	d="
M160.381363,86.866684 
	C161.738174,86.714531 163.674988,86.089561 165.139862,86.665306 
	C181.403809,93.057472 193.642944,116.784103 189.525620,133.660660 
	C189.373184,134.285477 188.943573,134.842682 188.418106,135.721390 
	C189.423309,125.010948 188.177795,114.479591 181.869614,105.058128 
	C176.529999,97.083244 170.039536,90.354721 160.381363,86.866684 
z"/>
<path fill="#2A6E43" opacity="1.000000" stroke="none" 
	d="
M170.683655,160.139130 
	C168.654892,162.139923 166.501328,164.540421 163.814301,165.824921 
	C162.485916,166.459915 160.174026,165.037521 158.376556,164.031586 
	C162.301743,157.306076 166.157547,151.095001 170.030762,144.785812 
	C170.071243,144.488480 170.071960,144.289078 170.195801,143.902466 
	C170.533875,143.465408 170.725067,143.214294 171.218353,142.959991 
	C171.724152,142.954483 171.926453,142.951096 172.128769,142.947723 
	C170.782227,148.485992 169.435669,154.024261 168.041931,159.756561 
	C168.136047,159.769760 169.237457,159.924194 170.683655,160.139130 
z"/>
<path fill="#2F7045" opacity="1.000000" stroke="none" 
	d="
M142.742828,51.202423 
	C143.158722,50.970253 143.343964,50.978855 143.807037,51.002022 
	C141.576355,59.643734 134.393250,63.774143 127.526665,68.195976 
	C125.596947,69.438652 123.600494,70.577698 121.324432,71.919525 
	C122.431648,70.325241 123.662712,68.373688 125.300331,66.862808 
	C130.961166,61.640083 136.763626,56.570858 142.742828,51.202423 
z"/>
<path fill="#2E6844" opacity="1.000000" stroke="none" 
	d="
M174.525146,238.867126 
	C174.733063,233.067429 175.252960,227.352585 176.022781,221.671600 
	C176.386093,218.990479 177.228699,216.374329 178.148529,213.488586 
	C178.287506,220.659683 178.114578,228.070587 177.987900,235.482315 
	C177.952438,237.558212 178.089691,239.668228 174.525146,238.867126 
z"/>
<path fill="#277343" opacity="1.000000" stroke="none" 
	d="
M167.956451,122.279053 
	C172.376480,121.386276 171.611313,124.762070 171.849213,127.734634 
	C171.443741,128.530701 171.187607,128.781296 170.684570,128.851501 
	C168.528427,128.393219 166.626862,128.009048 164.707596,127.870750 
	C163.146225,127.758232 161.563629,127.940300 160.028259,127.653954 
	C160.118912,126.866020 160.171753,126.415871 160.457657,125.831772 
	C161.338852,125.462753 161.986984,125.227692 162.869736,124.818542 
	C163.415466,124.411758 163.726578,124.179047 164.018982,123.982895 
	C164.000275,124.019455 163.926361,123.983643 164.239700,123.925323 
	C165.687515,123.337692 166.821976,122.808372 167.956451,122.279053 
z"/>
<path fill="#386C4E" opacity="1.000000" stroke="none" 
	d="
M164.638519,206.125977 
	C165.115753,214.599136 165.280136,223.376968 165.347687,232.546143 
	C164.942474,224.101868 164.634079,215.266266 164.638519,206.125977 
z"/>
<path fill="#2A7548" opacity="1.000000" stroke="none" 
	d="
M159.977814,215.615082 
	C157.729767,212.294952 155.471161,208.581635 153.085266,204.551773 
	C158.492889,205.856888 158.933823,210.728394 159.977814,215.615082 
z"/>
<path fill="#618972" opacity="1.000000" stroke="none" 
	d="
M37.708096,188.890503 
	C29.087744,189.053741 20.409288,188.767517 11.347436,188.313553 
	C19.859356,188.244232 28.754673,188.342636 37.708096,188.890503 
z"/>
<path fill="#267341" opacity="1.000000" stroke="none" 
	d="
M119.594864,19.951305 
	C117.617340,22.605183 115.255508,25.230143 112.566360,27.950073 
	C114.562874,25.337492 116.886711,22.629940 119.594864,19.951305 
z"/>
<path fill="#356A47" opacity="1.000000" stroke="none" 
	d="
M105.349777,73.542747 
	C105.257210,73.965889 105.010422,73.967400 104.393692,73.968719 
	C103.587486,70.917465 103.151215,67.866402 102.893768,64.350571 
	C103.780228,66.964241 104.487885,70.042679 105.349777,73.542747 
z"/>
<path fill="#2A6E43" opacity="1.000000" stroke="none" 
	d="
M181.666443,150.037598 
	C180.158768,152.157318 178.351883,154.430222 176.222870,156.829056 
	C177.722900,154.700256 179.545059,152.445511 181.666443,150.037598 
z"/>
<path fill="#277343" opacity="1.000000" stroke="none" 
	d="
M172.865936,137.023056 
	C172.902359,137.765167 172.938797,138.507294 172.566559,139.622498 
	C171.450073,140.004059 170.742264,140.012527 169.938080,139.754532 
	C169.912354,137.321228 169.983002,135.154388 170.200073,133.264923 
	C171.186295,134.702545 172.026123,135.862793 172.865936,137.023056 
z"/>
<path fill="#2A7548" opacity="1.000000" stroke="none" 
	d="
M154.452637,223.071564 
	C155.766708,222.138611 157.495193,221.167007 159.505066,220.119370 
	C160.115433,220.859665 160.444382,221.675980 160.991180,223.032883 
	C158.593094,223.032883 156.730072,223.032883 154.452637,223.071564 
z"/>
<path fill="#3A6E4C" opacity="1.000000" stroke="none" 
	d="
M167.613037,122.201813 
	C166.821976,122.808372 165.687515,123.337692 164.217957,123.633980 
	C162.587616,123.220032 161.292343,123.039124 159.994476,122.543877 
	C159.990784,121.810417 159.989716,121.391296 160.302948,120.954620 
	C161.035461,120.926735 161.453659,120.916397 161.871857,120.906067 
	C162.631348,120.911255 163.390839,120.916443 164.530457,120.915894 
	C165.696930,121.314957 166.483276,121.719765 167.613037,122.201813 
z"/>
<path fill="#2A6E43" opacity="1.000000" stroke="none" 
	d="
M186.671814,140.093552 
	C185.857727,142.483948 184.765106,145.094696 183.375916,147.882050 
	C184.183990,145.477051 185.288620,142.895493 186.671814,140.093552 
z"/>
<path fill="#297044" opacity="1.000000" stroke="none" 
	d="
M66.660141,227.055222 
	C66.251671,229.170822 65.717979,231.666306 62.153641,230.114777 
	C63.424572,229.039932 64.892754,228.117935 66.660141,227.055222 
z"/>
<path fill="#2E6844" opacity="1.000000" stroke="none" 
	d="
M179.397980,212.021652 
	C180.751221,209.583832 182.755936,208.298981 185.763245,210.917877 
	C183.913452,211.432877 181.850479,211.697586 179.397980,212.021652 
z"/>
<path fill="#2A6E43" opacity="1.000000" stroke="none" 
	d="
M172.911652,136.629700 
	C172.026123,135.862793 171.186295,134.702545 170.205780,132.937546 
	C170.080017,131.896240 170.094955,131.459686 170.403381,131.017334 
	C171.087509,131.004623 171.478165,130.997696 171.868805,130.990753 
	C172.231659,132.739288 172.594513,134.487808 172.911652,136.629700 
z"/>
<path fill="#356A47" opacity="1.000000" stroke="none" 
	d="
M103.216324,63.769508 
	C102.604774,62.628899 102.305832,61.307682 101.971855,59.142029 
	C101.954132,57.833977 101.971443,57.370365 101.988754,56.906750 
	C102.502151,59.134132 103.015541,61.361515 103.216324,63.769508 
z"/>
<path fill="#297044" opacity="1.000000" stroke="none" 
	d="
M71.047935,223.685608 
	C69.999702,224.890594 68.760773,225.803909 67.211884,226.842957 
	C68.220360,225.777115 69.538795,224.585526 71.047935,223.685608 
z"/>
<path fill="#267341" opacity="1.000000" stroke="none" 
	d="
M101.939125,56.705639 
	C101.971443,57.370365 101.954132,57.833977 101.916397,58.644165 
	C101.274178,58.137466 100.652390,57.284191 100.322540,56.221779 
	C100.997772,56.044960 101.381065,56.077278 101.764366,56.109596 
	C101.764366,56.109596 101.889496,56.504528 101.939125,56.705639 
z"/>
<path fill="#2A6E43" opacity="1.000000" stroke="none" 
	d="
M170.034439,140.020996 
	C170.742264,140.012527 171.450073,140.004059 172.511200,139.991119 
	C172.776886,140.554916 172.689255,141.123184 172.067963,141.864380 
	C171.331909,142.033936 171.129486,142.030579 170.808136,141.779449 
	C170.470947,141.028137 170.252686,140.524567 170.034439,140.020996 
z"/>
<path fill="#356A47" opacity="1.000000" stroke="none" 
	d="
M101.809341,55.769276 
	C101.381065,56.077278 100.997772,56.044960 100.327332,55.992569 
	C100.009895,55.176750 99.979614,54.381004 99.950813,53.183842 
	C100.586304,53.664604 101.220314,54.546780 101.809341,55.769276 
z"/>
<path fill="#2A6E43" opacity="1.000000" stroke="none" 
	d="
M170.931488,129.031891 
	C171.187607,128.781296 171.443741,128.530701 171.898651,128.099609 
	C172.253708,128.521347 172.409988,129.123566 172.044678,129.875198 
	C171.324402,130.019333 171.125702,130.014053 170.928253,129.764465 
	C170.929489,129.520126 170.931488,129.031891 170.931488,129.031891 
z"/>
<path fill="#356A47" opacity="1.000000" stroke="none" 
	d="
M98.949219,50.664680 
	C98.878586,50.970287 98.693375,51.001793 97.992317,51.039768 
	C97.476471,51.046234 97.001854,50.998306 97.001854,50.998306 
	C97.001854,50.998306 96.999985,50.999962 97.000778,50.998974 
	C97.003990,50.529472 97.006401,50.060959 97.012146,49.240044 
	C97.621872,49.388622 98.228256,49.889599 98.949219,50.664680 
z"/>
<path fill="#2A6E43" opacity="1.000000" stroke="none" 
	d="
M187.715424,137.075073 
	C187.795776,137.506195 187.628769,138.118881 187.334015,138.879684 
	C187.293533,138.437408 187.380798,137.847046 187.715424,137.075073 
z"/>
<path fill="#297044" opacity="1.000000" stroke="none" 
	d="
M57.030354,227.715118 
	C56.793564,227.511414 56.524590,226.995483 56.145542,226.210327 
	C56.356365,226.428360 56.677269,226.915604 57.030354,227.715118 
z"/>
<path fill="#277343" opacity="1.000000" stroke="none" 
	d="
M170.927002,130.008789 
	C171.125702,130.014053 171.324402,130.019333 171.821503,130.036026 
	C172.119888,130.047455 172.005371,130.522202 171.937088,130.756485 
	C171.478165,130.997696 171.087509,131.004623 170.537201,130.846909 
	C170.559036,130.456421 170.742203,130.231934 170.927002,130.008789 
z"/>
<path fill="#297044" opacity="1.000000" stroke="none" 
	d="
M58.952911,229.698181 
	C58.763271,229.674881 58.468960,229.421585 58.098175,229.039459 
	C58.297215,229.096497 58.572723,229.282349 58.952911,229.698181 
z"/>
<path fill="#2A6E43" opacity="1.000000" stroke="none" 
	d="
M175.723022,156.971664 
	C175.513992,157.202728 175.006271,157.469177 174.238144,157.854462 
	C174.459946,157.651230 174.942123,157.329147 175.723022,156.971664 
z"/>
<path fill="#277343" opacity="1.000000" stroke="none" 
	d="
M170.927078,142.027206 
	C171.129486,142.030579 171.331909,142.033936 171.838089,142.046082 
	C172.141861,142.054840 172.098999,142.501144 172.113892,142.724426 
	C171.926453,142.951096 171.724152,142.954483 171.221359,142.726410 
	C170.920868,142.494980 170.927078,142.027206 170.927078,142.027206 
z"/>
<path fill="#267341" opacity="1.000000" stroke="none" 
	d="
M121.766449,18.115421 
	C121.783745,18.251188 121.568146,18.471886 121.169998,18.837233 
	C121.083572,18.664074 121.265610,18.403564 121.766449,18.115421 
z"/>
<path fill="#267341" opacity="1.000000" stroke="none" 
	d="
M120.766212,19.099194 
	C120.779976,19.232908 120.559402,19.458654 120.153229,19.833715 
	C120.073700,19.663187 120.261787,19.399252 120.766212,19.099194 
z"/>
<path fill="#297044" opacity="1.000000" stroke="none" 
	d="
M57.971889,228.760101 
	C57.832874,228.771652 57.587471,228.539001 57.169540,228.119965 
	C57.286510,228.127686 57.576004,228.321808 57.971889,228.760101 
z"/>
<path fill="#2A6E43" opacity="1.000000" stroke="none" 
	d="
M173.733856,158.045563 
	C173.770096,158.211151 173.546158,158.440857 173.130661,158.819611 
	C173.128830,158.693573 173.307037,158.407242 173.733856,158.045563 
z"/>
<path fill="#2A6E43" opacity="1.000000" stroke="none" 
	d="
M172.738907,159.045868 
	C172.758438,159.196716 172.523712,159.428574 172.092957,159.812393 
	C172.102249,159.694748 172.298157,159.415588 172.738907,159.045868 
z"/>
<path fill="#2A7548" opacity="1.000000" stroke="none" 
	d="
M160.163635,216.930710 
	C159.999298,216.860565 159.998230,216.690643 159.994232,216.265778 
	C160.103165,216.284210 160.215012,216.557571 160.163635,216.930710 
z"/>
<path fill="#2E6844" opacity="1.000000" stroke="none" 
	d="
M178.307236,213.028503 
	C178.245758,212.822144 178.466736,212.574951 178.881805,212.168472 
	C178.901733,212.324539 178.739670,212.650711 178.307236,213.028503 
z"/>
<path fill="#356A47" opacity="1.000000" stroke="none" 
	d="
M99.859329,51.938057 
	C99.659004,51.949795 99.457123,51.671436 99.133301,51.167110 
	C99.293503,51.176750 99.575645,51.412357 99.859329,51.938057 
z"/>
<path fill="#1A7B3D" opacity="1.000000" stroke="none" 
	d="
M170.808136,141.779449 
	C170.927078,142.027206 170.920868,142.494980 170.917862,142.728546 
	C170.725067,143.214294 170.533875,143.465408 170.188248,144.100327 
	C170.035202,144.485199 170.013351,144.883942 170.013336,144.883942 
	C166.157547,151.095001 162.301743,157.306076 158.225388,163.769653 
	C154.534119,165.239822 150.365417,165.423721 148.906784,170.109390 
	C151.296722,170.923279 153.501724,171.674194 155.706741,172.425110 
	C155.758682,173.114380 155.810638,173.803650 155.862595,174.492920 
	C152.728455,175.222870 149.612396,176.458862 146.456192,176.571747 
	C140.822067,176.773239 135.110596,176.701843 129.533005,175.970337 
	C125.379562,175.425613 121.244797,173.994156 117.358231,172.350906 
	C112.709686,170.385483 107.452637,168.657104 104.036331,165.246323 
	C98.136711,159.356247 93.453934,152.247391 88.373779,145.204254 
	C88.992477,144.506058 89.498016,144.253479 90.252251,144.055450 
	C91.334740,144.069641 92.168526,144.029282 93.221329,143.760162 
	C94.331726,139.474579 95.223122,135.417725 96.359085,130.247818 
	C98.103065,133.025726 99.038277,134.515411 100.037048,136.405334 
	C100.402153,139.538818 100.703712,142.272034 100.991501,145.127975 
	C100.962372,145.497925 100.975151,145.743820 101.025116,146.237320 
	C101.034195,146.486237 101.042374,146.984344 101.199387,147.154175 
	C101.568947,147.547745 101.787163,147.765793 102.241592,148.179810 
	C103.346199,149.239319 104.220276,150.097183 105.067078,150.969696 
	C105.039803,150.984375 105.028168,150.923691 105.098083,151.057632 
	C105.465637,151.445633 105.763268,151.699677 106.287018,152.134064 
	C106.676079,152.863525 106.839020,153.412659 107.107498,154.296249 
	C109.875435,160.280167 114.732430,163.258820 120.416634,164.853500 
	C124.198158,165.914398 128.147980,168.503189 132.509674,165.111694 
	C134.274734,165.097656 135.634766,165.082947 137.278854,165.104965 
	C139.691986,164.104004 141.821045,163.066315 143.966599,162.018555 
	C143.983093,162.008469 144.014771,161.986343 144.187897,161.829865 
	C144.589020,161.460953 144.811478,161.242859 145.278687,160.900726 
	C146.027542,160.541260 146.526138,160.300201 147.336975,159.932037 
	C151.587509,155.981598 156.563416,152.809540 156.864792,146.703293 
	C156.416977,146.299942 155.969162,145.896606 155.521347,145.493256 
	C151.664749,148.954803 147.808167,152.416367 143.951035,155.909424 
	C143.950485,155.940948 143.958099,156.003525 143.789978,156.149261 
	C143.400940,156.492691 143.185349,156.696045 142.667130,157.012878 
	C141.563950,157.474060 140.768723,157.827423 139.819016,158.310822 
	C139.458313,158.615448 139.251450,158.789276 138.776367,158.980103 
	C138.330154,159.005920 138.151535,159.013992 137.860321,158.685181 
	C137.165909,156.565460 136.584122,154.782608 136.027145,152.631409 
	C136.372192,150.842499 136.692429,149.421921 137.288971,147.806839 
	C139.098831,144.122330 140.632355,140.632339 142.371490,136.967987 
	C143.081192,136.285172 143.585297,135.776718 144.393158,135.133942 
	C145.804016,133.982574 146.911133,132.965546 148.020538,131.984467 
	C148.022812,132.020401 147.950943,132.024994 148.150238,131.893066 
	C148.613968,131.580292 148.872787,131.391754 149.309479,131.146225 
	C149.492996,131.096939 149.871658,131.064590 150.160049,131.068054 
	C150.640701,131.071640 150.832977,131.071762 151.146271,131.086624 
	C151.513046,131.114487 151.756393,131.095184 152.373184,131.025650 
	C153.500763,130.970398 154.252457,130.932907 155.189423,131.043350 
	C156.239532,130.454437 157.104340,129.717575 158.217621,128.848572 
	C158.974213,128.474854 159.482330,128.233292 159.990448,127.991730 
	C161.563629,127.940300 163.146225,127.758232 164.707596,127.870750 
	C166.626862,128.009048 168.528427,128.393219 170.684570,128.851501 
	C170.931488,129.031891 170.929489,129.520126 170.928253,129.764465 
	C170.742203,130.231934 170.559036,130.456421 170.243713,130.852692 
	C170.094955,131.459686 170.080017,131.896240 170.059372,132.660187 
	C169.983002,135.154388 169.912354,137.321228 169.938080,139.754532 
	C170.252686,140.524567 170.470947,141.028137 170.808136,141.779449 
z"/>
<path fill="#1D7B3D" opacity="1.000000" stroke="none" 
	d="
M92.027740,105.684494 
	C92.024223,106.462891 92.004890,106.894485 91.758148,107.860657 
	C91.048042,109.266052 90.565346,110.136894 90.082649,111.007729 
	C89.692467,117.725876 89.302284,124.444023 88.721741,131.481781 
	C87.350258,132.207230 86.169128,132.613083 84.988007,133.018936 
	C84.682159,128.018311 83.570656,122.899811 84.280556,118.047813 
	C85.111557,112.368187 87.529160,106.920700 89.258492,101.372505 
	C89.867958,101.426826 90.477417,101.481148 91.086876,101.535469 
	C91.395226,102.802887 91.703568,104.070297 92.027740,105.684494 
z"/>
<path fill="#1B7B3D" opacity="1.000000" stroke="none" 
	d="
M107.070450,84.055679 
	C105.455002,85.825600 103.839554,87.595512 102.104568,89.678986 
	C97.523514,90.927773 96.876793,88.755989 97.788162,85.034370 
	C98.363869,82.683418 98.610260,80.251831 99.019043,77.431900 
	C100.089424,77.005424 101.145142,77.003456 102.597260,77.001381 
	C104.131310,77.898323 105.268944,78.795372 106.702820,80.226814 
	C107.022850,81.859367 107.046646,82.957520 107.070450,84.055679 
z"/>
<path fill="#197B3B" opacity="1.000000" stroke="none" 
	d="
M85.150261,133.186462 
	C86.169128,132.613083 87.350258,132.207230 88.784454,131.896729 
	C89.289299,132.784271 89.541077,133.576431 89.904160,135.081085 
	C90.012138,137.196350 90.008797,138.599106 90.005005,140.401703 
	C90.004227,141.867996 90.003891,142.934464 90.003555,144.000916 
	C89.498016,144.253479 88.992477,144.506058 88.233765,144.885468 
	C87.351814,141.909546 86.723022,138.806793 86.055161,135.232925 
	C86.031479,134.511902 86.015503,134.263885 85.968155,134.017776 
	C85.747719,133.798386 85.529167,133.577118 85.150261,133.186462 
z"/>
<path fill="#000000" opacity="1.000000" stroke="none" 
	d="
M158.721985,68.604126 
	C157.796204,70.336632 156.870438,72.069138 155.585037,74.474678 
	C153.828445,73.106461 152.298004,71.914406 149.916260,70.059258 
	C153.228561,69.151031 155.205353,68.609001 157.754593,68.167412 
	C158.458679,68.379944 158.590332,68.492035 158.721985,68.604126 
z"/>
<path fill="#000000" opacity="1.000000" stroke="none" 
	d="
M158.130386,68.098740 
	C158.260864,67.536163 158.587982,67.142708 158.915115,66.749252 
	C158.962616,67.255058 159.010132,67.760864 158.889816,68.435394 
	C158.590332,68.492035 158.458679,68.379944 158.130386,68.098740 
z"/>
<path fill="#1D7B3D" opacity="1.000000" stroke="none" 
	d="
M85.973053,134.266113 
	C86.015503,134.263885 86.031479,134.511902 86.002823,134.886459 
	C85.989555,135.011124 85.977951,134.514465 85.973053,134.266113 
z"/>
<path fill="#2A6E43" opacity="1.000000" stroke="none" 
	d="
M156.501984,167.483917 
	C156.486221,167.485764 156.517746,167.482056 156.501984,167.483917 
z"/>
<path fill="#1A7B3D" opacity="1.000000" stroke="none" 
	d="
M154.518341,169.503311 
	C154.518280,169.489090 154.518402,169.517532 154.518341,169.503311 
z"/>
<path fill="#1B7B3D" opacity="1.000000" stroke="none" 
	d="
M108.989319,75.980537 
	C109.605095,76.801636 110.224419,77.634293 110.963013,78.762680 
	C111.082275,79.058411 111.052757,79.059601 110.808441,78.962341 
	C110.035965,77.908089 109.507820,76.951096 108.979668,75.994102 
	C108.979668,75.994102 108.992859,75.992104 108.989319,75.980537 
z"/>
<path fill="#000000" opacity="1.000000" stroke="none" 
	d="
M105.078835,228.337540 
	C98.464653,230.909256 95.177521,228.808456 95.048645,222.051376 
	C95.008636,219.953873 95.522408,217.814590 96.003510,215.745804 
	C96.693497,212.778793 98.024307,210.470505 101.747589,210.998260 
	C105.625565,211.547928 107.977982,214.026230 107.844276,217.574448 
	C107.710754,221.118011 106.207748,224.609940 105.078835,228.337540 
z"/>
<path fill="#346D48" opacity="1.000000" stroke="none" 
	d="
M132.104614,165.111023 
	C128.147980,168.503189 124.198158,165.914398 120.416634,164.853500 
	C114.732430,163.258820 109.875435,160.280167 107.451447,154.329285 
	C108.782219,154.326477 109.874573,154.625076 111.223465,154.943832 
	C111.651085,154.976486 111.822182,154.988983 112.213394,155.207733 
	C113.286278,155.927078 114.139053,156.440170 115.305092,156.795410 
	C119.344040,153.933548 117.786201,150.439835 117.372215,147.047302 
	C118.128067,146.999130 118.560234,146.972321 119.310486,146.702148 
	C119.958885,144.024368 119.398926,140.633270 120.790009,139.338760 
	C124.632973,135.762573 121.869461,132.949112 120.771469,129.812363 
	C120.511612,129.070023 119.956009,128.172379 120.167824,127.567146 
	C121.268082,124.423286 119.395706,123.501801 116.962662,122.581940 
	C116.987076,121.859421 117.004074,121.446793 117.021072,121.034164 
	C126.825813,121.446030 136.630554,121.857895 147.177795,122.173096 
	C151.943085,121.708336 155.965866,121.340256 159.988647,120.972168 
	C159.989716,121.391296 159.990784,121.810417 159.573151,122.611206 
	C149.966461,123.886398 140.778488,124.779922 131.004257,125.730461 
	C130.646957,128.099869 130.208832,131.005249 129.492401,133.905640 
	C128.844070,133.887314 128.474060,133.873962 127.989952,133.608322 
	C127.594864,132.879623 127.313866,132.403229 126.868317,131.768753 
	C126.481903,131.402252 126.252724,131.202209 125.755875,131.278687 
	C121.644867,140.670441 125.744286,149.043625 127.018410,157.683487 
	C127.722702,157.708206 128.427002,157.732941 129.131302,157.757675 
	C129.422058,154.844315 129.712814,151.930954 130.001785,148.759766 
	C129.996048,148.330109 129.992111,148.158264 129.980087,147.610657 
	C129.960800,146.483261 129.949585,145.731644 129.876099,144.671814 
	C129.558090,143.563660 129.302353,142.763733 129.042450,141.536850 
	C129.018326,139.401215 128.998352,137.692505 129.195679,135.992310 
	C129.412964,136.000809 129.847580,136.016571 129.943481,136.416626 
	C130.866837,140.856247 131.694275,144.895782 132.521729,148.935333 
	C132.983841,148.884003 133.445969,148.832687 133.908081,148.781357 
	C135.269974,146.486984 136.631851,144.192612 137.962967,142.286499 
	C137.625671,144.450287 137.319153,146.225815 137.012650,148.001343 
	C136.692429,149.421921 136.372192,150.842499 135.855560,152.897858 
	C135.106384,154.433655 134.553650,155.334671 133.697205,156.182861 
	C132.843277,157.909225 132.739182,160.078110 131.619553,161.359940 
	C130.458710,162.688950 128.314011,163.158615 126.599609,164.004120 
	C126.646690,164.296768 126.693779,164.589401 126.740860,164.882050 
	C128.465546,164.882050 130.190216,164.882050 131.962418,164.939224 
	C132.009933,164.996399 132.104614,165.111023 132.104614,165.111023 
M120.426613,159.395432 
	C121.782593,158.882706 123.138580,158.369965 124.494560,157.857224 
	C123.149483,155.432892 125.879547,150.937103 120.120689,150.005447 
	C120.120689,153.179886 120.120689,155.922684 120.426613,159.395432 
z"/>
<path fill="#2A6E42" opacity="1.000000" stroke="none" 
	d="
M105.094353,150.955032 
	C104.220276,150.097183 103.346199,149.239319 102.083656,148.010742 
	C101.482315,147.416763 101.264709,147.198196 101.042374,146.984344 
	C101.042374,146.984344 101.034195,146.486237 101.023315,145.991547 
	C101.012428,145.496872 101.005280,145.005249 101.005280,145.005249 
	C100.703712,142.272034 100.402153,139.538818 100.043968,135.958847 
	C100.022003,133.454178 99.802185,131.743118 100.135361,130.147537 
	C101.577606,123.240707 102.083908,115.934608 108.130638,110.897118 
	C111.169502,108.365471 114.057419,105.652626 117.013596,103.021729 
	C117.757622,103.006966 118.501648,102.992203 119.916351,103.031662 
	C121.378471,104.377136 122.169907,105.668373 122.961342,106.959618 
	C121.108322,108.128868 119.255302,109.298126 116.839172,110.789337 
	C111.979446,112.005219 111.713524,115.653534 110.923653,118.943810 
	C110.155266,121.527542 109.386879,124.111275 108.336983,126.566757 
	C107.440460,124.114105 106.825455,121.789703 106.007362,118.697716 
	C102.369781,126.167671 100.872765,132.992065 102.836159,140.380051 
	C103.760803,143.859360 104.352036,147.427277 105.094353,150.955032 
z"/>
<path fill="#22753E" opacity="1.000000" stroke="none" 
	d="
M116.648407,103.085335 
	C114.057419,105.652626 111.169502,108.365471 108.130638,110.897118 
	C102.083908,115.934608 101.577606,123.240707 100.135361,130.147537 
	C99.802185,131.743118 100.022003,133.454178 99.980423,135.558594 
	C99.038277,134.515411 98.103065,133.025726 96.359085,130.247818 
	C95.223122,135.417725 94.331726,139.474579 93.069214,143.484924 
	C91.800552,142.292923 90.903008,141.147400 90.005455,140.001877 
	C90.008797,138.599106 90.012138,137.196350 90.022415,135.369904 
	C91.149277,133.588470 92.651085,132.396072 93.322960,130.844330 
	C96.219170,124.155357 98.872032,117.361023 101.762672,110.296059 
	C103.774963,109.323082 105.721138,108.827339 107.482597,107.957527 
	C110.477371,106.478668 113.355858,104.764328 116.648407,103.085335 
z"/>
<path fill="#1D793D" opacity="1.000000" stroke="none" 
	d="
M160.302948,120.954620 
	C155.965866,121.340256 151.943085,121.708336 147.488525,122.098320 
	C147.036789,121.033257 147.016830,119.946304 146.992615,118.455864 
	C150.358017,117.287590 153.829605,116.804413 157.053711,115.637520 
	C158.632126,115.066246 161.082947,112.551689 160.842606,112.075378 
	C159.888062,110.183670 158.238419,108.428154 156.436905,107.246170 
	C154.992279,106.298347 152.956299,106.251823 151.280655,105.169472 
	C155.580063,101.650116 159.802414,104.026482 163.415375,105.809753 
	C165.691986,106.933449 168.653549,110.557083 168.242416,112.360390 
	C167.564377,115.334305 164.405014,117.742485 162.081680,120.647591 
	C161.453659,120.916397 161.035461,120.926735 160.302948,120.954620 
z"/>
<path fill="#000000" opacity="1.000000" stroke="none" 
	d="
M105.067078,150.969696 
	C104.352036,147.427277 103.760803,143.859360 102.836159,140.380051 
	C100.872765,132.992065 102.369781,126.167671 106.007362,118.697716 
	C106.825455,121.789703 107.440460,124.114105 108.119308,126.825470 
	C108.183144,127.212433 108.076111,127.508827 107.866936,127.787491 
	C107.577377,128.186066 107.401581,128.365128 107.432961,128.415710 
	C107.576324,128.646896 107.777794,128.842010 107.958382,129.050095 
	C107.958382,129.050095 107.983246,128.999435 107.959503,129.449890 
	C109.017021,135.927673 110.098274,141.954987 111.144829,148.358490 
	C111.144630,149.488251 111.179131,150.241837 111.141861,151.383987 
	C111.035713,152.822922 111.001320,153.873291 110.966927,154.923660 
	C109.874573,154.625076 108.782219,154.326477 107.345917,153.994843 
	C106.839020,153.412659 106.676079,152.863525 106.179657,151.904999 
	C105.573509,151.304962 105.300835,151.114334 105.028168,150.923691 
	C105.028168,150.923691 105.039803,150.984375 105.067078,150.969696 
z"/>
<path fill="#000000" opacity="1.000000" stroke="none" 
	d="
M137.298019,114.088409 
	C138.207733,113.311607 139.336761,112.683258 139.983215,111.728271 
	C141.506882,109.477394 142.800522,107.070808 143.546204,105.810577 
	C148.175247,107.917435 151.950150,109.635551 156.287827,111.609795 
	C153.384445,115.742119 148.666260,115.644104 144.102783,116.770462 
	C143.458923,117.058502 143.100281,117.052063 142.369415,116.690376 
	C140.436981,115.562805 138.876740,114.790482 137.286697,114.029007 
	C137.256882,114.039856 137.298019,114.088409 137.298019,114.088409 
z"/>
<path fill="#22753E" opacity="1.000000" stroke="none" 
	d="
M111.223465,154.943832 
	C111.001320,153.873291 111.035713,152.822922 111.308212,151.210571 
	C111.686760,149.753967 111.827187,148.859329 111.970337,147.517532 
	C111.311363,141.383774 110.649673,135.697174 109.987976,130.010574 
	C111.055008,130.008072 112.122032,130.005585 113.596611,130.428116 
	C115.018951,136.258331 116.033737,141.663513 117.048531,147.068695 
	C117.786201,150.439835 119.344040,153.933548 115.100555,156.574677 
	C113.719597,156.008362 112.856438,155.504929 111.993279,155.001495 
	C111.822182,154.988983 111.651085,154.976486 111.223465,154.943832 
z"/>
<path fill="#22723E" opacity="1.000000" stroke="none" 
	d="
M117.372215,147.047302 
	C116.033737,141.663513 115.018951,136.258331 113.996735,130.425537 
	C114.609940,126.922485 110.770706,122.626930 116.744202,120.987183 
	C117.004074,121.446793 116.987076,121.859421 116.674622,122.861160 
	C117.250252,131.282013 118.121323,139.113770 118.992401,146.945526 
	C118.560234,146.972321 118.128067,146.999130 117.372215,147.047302 
z"/>
<path fill="#2A6E42" opacity="1.000000" stroke="none" 
	d="
M109.734863,129.877960 
	C110.649673,135.697174 111.311363,141.383774 111.773491,147.522644 
	C111.573921,147.974915 111.179527,147.982315 111.179527,147.982315 
	C110.098274,141.954987 109.017021,135.927673 107.932693,129.458664 
	C108.446999,129.259766 108.964378,129.502548 109.734863,129.877960 
z"/>
<path fill="#22753E" opacity="1.000000" stroke="none" 
	d="
M123.288162,106.832886 
	C122.169907,105.668373 121.378471,104.377136 120.288368,103.024597 
	C120.203712,102.710640 120.376427,102.298180 120.638245,102.230522 
	C122.768745,101.680000 126.439369,100.255104 126.803131,100.845367 
	C128.722763,103.960266 126.092392,105.460991 123.288162,106.832886 
z"/>
<path fill="#1F763D" opacity="1.000000" stroke="none" 
	d="
M111.244919,118.828064 
	C111.713524,115.653534 111.979446,112.005219 116.627472,111.041634 
	C115.174652,113.552094 113.370422,116.132202 111.244919,118.828064 
z"/>
<path fill="#22763F" opacity="1.000000" stroke="none" 
	d="
M136.769257,110.193817 
	C137.091995,111.089134 137.146973,112.181114 137.249985,113.680756 
	C137.298019,114.088409 137.256882,114.039856 137.011398,114.224564 
	C136.229401,115.566994 135.692886,116.724716 135.156357,117.882439 
	C131.535278,117.196213 131.380814,115.406631 133.649719,112.958824 
	C134.515839,112.024422 135.546051,111.242111 136.769257,110.193817 
z"/>
<path fill="#367049" opacity="1.000000" stroke="none" 
	d="
M135.551483,117.893707 
	C135.692886,116.724716 136.229401,115.566994 137.041214,114.213715 
	C138.876740,114.790482 140.436981,115.562805 142.098877,116.697906 
	C140.115891,117.342110 138.031265,117.623543 135.551483,117.893707 
z"/>
<path fill="#2A6E42" opacity="1.000000" stroke="none" 
	d="
M107.979111,128.742554 
	C107.777794,128.842010 107.576324,128.646896 107.432961,128.415710 
	C107.401581,128.365128 107.577377,128.186066 107.838791,127.942528 
	C108.013168,128.024277 108.006500,128.229660 107.979111,128.742554 
z"/>
<path fill="#2A7548" opacity="1.000000" stroke="none" 
	d="
M148.535477,211.349091 
	C150.967865,215.508591 149.341721,217.110855 145.326096,217.340195 
	C143.838837,217.425140 142.324860,217.462326 140.880051,217.780228 
	C138.121231,218.387222 135.620331,217.503922 135.862961,214.757675 
	C136.048447,212.658218 138.117889,209.293442 139.712067,209.069092 
	C142.442780,208.684799 145.457138,210.316132 148.535477,211.349091 
M139.474182,214.070389 
	C142.011703,214.360703 144.549225,214.651001 147.882721,215.032349 
	C144.765701,209.746048 140.088531,209.303802 137.737122,213.013031 
	C137.670975,213.117386 138.438477,213.750214 139.474182,214.070389 
z"/>
<path fill="#000000" opacity="1.000000" stroke="none" 
	d="
M136.689560,222.910217 
	C141.067566,223.362747 145.131668,223.923721 149.576981,224.537308 
	C147.648224,230.531128 142.889130,228.871094 138.418976,228.754898 
	C138.077606,228.770844 137.970520,228.868881 137.948761,228.634918 
	C137.571747,228.290512 137.216492,228.180084 136.861221,228.069656 
	C136.699371,226.385986 136.537521,224.702316 136.689560,222.910217 
z"/>
<path fill="#2A7548" opacity="1.000000" stroke="none" 
	d="
M137.049194,228.238220 
	C137.216492,228.180084 137.571747,228.290512 137.996613,228.689514 
	C137.789871,228.787643 137.513519,228.597214 137.049194,228.238220 
z"/>
<path fill="#267341" opacity="1.000000" stroke="none" 
	d="
M97.119308,51.026161 
	C97.001854,50.998306 97.476471,51.046234 97.712440,51.072701 
	C97.709236,51.114029 97.472023,51.098976 97.119308,51.026161 
z"/>
<path fill="#20783F" opacity="1.000000" stroke="none" 
	d="
M108.750809,76.219925 
	C109.507820,76.951096 110.035965,77.908089 110.798187,78.967438 
	C109.876938,80.594116 108.721611,82.118431 107.318375,83.849213 
	C107.046646,82.957520 107.022850,81.859367 106.993279,80.348007 
	C107.498993,78.771790 108.010475,77.608765 108.750809,76.219925 
z"/>
<path fill="#000000" opacity="1.000000" stroke="none" 
	d="
M118.067917,60.049339 
	C117.491180,61.014004 116.914444,61.978668 116.337708,62.943333 
	C115.949341,62.689907 115.560982,62.436478 115.172623,62.183052 
	C115.781776,61.376034 116.390938,60.569012 117.379150,59.724884 
	C117.758202,59.687775 118.067909,60.049335 118.067917,60.049339 
z"/>
<path fill="#000000" opacity="1.000000" stroke="none" 
	d="
M117.605316,59.505318 
	C117.820290,59.111755 118.188141,58.900646 118.556000,58.689537 
	C118.524498,59.072731 118.492996,59.455917 118.264702,59.944221 
	C118.067909,60.049335 117.758202,59.687775 117.605316,59.505318 
z"/>
<path fill="#267341" opacity="1.000000" stroke="none" 
	d="
M90.279816,110.783569 
	C90.565346,110.136894 91.048042,109.266052 91.748405,108.184799 
	C91.469704,108.836060 90.973335,109.697731 90.279816,110.783569 
z"/>
<path fill="#277343" opacity="1.000000" stroke="none" 
	d="
M170.030762,144.785828 
	C170.013351,144.883942 170.035202,144.485199 170.042755,144.287354 
	C170.071960,144.289078 170.071243,144.488480 170.030762,144.785828 
z"/>
<path fill="#000000" opacity="1.000000" stroke="none" 
	d="
M137.993744,141.898239 
	C136.631851,144.192612 135.269974,146.486984 133.908081,148.781357 
	C133.445969,148.832687 132.983841,148.884003 132.521729,148.935333 
	C131.694275,144.895782 130.866837,140.856247 129.980621,136.065292 
	C129.871475,134.846130 129.821091,134.378387 129.770706,133.910629 
	C130.208832,131.005249 130.646957,128.099869 131.004257,125.730461 
	C140.778488,124.779922 149.966461,123.886398 159.575775,122.925537 
	C161.292343,123.039124 162.587616,123.220032 163.904617,123.692291 
	C163.926361,123.983643 164.000275,124.019455 163.740021,124.086777 
	C163.198196,124.433601 162.916656,124.713112 162.635101,124.992615 
	C161.986984,125.227692 161.338852,125.462753 160.067688,125.805847 
	C156.253662,127.630775 153.062653,129.347687 149.871658,131.064590 
	C149.871658,131.064590 149.492996,131.096939 149.050629,131.178497 
	C148.389160,131.515030 148.170044,131.770004 147.950943,132.024994 
	C147.950943,132.024994 148.022812,132.020401 147.664398,132.025162 
	C145.869431,132.816833 144.432877,133.603760 142.807434,133.990402 
	C143.183884,130.973038 143.060150,128.959839 139.505417,128.960403 
	C136.464462,128.960892 135.151810,129.912369 134.927246,133.263992 
	C134.556519,138.797318 137.890778,137.311279 140.578644,137.207550 
	C140.203873,137.922348 140.078949,138.381485 139.666901,138.960419 
	C138.965439,139.746597 138.551102,140.412949 138.109894,141.285583 
	C138.083023,141.491867 137.993744,141.898239 137.993744,141.898239 
z"/>
<path fill="#346D48" opacity="1.000000" stroke="none" 
	d="
M150.160049,131.068054 
	C153.062653,129.347687 156.253662,127.630775 159.834625,125.939796 
	C160.171753,126.415871 160.118912,126.866020 160.028259,127.653946 
	C159.482330,128.233292 158.974213,128.474854 157.945648,128.968201 
	C156.618179,129.778458 155.811157,130.336929 155.004135,130.895416 
	C154.252457,130.932907 153.500763,130.970398 152.130280,131.031693 
	C151.511475,131.055511 151.025269,131.071884 151.025269,131.071884 
	C150.832977,131.071762 150.640701,131.071640 150.160049,131.068054 
z"/>
<path fill="#3A6E4C" opacity="1.000000" stroke="none" 
	d="
M162.869736,124.818542 
	C162.916656,124.713112 163.198196,124.433601 163.758713,124.050217 
	C163.726578,124.179047 163.415466,124.411758 162.869736,124.818542 
z"/>
<path fill="#286F41" opacity="1.000000" stroke="none" 
	d="
M143.951584,155.877914 
	C147.808167,152.416367 151.664749,148.954803 155.521347,145.493256 
	C155.969162,145.896606 156.416977,146.299942 156.864792,146.703293 
	C156.563416,152.809540 151.587509,155.981598 147.364883,159.703094 
	C146.037582,158.360138 144.994583,157.119034 143.951584,155.877914 
M148.551468,155.007385 
	C148.551468,155.007385 148.492676,155.025742 148.551468,155.007385 
z"/>
<path fill="#346D48" opacity="1.000000" stroke="none" 
	d="
M143.951035,155.909424 
	C144.994583,157.119034 146.037582,158.360138 147.052673,159.830200 
	C146.526138,160.300201 146.027542,160.541260 145.101913,161.054077 
	C144.445084,161.536255 144.225052,161.756424 144.014771,161.986343 
	C144.014771,161.986343 143.983093,162.008469 143.579315,162.030823 
	C141.154846,162.405609 139.134155,162.758026 137.063766,163.068817 
	C137.014084,163.027191 136.914963,162.943619 136.734375,162.649933 
	C135.766663,160.873734 134.979553,159.391235 134.507233,158.003830 
	C135.872330,158.406631 136.922623,158.714340 137.972931,159.022049 
	C138.151535,159.013992 138.330154,159.005920 138.937500,158.856873 
	C139.576401,158.546326 139.778824,158.367950 139.973495,158.180771 
	C140.768723,157.827423 141.563950,157.474060 142.837067,156.869965 
	C143.536774,156.421753 143.751160,156.216537 143.958099,156.003525 
	C143.958099,156.003525 143.950485,155.940948 143.951035,155.909424 
z"/>
<path fill="#277343" opacity="1.000000" stroke="none" 
	d="
M137.962967,142.286499 
	C137.993744,141.898239 138.083023,141.491867 138.327499,141.092224 
	C139.032654,140.075256 139.493347,139.457932 139.954041,138.840607 
	C140.078949,138.381485 140.203873,137.922348 140.666840,137.199066 
	C141.004883,136.934921 141.178925,136.907211 141.382568,136.933136 
	C141.586197,136.959076 141.995178,136.995163 142.037781,137.032043 
	C142.080399,137.068909 142.165878,137.142334 142.165878,137.142334 
	C140.632355,140.632339 139.098831,144.122330 137.288971,147.806839 
	C137.319153,146.225815 137.625671,144.450287 137.962967,142.286499 
z"/>
<path fill="#277343" opacity="1.000000" stroke="none" 
	d="
M137.113449,163.110443 
	C139.134155,162.758026 141.154846,162.405609 143.562836,162.040894 
	C141.821045,163.066315 139.691986,164.104004 137.297897,164.777557 
	C137.059723,163.979095 137.086594,163.544785 137.113449,163.110443 
z"/>
<path fill="#277343" opacity="1.000000" stroke="none" 
	d="
M137.860321,158.685181 
	C136.922623,158.714340 135.872330,158.406631 134.454987,157.728226 
	C134.058929,156.983582 134.029907,156.609634 134.000900,156.235687 
	C134.553650,155.334671 135.106384,154.433655 135.830719,153.266205 
	C136.584122,154.782608 137.165909,156.565460 137.860321,158.685181 
z"/>
<path fill="#277343" opacity="1.000000" stroke="none" 
	d="
M155.189423,131.043335 
	C155.811157,130.336929 156.618179,129.778458 157.697174,129.100342 
	C157.104340,129.717575 156.239532,130.454437 155.189423,131.043335 
z"/>
<path fill="#1F793D" opacity="1.000000" stroke="none" 
	d="
M90.005013,140.401703 
	C90.903008,141.147400 91.800552,142.292923 92.850204,143.713684 
	C92.168526,144.029282 91.334740,144.069641 90.252258,144.055450 
	C90.003891,142.934464 90.004227,141.867996 90.005013,140.401703 
z"/>
<path fill="#346D48" opacity="1.000000" stroke="none" 
	d="
M142.996338,134.390686 
	C144.432877,133.603760 145.869431,132.816833 147.662109,131.989227 
	C146.911133,132.965546 145.804016,133.982574 144.145111,135.073929 
	C143.428406,135.107925 143.263474,135.067581 143.071991,134.868256 
	C143.045456,134.709274 142.996338,134.390686 142.996338,134.390686 
z"/>
<path fill="#346D48" opacity="1.000000" stroke="none" 
	d="
M137.063766,163.068817 
	C137.086594,163.544785 137.059723,163.979095 137.013824,164.740814 
	C135.634766,165.082947 134.274734,165.097656 132.509674,165.111694 
	C132.104614,165.111023 132.009933,164.996399 132.187653,164.676331 
	C133.881912,163.885376 135.398438,163.414490 136.914963,162.943619 
	C136.914963,162.943619 137.014084,163.027191 137.063766,163.068817 
z"/>
<path fill="#277343" opacity="1.000000" stroke="none" 
	d="
M143.098541,135.027252 
	C143.263474,135.067581 143.428406,135.107925 143.841370,135.208267 
	C143.585297,135.776718 143.081192,136.285172 142.371490,136.967987 
	C142.165878,137.142334 142.080399,137.068909 142.020416,136.827728 
	C141.960434,136.586548 141.909851,136.179520 142.107330,135.986938 
	C142.569397,135.538651 142.833969,135.282944 143.098541,135.027252 
z"/>
<path fill="#22723E" opacity="1.000000" stroke="none" 
	d="
M105.098083,151.057632 
	C105.300835,151.114334 105.573509,151.304962 105.953537,151.724670 
	C105.763268,151.699677 105.465637,151.445633 105.098083,151.057632 
z"/>
<path fill="#22753E" opacity="1.000000" stroke="none" 
	d="
M101.199387,147.154175 
	C101.264709,147.198196 101.482315,147.416763 101.853127,147.809113 
	C101.787163,147.765793 101.568947,147.547745 101.199387,147.154175 
z"/>
<path fill="#286F41" opacity="1.000000" stroke="none" 
	d="
M143.789978,156.149261 
	C143.751160,156.216537 143.536774,156.421753 143.145020,156.762115 
	C143.185349,156.696045 143.400940,156.492691 143.789978,156.149261 
z"/>
<path fill="#277343" opacity="1.000000" stroke="none" 
	d="
M151.146271,131.086624 
	C151.025269,131.071884 151.511475,131.055511 151.754379,131.049469 
	C151.756393,131.095184 151.513046,131.114487 151.146271,131.086624 
z"/>
<path fill="#277343" opacity="1.000000" stroke="none" 
	d="
M139.819016,158.310822 
	C139.778824,158.367950 139.576401,158.546326 139.205078,158.839127 
	C139.251450,158.789276 139.458313,158.615448 139.819016,158.310822 
z"/>
<path fill="#346D48" opacity="1.000000" stroke="none" 
	d="
M148.150238,131.893066 
	C148.170044,131.770004 148.389160,131.515030 148.867126,131.227783 
	C148.872787,131.391754 148.613968,131.580292 148.150238,131.893066 
z"/>
<path fill="#286F41" opacity="1.000000" stroke="none" 
	d="
M144.187897,161.829865 
	C144.225052,161.756424 144.445084,161.536255 144.851654,161.172485 
	C144.811478,161.242859 144.589020,161.460953 144.187897,161.829865 
z"/>
<path fill="#22753E" opacity="1.000000" stroke="none" 
	d="
M100.991501,145.127975 
	C101.005280,145.005249 101.012428,145.496872 101.014236,145.742645 
	C100.975151,145.743820 100.962372,145.497925 100.991501,145.127975 
z"/>
<path fill="#1E773D" opacity="1.000000" stroke="none" 
	d="
M128.978394,135.983810 
	C128.998352,137.692505 129.018326,139.401215 129.103668,141.847641 
	C129.425476,143.383591 129.681915,144.181793 129.938354,144.980011 
	C129.949585,145.731644 129.960800,146.483261 129.966141,147.739349 
	C129.945526,148.503250 129.959961,148.761185 130.003571,149.017593 
	C129.712814,151.930954 129.422058,154.844315 129.131302,157.757675 
	C128.427002,157.732941 127.722702,157.708206 127.018410,157.683487 
	C125.744286,149.043625 121.644867,140.670441 125.922577,131.434204 
	C126.572746,131.528564 126.800484,131.730316 127.032867,131.926834 
	C127.313866,132.403229 127.594864,132.879623 128.079651,133.884003 
	C128.515106,134.935928 128.746750,135.459869 128.978394,135.983810 
z"/>
<path fill="#000000" opacity="1.000000" stroke="none" 
	d="
M119.310486,146.702148 
	C118.121323,139.113770 117.250252,131.282013 116.667213,123.171036 
	C119.395706,123.501801 121.268082,124.423286 120.167824,127.567146 
	C119.956009,128.172379 120.511612,129.070023 120.771469,129.812363 
	C121.869461,132.949112 124.632973,135.762573 120.790009,139.338760 
	C119.398926,140.633270 119.958885,144.024368 119.310486,146.702148 
z"/>
<path fill="#000000" opacity="1.000000" stroke="none" 
	d="
M120.273651,159.030457 
	C120.120689,155.922684 120.120689,153.179886 120.120689,150.005447 
	C125.879547,150.937103 123.149483,155.432892 124.494568,157.857239 
	C123.138580,158.369965 121.782593,158.882706 120.273651,159.030457 
z"/>
<path fill="#000000" opacity="1.000000" stroke="none" 
	d="
M136.734375,162.649933 
	C135.398438,163.414490 133.881912,163.885376 132.140137,164.619141 
	C130.190216,164.882050 128.465546,164.882050 126.740860,164.882050 
	C126.693779,164.589401 126.646690,164.296768 126.599609,164.004120 
	C128.314011,163.158615 130.458710,162.688950 131.619553,161.359940 
	C132.739182,160.078110 132.843277,157.909225 133.697205,156.182861 
	C134.029907,156.609634 134.058929,156.983582 134.140198,157.633133 
	C134.979553,159.391235 135.766663,160.873734 136.734375,162.649933 
z"/>
<path fill="#22723E" opacity="1.000000" stroke="none" 
	d="
M112.213394,155.207733 
	C112.856438,155.504929 113.719597,156.008362 114.787292,156.732513 
	C114.139053,156.440170 113.286278,155.927078 112.213394,155.207733 
z"/>
<path fill="#256F40" opacity="1.000000" stroke="none" 
	d="
M129.195679,135.992310 
	C128.746750,135.459869 128.515106,134.935928 128.193741,134.136292 
	C128.474060,133.873962 128.844070,133.887314 129.492401,133.905640 
	C129.821091,134.378387 129.871475,134.846130 129.884720,135.665222 
	C129.847580,136.016571 129.412964,136.000809 129.195679,135.992310 
z"/>
<path fill="#256F40" opacity="1.000000" stroke="none" 
	d="
M129.876099,144.671814 
	C129.681915,144.181793 129.425476,143.383591 129.107819,142.274582 
	C129.302353,142.763733 129.558090,143.563660 129.876099,144.671814 
z"/>
<path fill="#256F40" opacity="1.000000" stroke="none" 
	d="
M130.001785,148.759766 
	C129.959961,148.761185 129.945526,148.503250 129.974213,148.115112 
	C129.992111,148.158264 129.996048,148.330109 130.001785,148.759766 
z"/>
<path fill="#256F40" opacity="1.000000" stroke="none" 
	d="
M126.868317,131.768753 
	C126.800484,131.730316 126.572746,131.528564 126.182938,131.166046 
	C126.252724,131.202209 126.481903,131.402252 126.868317,131.768753 
z"/>
<path fill="#22723E" opacity="1.000000" stroke="none" 
	d="
M111.144829,148.358490 
	C111.179527,147.982315 111.573921,147.974915 111.770767,147.969803 
	C111.827187,148.859329 111.686760,149.753967 111.379974,150.822021 
	C111.179131,150.241837 111.144630,149.488251 111.144829,148.358490 
z"/>
<path fill="#000000" opacity="1.000000" stroke="none" 
	d="
M139.145721,214.103500 
	C138.438477,213.750214 137.670975,213.117386 137.737122,213.013031 
	C140.088531,209.303802 144.765701,209.746048 147.882721,215.032349 
	C144.549225,214.651001 142.011703,214.360703 139.145721,214.103500 
z"/>
<path fill="#306B44" opacity="1.000000" stroke="none" 
	d="
M143.071991,134.868256 
	C142.833969,135.282944 142.569397,135.538651 141.977844,136.099762 
	C141.482986,136.562561 141.325668,136.729919 141.178925,136.907211 
	C141.178925,136.907211 141.004883,136.934921 140.916672,136.943390 
	C137.890778,137.311279 134.556519,138.797318 134.927246,133.263992 
	C135.151810,129.912369 136.464462,128.960892 139.505417,128.960403 
	C143.060150,128.959839 143.183884,130.973038 142.807434,133.990402 
	C142.996338,134.390686 143.045456,134.709274 143.071991,134.868256 
z"/>
<path fill="#346D48" opacity="1.000000" stroke="none" 
	d="
M139.666901,138.960419 
	C139.493347,139.457932 139.032654,140.075256 138.354370,140.885956 
	C138.551102,140.412949 138.965439,139.746597 139.666901,138.960419 
z"/>
<path fill="#346D48" opacity="1.000000" stroke="none" 
	d="
M148.522064,155.016571 
	C148.492676,155.025742 148.551468,155.007385 148.522064,155.016571 
z"/>
<path fill="#346D48" opacity="1.000000" stroke="none" 
	d="
M141.382568,136.933136 
	C141.325668,136.729919 141.482986,136.562561 141.780365,136.292328 
	C141.909851,136.179520 141.960434,136.586548 141.977814,136.790863 
	C141.995178,136.995163 141.586197,136.959076 141.382568,136.933136 
z"/>
</svg>